<?xml version="1.0" encoding="utf-8"?>
<!-- Generator: Adobe Illustrator 21.1.0, SVG Export Plug-In . SVG Version: 6.00 Build 0)  -->
<svg version="1.1" id="레이어_1" xmlns="http://www.w3.org/2000/svg" xmlns:xlink="http://www.w3.org/1999/xlink" x="0px"
	 y="0px" viewBox="0 0 500 500" style="enable-background:new 0 0 500 500;" xml:space="preserve">
<style type="text/css">
	.st0{fill:#B9B9B9;stroke:#FFFFFF;}
</style>
<g id="부산광역시">
	<path id="기장군" class="st0" d="M62.9,36.9l-3.6-0.8l-4.6-2l-0.1-3.8l-3.5-4l-0.9-0.8v-5.1L49,19.1l1.5-9.5l2.4-0.1l2.6,2.1
		l3-2l1.3-3.8l4.9,0.8l2.1-0.5l2.8,1.8l0.4,5.3l1.9,2.1L71.1,17l-2.3-1.1L67,19.1l1.5,1.9l-2,2.9l-1.4,1.3l1.9,1.5l-1.3,2.8
		l-0.9,2.3L63.3,32L62.9,36.9z"/>
	<path id="북구" class="st0" d="M32.8,36l0.9-5.6l0.1-1.3l2.3-5.8l1,0.8l3.3-1.3L39.4,27l2.4,4.9l-1.9,3.9l-3.4,1.9L32.8,36z"/>
	<path id="금정구" class="st0" d="M48.8,34.7l3.4-4.6l0.3-2l-2.1-2.9l-0.1-4.8L49,19.1l-8.8,3.8L39.4,27l2.4,4.9l4,1L48.8,34.7z"
		/>
	<path id="동래구" class="st0" d="M44.1,36.1l3,1.8l2,0.8l-0.4-3.9l-2.6-1.6l-4.3-0.9l-2,3.5L44.1,36.1z"/>
	<g id="강서구_1_">
		<path class="st0" d="M13.6,54.9l6-0.1l1.1-5.1l1.5-0.9l0.1,5.6l1.8-0.5l1.9-3.8l2-0.8l0.6-3.3l0.3-6.6l3.9-3.5l0.9-6.5l-6.9,2.4
			l-2.5,2.5L19,34.6l-2,4.5l0.3,3.5l-3.5-1.8L12,43.1l-4,0.4l0.9,2.4l4.4,3.4l0.4,2.3l-2.4,1.9L13.6,54.9z"/>
		<path class="st0" d="M12.8,56.7L7.9,60l1.6,1l0.6,3l1.6,2.1l0.8,3.5l1.4-2.1l-0.5-2.6l1.3-2.6l1-3l-1-1.8L12.8,56.7z"/>
		<path class="st0" d="M18.9,56.2l-3,0.4l1,1.6l2.5-0.4L18.9,56.2z"/>
	</g>
	<path id="사상구" class="st0" d="M30,49.1h3.3l2.8-3.9L35.9,40l0.6-2.4L32.8,36l-3.9,3.5l-0.3,6.6L28,49.4L30,49.1z"/>
	<path id="사하구" class="st0" d="M33.6,53.7l1.9-0.3l-1.3-2.9l-1-1.5L28,49.4l0.4,7l1.6,5.1l2.3-3.1l1.5,2.3v-3l-0.6-2.3
		L33.6,53.7z"/>
	<path id="연제구" class="st0" d="M40.1,37.6l2.4,1.5l2,1.4l0.1,1.5l1.9-0.3v-2l2.6-1.1l-2-0.8l-3-1.8l-4.3-0.4L40.1,37.6z"/>
	<path id="해운대구" class="st0" d="M51.6,42.1l-2.5-3.5l-0.4-3.9l3.4-4.6l0.5-1.6l1.9,1.9l0.3,3.3l4.9,2.6l3.3,0.6l-3.1,2.3
		l-1.3,3.8h-2.8L54.9,42l-1.5,1L51.6,42.1z"/>
	<path id="부산진구" class="st0" d="M37.9,45.9L40,44l2.3,1.3l2.4-3.3l-0.4-1.9l-4.1-2.5l-0.3-1.9l-3,1.9l-1,2.4l0.1,5.3
		L37.9,45.9z"/>
	<path id="수영구" class="st0" d="M48.9,44.6l-2.4-2.9l0.4-2l1.9-1.1l2.9,3.5l1.8,0.9l-3.1,0.5l-0.6,1.6L48.9,44.6z"/>
	<path id="남구_1_" class="st0" d="M49.6,51.2L47.4,51l-0.8-1.3l-2.4,0.9l-0.8-2.1l-1-1.6l-0.3-1.6l2.4-3.3l1.9-0.3l2.4,2.9
		l0.8,0.5l1.1,2.1L49.6,51.2z"/>
	<path id="동구_1_" class="st0" d="M41.3,48.9l-3,0.5l-1-1.5l0.6-2L40,44l2.3,1.3l0.3,1.6L41.3,48.9z"/>
	<path id="서구_1_" class="st0" d="M36.9,59.1L35,56.7l0.1-3.3l-0.9-2.9L33.6,49l2.4-3.8l1.9,0.6l-0.6,2l1,1.5l-1.3,2l1.6,1.4
		l-1.8,2.1V59.1z"/>
	<path id="중구_2_" class="st0" d="M40.1,50.9v-1.8l-1.9,0.3l-1.3,2l1.6,1.4L40.1,50.9z"/>
	<path id="영도구" class="st0" d="M43.8,52.4l-3.6,0.3l-0.5,2.3l4.6,3.8l1.6-0.9l-1-3l-0.1-1.6L43.8,52.4z"/>
</g>
</svg>
