<?xml version="1.0" encoding="utf-8"?>
<!-- Generator: Adobe Illustrator 21.1.0, SVG Export Plug-In . SVG Version: 6.00 Build 0)  -->
<svg version="1.1" id="레이어_1" xmlns="http://www.w3.org/2000/svg" xmlns:xlink="http://www.w3.org/1999/xlink" x="0px"
	 y="0px" viewBox="0 0 500 500" style="enable-background:new 0 0 500 500;" xml:space="preserve">
<style type="text/css">
	.st0{fill:#B9B9B9;stroke:#FFFFFF;}
</style>
	<g id="충청북도">
	<path id="진천군" fill="#B9B9B9" stroke="#FFFFFF" d="M196.75,276.272l2.833,0.833l0.167,4.667l5.167,2.333l3.333,2.667
		l-0.333,2.833l2.167,1.833c0,0-0.667,2.5-0.167,2.333s4.667-1.167,4.667-1.167l5.167-2.667l4,2l4.333-3.5l-2.667-4.667l2.5-0.833
		l0.333-6.833l1.333-1.667l-7.5-7.167l-3.167-3.167l-2.5,1l-2.333-2.667l-0.167-3.667l0.333-8.042l-3.75,3l-4.75,0.75l-0.25,3.875
		l1.5,1.875l-3.25,3.208l-6.375,0.167l-4,6.875l2.542,1.958L196.75,276.272z"/>
	<path id="음성군" fill="#B9B9B9" stroke="#FFFFFF" d="M244.25,273.605l-1.75,4.25l-4.375-1.5l-3.75,3.875l-1.125-2.5l-4.875-2
		l1.208-1.292l-10.667-10.333l-2.5,1l-2.333-2.667l0.167-11.708v-3.75l7-1.375l4.125,0.875l2.125,1l0.917-4.375l2.167-0.5
		l2.167,0.833l-0.167-2.667L236,239.23l-0.25-9.125l7.375,3.375l2.25,0.625l2.375,1.375l-3.25,4l-1.25,7.25l-2.125,2.5l-0.75,4.375
		l-1.25,1.5l0.5,2.625l2.25-1.5l2.5,1.625l4,3.25l2.875-0.25l3.125,4.125l2.125,2.75l-0.75,5.125l-4.125,1.25l-2-0.375
		L244.25,273.605z"/>
	<path id="충주시" fill="#B9B9B9" stroke="#FFFFFF" d="M258.375,262.855l3.625,1.25l1.375,3.75l5.5,3.625l5,1l1.25-0.625l2,1.875
		l1.625,3.125l1,4.25l3.25,2.375l2.375-1.75l4.625,0.875l2.625,0.375l1.375,1.625l3.75-3.25l-2.875-2l-2.375-2l-2.25,2.25l-2.5-3.5
		l2.75-5.625l0.125-4.5l-2.375-2.75l2.375-3.125l3.75,1l-0.75-5.125L292,253.23l2.25-3l-1.875-4.25l0.5-4.25l-4.625-3.5l-1.25-2.25
		l-3.875,0.125l-0.625,2l-4-5.375l-1.125-2.125l-3.875-2.5l-3.5,2.5l-5-1l-7.75,2.75l-8.333-8.083l-5.542,8.833l2,1l1.75,1.25
		l-2.625,4.125l-1.25,7.25l-2.5,2.375l-0.375,4.5l-1.25,1.5l0.5,2.625l2.25-1.5l3.375,2.25l3.125,2.625l2.875-0.25l3.375,4.5
		l2.125-1.375L258.375,262.855z"/>
	<path id="제천시" fill="#B9B9B9" stroke="#FFFFFF" d="M310.5,244.355l5.375-4.25l-1.5-3.125l2.25-1.875l3.125,2.375l1.25-2
		l-2.083-3.042l-2.667-4.5l7.667-6.333l-0.334-2.333l-2.208-0.417l-5.792,2.25l-2.833-3.167l-4.25-2.583l-1.5,0.75l-4.25,4.25
		l-4.75-3l-3.25,5.25l-8.75,1.75v-2.75l-2.5-5.5l-5.25-1l-5.25,3.75l0.625,5.75l-0.125,3.125l3.875,2.875l1.125,2.125l3.875,5
		l0.75-1.625l4.125,0.25l1,1.875l4.375,3.875l-0.25,3.875l1.875,4.25l-2.25,3l1.5,3.125l0.875,4.75l-3.75-1l-2.375,3.125l2.375,2.75
		l-0.125,4.5l-2.75,5.625l2.5,3.5l2.25-2.25l5.25,4l2.5-2l6.375,3l3.125-0.375v-5.375l3.875-3.875l-1.5-7.25l2.125-3.625l1.375-1.25
		l-1.25-5.25l-2-5.375L310,249.355L310.5,244.355z"/>
	<path id="단양군" fill="#B9B9B9" stroke="#FFFFFF" d="M316.5,273.855l6.5,7.625l3.75,1.375l2.25,2.125l3.5-3.375l3.875,0.25
		l3.75-5.75l-1-2.75l-1.625-3.375l2-5.625l9.625-9.25l2.625-0.875l2.25-3.75l2.25-4.25l6.25-0.125l2.75-3.167l-5-4l-6.167,0.833
		l-8-4.833l-3.958,0.792l-7.208,0.375l-4.167-6.167h-5.667l-6.166,2.5L321,235.48l-1.625,1.625l-3.125-1.75l-1.875,1.625l1.5,3.125
		l-5.375,4.25l-0.5,5l2.375,0.625l2.125,4.75l1.125,5.875l-1.375,1.25l-2.125,3.625l1.25,7.625L316.5,273.855z"/>
	<path id="괴산군" fill="#B9B9B9" stroke="#FFFFFF" d="M257.75,316.355l-3.25-0.625l-7.875-8.375l2.125-3.75l-6.625-5.75
		l-4.125-2.25l-2.25-7.25l1.625-2.75l-1.25-3.125l-1.75-2.75l3.75-3.375l4,1.375l2.125-4.125l5.375,0.125l1.375,0.5l4.75-1.375
		l0.75-5.125l-1.5-2.5l3.375-2.375l3.625,1.25l1.375,3.75l5.5,3.625l5,1l1.25-0.625l2,1.875l1.625,3.125l1,4.25l3.25,2.375
		l2.375-1.75l5.125,1.25l-1.5,5.5l-2.375,4.25l6.125,6.125l-3.5,1l-4.75-3.375l-2,1.75l-4.125-2.625l-2.5,5l-3.25,2.375l-2.875,0.5
		l3.125,2.75l2.875,2.875l-1.875,7l-4.75-5l-1.75-2.25l-3,3.375l0.875,2.25L257.75,316.355z"/>
	<path id="증평군" fill="#B9B9B9" stroke="#FFFFFF" d="M240.125,299.605l2-1.75l-4.125-2.25l-2.25-7.25l1.625-2.75l-1.25-3.125
		l-1.75-2.75l-1.125-2l-5-1.625l-0.25,6.5l-2.583,1.167l2.333,4.583l0.5,2.125l2.25,0.625l1.875,3.5l1.25,1.875l2.375,4.25h3.875
		L240.125,299.605z"/>
	<path id="청원군" fill="#B9B9B9" stroke="#FFFFFF" d="M209.625,293.355l-2.625,1l-2.5-1.5l-3.25-0.25l-2.5,1.25l0.25,2.625
		l-2.75,1.5l-0.625,3l-2.25,1.25l0.5,2.125h1.625l-0.5,3.875l-2.75,1.875l1.375,2.625l1.875,2.75v4.5l3.375,0.875l5.056,1.809
		l1.736,2.055l-0.571,3.22l-0.346,1.948L204,333.98l1.375-1.375l2.375,1.875l0.125,4.75l4.625,0.875l1.5,1l2.375-3.5l1.5-1.75l1,3.5
		l1.25,1.125l-0.875,3.125l2.125,4l1.25-2.5l0.5-3l3.375-1.125l3.375-7.25l-1.625-5.25l6.75-5l0.125-3l3.875-4.625l5.5,2.75
		l2.75-1.25l2.125,0.25l2,2.375l3.125-4.25l-7.875-8.375l2.125-3.75L242,298.23l-1.875,1.375l-0.25,1.125H236l-2.375-4.25
		l-3.125-5.375l-2.25-0.625l-0.5-1.25l-4,2.708l-4.5-2.208l-4.667,2.875L209.625,293.355z"/>
	<path id="청주시" fill="#B9B9B9" stroke="#FFFFFF" d="M217.375,298.855l-2.75,3.375l-2.625,2.5l-3.375,0.375l-1.5,0.625
		l-0.375,3h-2.125l1.75,3.625l-2.125,1.625l-0.75,3.5l1.375,2.375l4.5-2.75l3.875,0.625l1.875-1.125l1.625,0.875l2,2.125l4.5-2.625
		l3.25-0.75l0.375-3.75l-0.75-3.125l-1-2.875l-2.375,1.125l-2.5-2.875l-0.375-5.25L217.375,298.855z"/>
	<path id="보은군" fill="#B9B9B9" stroke="#FFFFFF" d="M225.917,345.938l-3.292-0.833l0.792-2.5l3.083-1.625l3.25-7.708
		l-1.5-4.792l6.75-5l0.125-3l3.875-4.625l5.5,2.75l2.75-1.25l2.125,0.25l2.042,1.833l3.166-3.333l2.334,0.167l1.166,2.667l4.5,2.5
		h3.5l1,3.667l4.334,4.5l-0.334,2.833l-3.333,2l-0.167,9.167l0.667,2l-2.167,2.833l2.834,3.834l-5.5,0.333l-10-2.5l-3.167,0.833
		l-5.5-4.333l-1.5-2.167l-1.5-2.5l-4.5,0.5l-2,2.5l-0.667,2.5l-2.833-0.5l-1-0.666l-2.667,2.166l-1.667-0.833L225.917,345.938z"/>
	<path id="옥천군" fill="#B9B9B9" stroke="#FFFFFF" d="M233.25,382.438l6.333,1.334l1.5-8.167l3.333-1.667l4.5-4.5l4.833-0.166
		l0.833-3.667l5.834-3.667l2.833,0.334l6.167-7l-0.5-3l-5.5,0.333l-10-2.5l-3.167,0.833l-5.5-4.333l-3-4.667l-4.5,0.5l-2,2.834
		l-0.667,2.166l-2.833-0.5l-1-0.666l-2.667,2.166l-1.833,1.167l-2.5,0.833l-0.5,5.5l-2.833,2.334l-0.833,4.666l0.833,3.5
		l-1.167,3.167l0.167,4.333l3.5-0.833l1.667-0.667l2.167,3.334l4.167-0.334l1.667,1.834L233.25,382.438z"/>
	<path id="영동군" fill="#B9B9B9" stroke="#FFFFFF" d="M244.25,400.605l-3.167,2.667l-3.167-4.167l-2.5-5.833l-3.5-3.334l1.5-3.5
		l-0.167-4l6.333,1.334l1.5-8.167l3.333-1.667l4.5-4.5l4.333-0.333l2-3.667l5.167-3.5l2.833,0.334l2.167,5.166l3.333,0.5
		c0,0,2.333-4.667,2.833-4s3.334,4.167,3.334,4.167l5.333,2.833l2.667-2.5l4.333,0.167l2.167,2l-2.334,2.833l4.834,6.834
		l-3.167,0.333l-4.5-1.333l-3,0.5l1,4.166l1.333,3l-3,4.334l-0.833,3.5l-0.667,5.5l-6.5,2.166l-4.5,5l-3.833-1.833l-2.667,1
		l-7.5,2.333l-1.166-2.333l-5.167-1.333l-2-2.5L244.25,400.605z"/>
</g>
</svg>