<?xml version="1.0" encoding="utf-8"?>
<!-- Generator: Adobe Illustrator 21.1.0, SVG Export Plug-In . SVG Version: 6.00 Build 0)  -->
<svg version="1.1" id="레이어_1" xmlns="http://www.w3.org/2000/svg" xmlns:xlink="http://www.w3.org/1999/xlink" x="0px"
	 y="0px" viewBox="0 0 500 500" style="enable-background:new 0 0 500 500;" xml:space="preserve">
<style type="text/css">
	.st0{fill:#B9B9B9;stroke:#FFFFFF;}
</style>
<g id="충청남도">
	<path id="천안시" class="st0" d="M128,76.5l4.9-6.5l2.9-0.9c0,0,1.1-4.4,1.1-4.8s1-2.8,1-2.8l2.6-0.9l0.3-4l-2-1.9l-0.9,1.4
		l-0.5-6.1l2.6-2.6l-0.4-2.6l-1.5-0.3l-1.4-10.9l0.4-2l3.3-3.9h2.8l6.6,3.1l3.6,4l3.6,0.6l7.5,5.6l1.3,3.8l2.8,1.1l0,4.4l6.1,3.1
		l2.5,2.2l-0.1,2.2l1.8,2.8l-0.4,1.3l-2.1,0.9l-2.9-1l-3.3-0.3l-2.5,1.3l0.3,2.6l-3.1,1.8l-0.8,3.1l-1.8,0.9l-4.4,0.1l-3.8-2.4
		l-5.1-2.9l-4.6,0.3l-1.8,3.3l2.6,2.5l0.6,5.4l-1,4l-4.1-3.9l-2.3,0.6l-1.6,1.6l-2.9-0.3l-1-1.5l-5-0.3L128,76.5z"/>
	<path id="계룡시" class="st0" d="M159.9,143.7l-3.6-0.1l-1.1-2.8l-2.9,0.1l-1.8-4.9l1.5-2.5l0.1-2.8l-1.5-2.8l2.4-3.1l3.4,0.9
		l2.4,3.8l-0.6,4.6l-1.6,1.6l6.3,3.1l-0.9,3.3L159.9,143.7z"/>
	<path id="공주시" class="st0" d="M139.8,127.1l-2.3,0.3l-3.5,8.8l-9.5-3.6v-11.6l4.4-3.6l-0.1-5.3l-4.3-4.4h-6.1l-1.5,1.4l-5-6
		l0.3-8.9l6-8.4l3.1-9.9l3,3l3.9-1l5,0.3l1,1.5l2.9,0.3l1.6-1.6l2.3-0.6l3.8,3.9l4.4,5.8l3.8,3.1l0.1,5.4l-0.9,5.3l1.2,4.9l3.4,4
		l4.5,2.9l1.9,1.5l-2.8,3.3v9.4l-1.4,2.3l-2.5-3.4L153,125l-2,3l-6,4l-3.5-2.1L139.8,127.1z"/>
	<path id="아산시" class="st0" d="M108,55.2l-0.4-3l-1.6-7.5l4-4.5l5-0.3l-0.1-1.5l1.1-0.4l10.1-4.9l4.5,1.8l6.5-2.9l-0.4,1.6
		l1.4,10.9l1.5,0.3l0.4,2.6l-2.6,2.6l0.5,6.1l0.9-1.4l2,1.9l-0.3,4l-2.6,0.9l-1,2.4l-1.1,5.1l-2.9,0.9l-4.9,6.5l0.3,1l-3.5,1.3
		l-3.4-3.3l0.5-3.4l-2.8-1.5l-4.8-0.4l-2-4l-5.6-3.4l-1.1-5.5l2.4-0.3V55.2z"/>
	<path id="당진시" class="st0" d="M60.6,37.9l1.1-7.8l-0.9-6l-4-5.5l4.6-3.8l0.3-1.6l5.5,0.5l5.6,6l6.5,3.8l9.9,0.5l9.3,3.3
		l1.4,6.5l2.5,2.3l2.3,7.8l1.4,1l1.9,9.3l0.1,3.1l-2.4,0.3l-2-0.3l-6.5,5.8L91.5,56L89,54.4l-5.5,4.5l-5.1-6l-2.1-0.4l-1.6-2.4
		l-5.4,0.8l-4.1-2.1l-0.4-4.6l-4.6-2.4L60.6,37.9z"/>
	<path id="예산군" class="st0" d="M107.4,91.1l-5.1,7l-4.8-1l-2.9,0.1L94,93l2-4.8l1.3-2.6l-2.8-4.9l-2-4.8l-4.6-0.3l-9.4,2.8
		l-0.3,4.1l-4.1-0.1v-5.8l2.4-7.3L75.9,67l3.4-4l4.3-4.1l5.5-4.5l2.5,1.6l5.6,6.9l6.5-5.8l2.1,0.8l1,5l5.6,3.4l2,4l4.8,0.4l2.8,1.5
		l-0.5,3.4l-3.3,10.3l-6,8.4L107.4,91.1z"/>
	<g id="서산시">
		<path class="st0" d="M43,67.2l2.8-11.1l-4-4.8l-0.9-3.3l2.5-3.4l2.5,4.5l0.9-7.3l4.1-2.5l2.1-2.4L52.9,34l-4.6-1.3l-6-4.6l-0.8-5
			l2.1-3.3l1.9,2.4l1.1-1.6l4.4-0.1l3.6,2l2.8,1.1l4.3,8.1l-1.5,10l4.6,2.4l0.4,4.6l4.1,2.1l5.4-0.8l1.6,2.4l2.1,0.4l5.1,6L75.9,67
			l0.6,2.5l-2.1,6.4l-3.1,3.5l-4.8,0.4h-6.4l-2.4-6.4l-2.5,1.5l0.4,5.6l-3.4,5.4l-2.5-2.6l-3-1.4l-2.5-7.4L43,67.2z"/>
		<path class="st0" d="M38.4,26.5l-2,1.8v4.3l2.6,2.1l0.5-4L38.4,26.5z"/>
	</g>
	<g id="태안시">
		<path class="st0" d="M39.5,37.7l-3-2.3l-3.6,6l-4.4,2.4l1-3.5l3-3.6l-4.3,0.5l-4.5,1.9L22,41.6l2.4,2l-1.1,5.5L20,46.6l-1.4,3.9
			l0.3,3.9L15.8,58l-3,0.6l3.6,3.5l-0.8,5.1l3.9-1.8l0.1-3.3l4.5,1.5l3.6,3.6c0,0-4.6-0.5-5-0.5s-5.1,3.8-5.1,3.8l-2,2.9l5.8,1.3
			l4.5-2.5l4.8-1.5l2.6-1.8l0.3,4.8l3.4,2.8l0.3,5.8l-0.8,4.1l1.4,1.6l3-2.8l3.3-3.4l-0.6-4.8L43,67.2l2.8-11.1l-4-4.8l-0.9-3.3
			l-0.5-4.9l1.6-2.6L39.5,37.7z"/>
		<path class="st0" d="M45.1,83.5l-3.4,2.1l-2.6,4.1l2.4,4.9l0.3,7.8l-0.5,4.5l3,5.1l1.3,2.4l4.4,1.8l1.8,1.6L55,114l-1.6-7.3
			l-3.3-7.9l-1-3.5l1.3-5.4l-0.6-3.6L45.1,83.5z"/>
	</g>
	<path id="홍성군" class="st0" d="M60.4,99.6l-3.8-5.9l0.5-6.6l2.8-1.1l-1.4-2.8v-7.1l1.6,3.6l5.8,0.1l5.4-0.5l2.6-3l0.3,6.1
		l4.1,0.1l0.3-4.1l9-2.5h5l2,4.4l2.8,5.3l-3.3,7l0.6,4.6l2.9-0.1l-1.1,3.5l-2.9,5.3h-5.4l-5,2.1l-5.1-2.5l-2.6-0.4l-1.6-2.9
		l-3.9-0.4l-3.4-1.8l-3-0.9L60.4,99.6z"/>
	<path id="청양군" class="st0" d="M89.1,117.9l-2-4.4l-3.5-5.9l4.5-1.8h5.4l3-5.6l1-3.1l4.8,1l5.1-7l4.8,3l-0.3,8.9l5,6l1.5-1.4
		h5.8l4.6,4.4l0.1,5.3l-4.4,3.6l-0.4,6.5l-3.4,1.5l-4.4,2.3l-2.8-2.9l-3.8,1.3l-2.1-4.1l-2.1-2.6l1.4-2.5l-3.6,0.4l-2.6,1.6l-1,2.3
		l-4.3-0.1l-3.4-3.3l-2.4-0.5L89.1,117.9z"/>
	<path id="논산시" class="st0" d="M132.4,157.4l2,5.6l0.9,3.4l6.1,3l2.9-3.3h7l2.6-2.1l4.1,1.5l0.8-4.1l4,1l5.3-3l1-9.6l-7.1-7.5
		l-2,1.5l-3.6-0.1l-1.1-2.8l-2.8-0.4l-1.9-4.4l1.6-2.9v-2.4l-1.5-2.8L145,132l-3.5-2.1l-1.8-2.8l-2.3,0.3l-3.3,8.3l0.5,3.9l-3.5,3.6
		l-3.3,4.5h-3.6l0.3,4.8l2.8,3.4l1.3,2.5L132.4,157.4z"/>
	<path id="금산군" class="st0" d="M178.4,178.1l2.2-2.3l3.8,5.8l9.3-0.3l1-8.2l10,6.3l1.7-5l-1.7-4.2l2.2-2.2l-2.5-5.8l-3.5-3.3
		l1.5-3.5l-0.2-4l-0.7-4.7l-1.7-2.3h-3.8l-2.5-3l-4.7,1.3l-6.7,7l-2.8-2.6l-4-3.5l-0.4-5.9l-1.4-0.4l-1.7,2.4l0.1,5.8l-2.4,4.2
		l-1.6,9.6l2.8,2.6l2.2,9.7l4.3,6.2L178.4,178.1z"/>
	<path id="부여군" class="st0" d="M89.8,122.4l-4.1,8.4l2.3,5.9l2.1,3.8l3.4,1.4l-0.6,2.6l-2.8,1.4l-3.6,4.8l4.8,3l8.9-0.6
		l0.1,5.4l3.4,1.3l2.6,3.4l0.9,5.1l3.6-0.4l-0.1-6.4l2.3-3.9l4.8,0.1l3.1-1.1l2.1,0.9l5.9,1l-1.3-2.5l-2.8-3.4l-0.3-4.8h3.6l3.3-4.5
		l3.5-3.6l-0.8-3.4l-9.5-3.6l-0.4-5.1l-7.8,3.8l-2.8-2.9l-3.8,1.3l-2.1-4.1l-2.1-2.6l1.4-2.5l-3.6,0.4l-3,2l-0.6,1.9l-4.4-0.6
		l-3.3-2.8l-2.4-0.5V122.4z"/>
	<g id="보령시">
		<path class="st0" d="M54.3,120.4c-0.5,0-5.6,0.9-5.6,0.9l0.3,1.6l5.4,0.8l2.9,1.3l0.5-1.1l-2.5-2.3L54.3,120.4z"/>
		<path class="st0" d="M71.6,150.6l2.6,2.6l8.1-0.8l4-2l3.6-4.8l2.8-1.4l0.6-2.6l-3.4-1.4l-2.1-4.1l-2.3-5.5l4.1-8.4v-1.8l-0.6-2.8
			l-2-4.4l-3.5-5.9l-5.6-2.1l-2.6-0.4l-1.6-2.9l-4.4-0.5l-2.4-1.6l-3.5-0.9l-3.1,0.4l-1.1,1.8l0.1,5.4l3.5,3.9l-0.6,6.5l-2.6,3.4
			l6.8,1.6l2.5,2.9l-1.1,2.4l-5.3,1.6l5.4,6.9l-0.6,5.3l-1.5,4l1.8,2.4v2.3L71.6,150.6z"/>
	</g>
	<path id="서천군" class="st0" d="M88.9,179.6l3.9-0.6l3.6-4l6.6-0.3l5.4-4.3l1.9-2.9L107,168l-0.9-5.1l-2.6-3.4l-3.4-1.3
		l-0.1-5.4l-8.9,0.6l-4.8-3l-3.5,1.9l-8.6,0.9l-2.6-2.6l-5.8,0.1l-1.3,3.5l-2.3,1.3l0.1,3.3l2.6-1.5l4.4,1.9l3,0.6l4.9,5.1l2.8,0.3
		l-2.3,3l1.8,2.1l1.6,1.9l1.5,2.4l1,4.4L88.9,179.6z"/>
</g>
</svg>
