<?xml version="1.0" encoding="utf-8"?>
<!-- Generator: Adobe Illustrator 21.1.0, SVG Export Plug-In . SVG Version: 6.00 Build 0)  -->
<svg version="1.1" id="레이어_1" xmlns="http://www.w3.org/2000/svg" xmlns:xlink="http://www.w3.org/1999/xlink" x="0px"
	 y="0px" viewBox="0 0 500 500" style="enable-background:new 0 0 500 500;" xml:space="preserve">
<style type="text/css">
	.st0{fill:#B9B9B9;stroke:#FFFFFF;}
</style>
<g id="대구광역시">
	<path id="동구_3_" class="st0" d="M45.3,33.6l-3.3,1.8l-1.3-1.8l1.7-3.2l0.7-2.8l-1.2-4.3l-3-7.3l3.3-4.2l8.8,0l3.8,1.1l1.3,3.5
		l0.5,9l2.5,1.8l-0.4,7.5l-2.5,1.7l-6.7-0.7l-0.5-1.8L45.3,33.6z"/>
	<path id="북구_2_" class="st0" d="M38.9,33.8l-2.7,0.3l-0.3-2.5l-3.2-0.5l-3.7,1.2l-2.7-1.3l2.3-4.2l0.8-4.2l-1-3.7l1.3-1.3
		l2.5,1.7l6-3l3.3,7l1.2,4.3l-0.7,2.8l-1.5,2.7L38.9,33.8z"/>
	<path id="수성구" class="st0" d="M39.8,37.3l-0.3,5l-1.7,1.5l4.5,0.5l3.3,1.5l5.2,1.8l3.3-2.5l-0.4-4.7l2.5-4.2l-6.7-0.7
		l-0.5-1.8l-3.7-0.2l-3.3,1.8L39.8,37.3z"/>
	<path id="중구_4_" class="st0" d="M35.8,36.9l0.5-2.8l4-1l1.7,2.3l-2.2,1.8L35.8,36.9z"/>
	<path id="서구_2_" class="st0" d="M28.3,35.1l0.8-2.8l3.7-1.2l3.2,0.5l0.3,2.5l-0.5,1.8l-2.7,1h-1.8L28.3,35.1z"/>
	<path id="남구_3_" class="st0" d="M34.1,38.8l-0.7,2.7l4.3,2.3l1.7-1.5l0.3-5l-4-0.3v-1l-1.5,0.8L34.1,38.8z"/>
	<path id="달서구" class="st0" d="M25.4,44.1l2.2,1.3l2.7,2.7l4.5,1.5l1.8-2.8l1.2-3l-4.3-2.3l0.7-3.2l0.2-1.5l-1.2,0.2h-1.8
		l-3-1.8l-4.8,0.7l-0.2,5.7l-0.5,2L25.4,44.1z"/>
	<g id="달성군">
		<path class="st0" d="M23.4,35.8l4.8-0.7l0.8-2.8l-7-2.7l-0.3-5.2l-2.5-1.2l-4.7,4l-2.8,4.8v7.2l4.8-1.2l6.7,3.3L23.4,35.8z"/>
		<path class="st0" d="M20.6,71.8l7-0.2l1-5.5l0.9-2.3l0.8-4.3l4.5-3.5l7.3,0.3l-0.5,4.5l7.4-2.6l1.6-4.7l1.3-2.8l-1-3.3l-8.5-3.3
			l-4.5-0.5l-1,2.3l-2,3.5l-4.5-1.5l-2.7-2.7l-2.5-1.7l-2.3-0.3l-6.7,1l-3.8,8.2l6,4.8l-0.7,5.2l-9.2-1l0.7,4.7l4.5,4.5l0.3,4.8
			L20.6,71.8z"/>
	</g>
</g>
</svg>
