<?xml version="1.0" encoding="utf-8"?>
<!-- Generator: Adobe Illustrator 21.1.0, SVG Export Plug-In . SVG Version: 6.00 Build 0)  -->
<svg version="1.1" id="레이어_1" xmlns="http://www.w3.org/2000/svg" xmlns:xlink="http://www.w3.org/1999/xlink" x="0px"
	 y="0px" viewBox="0 0 500 500" style="enable-background:new 0 0 500 500;" xml:space="preserve">
<style type="text/css">
	.st0{fill:#B9B9B9;stroke:#FFFFFF;}
</style>
<g id="대전광역시">
	<path id="유성구" class="st0" d="M32.1,18.7l-2.4-5.5l0.4-1.1L30,7.3l-2.4-1.9l-1.4,1.4l-2.4-0.3l0.5,4.3l-0.5,3.4l-3.4,3.6
		l-4.3,0.4l-2.8,3.3v9.4l-1.6,3L11.3,38l-1.6,1.6l6.3,3.1l5.5-6.9l1.9-2.5l2-7.3l4.1-0.4l1.5-1.4L32.1,18.7z"/>
	<path id="서구_3_" class="st0" d="M30.6,30l-1.5-4.4l-3.8,0.5l-2,7.3L16,42.8L15.1,46l3.5,3.9l3.6,4l3-4.5L25.1,44l1.8-2.9
		l-0.3-2.5l2.1-2.9l1.1-4.3L30.6,30z"/>
	<path id="중구_5_" class="st0" d="M28.2,41.5l0.4,5.9l3.9,3.9l1.5-2.6l1.5-2.9l-1.3-2.3l0.5-2.5l-0.9-2.4L37,37l-3-2.1l-2-2.3
		l0.1-2.1L30.6,30l-0.9,1.9l-1,3.9l-2.1,2.9l0.4,2L28.2,41.5z"/>
	<path id="대덕구" class="st0" d="M38.2,27.9l-1.5-4.5l4.8-7l0.9-3.1l-1.3-1.1l-1-3.5l-1.5,1.8l-2.3,3.1l-1.6-0.6L30.1,12
		l-0.4,1.1l2.4,5.5L31,24.4l-1.9,1.3l1.5,4.4l1.5,0.5l2.4-2.1l1.6,0.8L38.2,27.9z"/>
	<path id="동구_4_" class="st0" d="M35.5,53.5l-3-2.3l3-5.5l-1.3-2.3l0.5-2.5l-0.9-2.4L37,37l-3-2.1l-2-2.3l0.1-2.1l2.4-2.1
		l1.6,0.8l2.1-1.3l-1.5-4.5l4.8-6.6l2.1,3.6l1.4-2.1l3.2,0.5l0.5,1.7l1.7,0.8l-2.2,1.7L46,23.2l-0.4,5.2l-3,2.7l-0.8,4.3l0.8,3.8
		l-1.2,3.2l0.2,4.3L35.5,53.5z"/>
</g>
</svg>
