<?xml version="1.0" encoding="utf-8"?>
<!-- Generator: Adobe Illustrator 21.1.0, SVG Export Plug-In . SVG Version: 6.00 Build 0)  -->
<svg version="1.1" id="레이어_1" xmlns="http://www.w3.org/2000/svg" xmlns:xlink="http://www.w3.org/1999/xlink" x="0px"
	 y="0px" viewBox="0 0 500 500" style="enable-background:new 0 0 500 500;" xml:space="preserve">
<style type="text/css">
	.st0{fill:#B9B9B9;stroke:#FFFFFF;}
</style>
<g id="광주광역시">
	<path id="광산구" class="st0" d="M33.8,14.4l-5.1,2.3l-6.2-2.9L22.3,11h-2.3l-1.8,6.2l-4.4,0.6L10,21.5l1.5,2.8L9.2,26
		c0,0-0.3,5.6,0,5.9c0.3,0.3,2.9,2.2,2.9,2.2l9.1-0.2l3.1,3.8L23.7,40l5.5-4.3v-2.3l2.3-3.1l2.5-7.5l1.8-1.1l-0.9-1.7l-0.3-5
		L33.8,14.4z"/>
	<path id="북구_3_" class="st0" d="M42.6,9.6l-3.3,2l-2.8,0.1l-2.6,2.7l0.8,1l0.3,4.8l0.9,1.7l-1.4,0.8l-0.7,1.9l4.5-0.1l2,1.3
		l1.5,1.1l1.5-0.1l1.9-1.1l2.3,1.3l1.6,2.1l2.4,1.3l2.4,2.8l2-3.2L55.1,28v-2.2l1.5-1.4l-2.3-2.9l-3.2,0.1l-2-1.9l-1.8-4.4l-2.7-4
		L42.6,9.6z"/>
	<path id="동구_5_" class="st0" d="M44.6,30.7l-0.8-2.8l-0.2-1.3l1.8-0.8l2.1,1.1l1.4,2.3l2.8,1.1l2.2,2.8l-2,3l-3.6,1.7l-1,1.5
		l-3.8-3.2l0.1-3.7L44.6,30.7z"/>
	<path id="남구_4_" class="st0" d="M31.7,35.8l2.6-2l4.3-1.2l1.6-0.9L40,28.9l1.8-2.2l1.5-0.1l0.6,1.5l0.8,2.6l-1.1,1.8l-0.1,3.7
		l-3.9,1.8l-5.3,1.3L31,41.6l-5.5-0.3L23.8,40l5.5-4.3H31.7z"/>
	<path id="서구_4_" class="st0" d="M30.5,32l1.2-1.9l2.1-5.7h4.2l3.8,2.3l-1.4,1.9l-0.2,2.8l-1.7,1.2l-4.3,1.2l-2.4,2h-2.6v-2.3
		L30.5,32z"/>
</g>
</svg>
