<?xml version="1.0" encoding="utf-8"?>
<!-- Generator: Adobe Illustrator 21.1.0, SVG Export Plug-In . SVG Version: 6.00 Build 0)  -->
<svg version="1.1" id="레이어_1" xmlns="http://www.w3.org/2000/svg" xmlns:xlink="http://www.w3.org/1999/xlink" x="0px"
	 y="0px" viewBox="0 0 500 500" style="enable-background:new 0 0 500 500;" xml:space="preserve">
<style type="text/css">
	.st0{fill:#B9B9B9;stroke:#FFFFFF;}
	.st1{opacity:0.98;fill:#B9B9B9;stroke:#FFFFFF;enable-background:new    ;}
</style>
<g id="강원도">
	<path id="철원군" class="st0" d="M66.4,53.3h-3.8l-7,5.2l-3.8-0.3l-1.7-2.2h-3l-3.2-2.3l-6.5-0.7l-1.7,2l-4.2-0.3l-2,2.3l-1.3-3
		h-4.3l-1.5-0.8l-6.2,3.3l-2.7-0.8l-1.7-1.8l-2.8,0.3l-1.7,4.7l-2.2,2.5v6.3l1.8,2.3l3.5-1.8l2.2,5.3l2.2,3.5l-0.3,3.2l4.2,3.8
		l7.3-6.3l2.2,1.3l-1.5,8.5l4.2,1l2,3.5l1.5-1.5l3.7-2.7l5.5,2l1.2-1.7l8.2-1.8l1.3-3.5l-1.8-2.2l1.8-6.3c0,0,4.3-0.7,4.3-1.2
		s0.2-3.3,0.2-3.3l3.8-1.5l3.7-6l-2.7-2.7l3.2-5.2L66.4,53.3z"/>
	<path id="화천군" class="st0" d="M62.4,93.8l-0.3,3.7l2,2.7l-2.3,2.8l-3.3,2l-0.2,1.2l-8.7-0.7l-0.7-1.5l-0.8-4.5l-1.5-9.7
		l-1.8-1.7l8.2-1.8l1.3-3.5l-1.8-2.2l1.8-6.3l4.3-1.2l0.2-3.3l3.8-1.5l3.7-6l-2.7-2.7l3.2-5.2l-0.3-1.2l2.2,0.2l8.5,0.5l1.7-2.3
		l3.7,1l4-2.7l1.8,0.8l3,3.5l2.3,1.2l4.2,12.8l-0.5,5l3.5,1.3l0.3,13.8l2.8,2.8l0.7,5.2l-2.5,2.2h-4l-0.8,2.8l1.2,0.7l-7.7,4
		l-3.7-4.2l-1.8-1.8l-2.7,0.3l-1.3,2l-2.8-2.7l-2.8,0.3l-2.2,1.2l-0.8-3.8l-2.8,0.8l-2.7-2.5l-2-2.2L62.4,93.8z"/>
	<path id="춘천시" class="st0" d="M68.4,156.9l2-3.7l1.8,2.8l2.3-2.5h2.5l-0.5-3l6.2-2.8l13.7-0.8l1.8-4.2l-2.7-4.7l-1-3.7
		l-0.2-1.7l0.7-1.3l5.2,1.2l2-4.2l2.2,0.2l4.5,4.8l2-6.2l1.2-1.7l4.2-9.7l-2.7-2.7l0.8-5.3l2.7-1l1.8-2.8l-1-1.3l-3.5,2l-0.3-3
		l-4.3-1.7l-0.8,3.8l-4-2l-0.3-5.5l-2.5,2.2h-4l-0.8,2.8l0.7,1.3l-7.2,3.3l-3.7-4.2l-2.3-1.7l-2.2,0.2l-1.3,2l-2.8-2.7l-2.8,0.3
		l-2.2,1.2l-0.8-3.8l-2.8,0.8l-4.7-4.7l-2.7,0.2l-0.3,3.7l2,2.7l-2.5,3.3l-3.2,1.5l-0.5,7.5l8,0.3l0.3,3.7l2.2,2.8l-1,5.7h-2.8
		l-6.7,6.3l0.8,4.7l-1.8,2.8l2.5,4.5l-2.8,3.3l-0.3,3.8l4.8-0.7l4,1.8l2.3,2.8L68.4,156.9z"/>
	<path id="홍천군" class="st0" d="M188.4,128.1l-4.8-5.8l-4.7,0.7l-3.2-0.5l-5.5,3.5l-2.5-2.8l-2.3,3.3l-3.7,3.5l-1.5,2.5
		l-4.8-1.7l-2.2-4.3l-4,1l-1.8,3.7l-5.5,3.5l-5-6.2l-0.2-5.5l-10-0.8l-6.8-6.5l-3.7,0.3l-3.8,9.8l-1.5,1.5l-2.3,6.2l-4.2-4.8
		l-2.2-0.2l-2,4.2l-5.2-1.2l-1.2,1.5l1,3.7l3.3,6.2l-1.8,4.2l-13.7,0.8l-6.2,2.8l0.5,3h-2.5l-2.3,2.5l-2-2.3l-1.8,3.2l-1-2.5
		l-2.3-2.8l-4-1.8l-0.5,9.7l-2.3,1.2l2.8,4.3l6.2-3l12.3,8.2l8.5,0.2l3.5,1.5l6.3,5l3.8-1.8l1.8-5.5l3.8-0.8l3.7-1.5l2.2-4.7
		l4.2,1.8l2.3,2.3l7.2-6.5l3-0.3l1.2-3.3l2.8,0.2l2.5,2.5l7,1.8l1,3.5l4-0.2l2-5l5.7-6.8l14.3,0.8l1.8-4.7l3-1.8l6.3-0.3l-0.3-3.5
		l1.8-4.5l1.2-2.7l4.7-1.8l-1.2-3.3L188.4,128.1z"/>
	<path id="횡성군" class="st0" d="M123,210.9l-0.3-5.8l4-1l-0.5-4l2.8-2l-5-5.5l-6-1.5l-4-1.5l-1.5,2l-4-3.8l-0.3-3.8l-2.5,1
		l-0.8,2.8l-4.3,3l0.3,5.5v3.5l-3,1.5l-1.3-5.3l-4.5-1.7l-1.3-6.3l-4.7-3.3l7.3-6.8l4.3-1.2l3.8-1.8l1.8-5.5l7.5-2.3l2.2-4.7
		l4.2,1.8l2.3,2.3l7.2-6.5l3-0.3l1.2-3.3l2.8,0.2l2.5,2.5l7,1.8l1,3.5l4-0.2l2.8,3.3l3,14.3l-7,7.3v4.3l2.5,4.8l-2,2.8l-7.8,0.3
		l-1.3,3l2,4.5l-2.8,2.8l-6.8-0.3l-0.5,3.8l-6.3-2L123,210.9z"/>
	<path id="원주시" class="st0" d="M142,224.1l-4.3,4.3l-4.8-3l-3.3,5.3l-8.8,1.8v-2.8l-2.5-5.5l-5.3-1l-5.3,3.8l0.8,6.3l-0.3,3
		l-3.5,2.5l-5-1l-7.8,2.8l-8.3-8.1l1.6-6.7l1.6-12l-0.3-8.5l5.5-10.7l4.5,1.7l1.3,5.3l3-1.5l-0.3-9l4.3-3l0.8-2.8l2.5-1l0.3,3.8
		l4,3.8l1.5-2l10,3l5,5.5l-2.8,2l0.5,4l-4,1l0.3,5.8l1.5,2l6.3,2l2.3,4.8l5.8-0.3l3-3.5l2.5,2.5l-1,2.8l0.3,2.3L142,224.1z"/>
	<path id="양구군" class="st0" d="M129.8,52.6l-7,4l-6.3-1.5l-5-1l-3.3-1.5l-8-1L97,53.9l-3.4,1.6l4.2,12.8l-1.3,4.8l4.3,1.5
		l0.3,13.8l2.8,2.8l0.6,5.8l0.4,4.8l4,2l0.8-3.8l4.3,1.7l0.3,3l3.5-2l5.3,0.1l1.3-4.5l4.5,2.5l1-6.5l-4-4.3l2.3-3l-3-5l1.3-1.8
		l3.5-8l0.5-3.5l4-5.3l0.3-9.5L129.8,52.6z"/>
	<path id="인제군" class="st0" d="M141.8,45.1l-12,7.5l5,1.5l-0.3,9.5l-4,5.2l-0.5,3.5l-4.8,9.8l3,5l-2.3,3l4,4.3l-1,6.5
		l-4.5-2.5l-1.3,4.5l-5.3-0.1l1,1.3l-1.8,2.8l-2.7,1l-0.4,5.9l2.3,2.1l3.7-0.3l6.8,6.5l9.5,1.2l0.7,5.2l5,6.2l5.5-3.5l1.8-3.7l4-1
		l2.2,4.3l4.8,1.7l1.5-2.5l3.7-3.5l2.3-3.3l2.5,2.8l5.5-3.5l-1-5.7l0.3-6.3l2.8-2.7l0.3-7.2l-2.5-2.8l-7.8-1.2l-1.2-6.5l0.8-2.8
		l6-2.7l-6.7-8.3l2.5-2.5v-5.5l-2.2-2.5l-3.8,1.8l-3.7-1l-1-3.8l-4.2-0.3c0,0-0.7-4.3-0.7-4.8s-1.2-4.3-1.2-4.3l-2.2,0.3l-2.8,1.2
		l-1.2-4.3l1-1.8l-3.3-1L141.8,45.1z"/>
	<path id="고성군" class="st0" d="M175.1,74.9l13.3-7l-8.3-17.5l-1.3-4.3l-7.2-10l1.3-1.8l-8-14.2v-3.2l-6.5-8.3l-5.3,2.2
		l-0.3,14.2l-1.2,7.8l-10.2,12.8l2.8,2l2.5,0.8l0.8,0.2l-1,1.8l0.7,4.3l5.5-1.5l1,3.7l0.8,5.5l4.2,0.3l1,3.8l3.7,1l3.8-1.8l2.2,2.5
		v5.5L175.1,74.9z"/>
	<path id="속초시" class="st0" d="M191.4,78.9l-0.2-3.7l-1.8-2.7l1-1l-2-3.7l-13.3,7l-5.7-1.2l-2.5,2.5l6.7,7.8l3.7-1.5l4.7-0.3
		l4.5-2.5L191.4,78.9z"/>
	<path id="양양군" class="st1" d="M188.4,128.1l7.3-7.3l3.7,1.5l8.5-2.7l2.5-1.2l6.8-0.3l-5.5-8l-1.3-3l-3.3-3.5l-0.3-3.7
		l-2.2-0.3l-5.2-5.5l-0.3-2.8l-7.2-8.5l-0.5-3.8l-5,0.8l-4.8,2.7l-4.3,0.2l-3.7,2l-6,2.7l-1.2,3.3l1.5,6l7.3,1.3l3,2.7l-0.3,7.2
		l-3,3.2l-0.2,5.8l1,5.7l3.8,0.8l4-1L188.4,128.1z"/>
	<path id="평창군" class="st1" d="M190.1,218.8l1.2-1.8l-4.3-10.2l-1.8-4.2l-1.2-3.2l-4.2-2.2l1.8-7.5l5.5-0.3l-0.3-5.7l2,1.2
		c0,0,0.8-6.8,0.8-7.5s3-6,3-6l3.7,4.7l3.5-2.3l2.5-4.8l3.3-0.5l1.2-2.5h1.5l-0.5-3.2l-0.5-3.8l4.2-3.7l-1.3-4.7l-1.5-5.3l-5-4.7
		h-5.2l-2.2-1l-6,1.5l0.5-5.7l-1.8-1.5l-4.7,1.8l-3,7.2l0.3,3.5l-6.3,0.3l-3,1.8l-1.8,4.7l-14.3-0.8l-5.7,6.8l-2,5l2.8,3.3l3,14.3
		l-7,7.3v4.3l2.5,4.8l3.2,0.8l3.5,4.3l1.2,6.2l0.3,5l3.7-0.8l3.3,3.5l3.2-1.8l0.8-6.7l2.8-0.5l3.7,3.8l0.7,2.2h3.5l2,3.3l4.8-1
		L190.1,218.8z"/>
	<path id="강릉시" class="st0" d="M215.3,176.1h-8.2l-2.7,1.7l-4.7-4l2.5-4.8l3.3-0.5l0.7-2.5h2l-1-7l4.2-3.7l-2.8-10l-5-4.7
		h-5.2l-2.2-1l-6,1.5l0.5-5.7l-2.2-1.7l-0.8-3.2l0.7-2.5l7.3-7.3l3.3,1.5l8.8-2.7l2.5-1.2l6.8-0.3l2.2,1l0.5,4.3l5.3,6.2l9.2,9.8
		l-0.3,3h1.7c0,0,12.7,11.7,12.5,12.3s-1.5,5.3-1.5,5.3l2.2,4.2l-2,10l-9.2,2.5l-1.3-2l-2.7,2.7l-4.5-4.3l-0.8-3.7l-2.3-0.7
		l-2.2,4.2l-0.8,5l-1.7,2.8l-3.2,0.5l-1.5-1.8L215.3,176.1z"/>
	<path id="정선군" class="st0" d="M236.3,190.1l4-6l-3.5-4l1-3.3l-1.3-2l-2.7,2.7l-4.5-4.3l-0.8-3.7l-2-0.5l-2.5,4l-0.8,4.3
		l-1.7,3.5l-3.2,0.5l-1.5-1.8l-1.5-3.3h-8.2l-2.7,1.7l-4.2-3.8l-4,2.2l-3.7-4.7l-3,6l-0.8,7.5l-2-1.2l0.3,5.7l-5.2,0.5l-2.2,7.3
		l4.2,2.2l7.3,17.5l-1.2,1.8l-2.7,3.2l2,3.7l1.2,2l3.7,0.3l3.2,4.2l7.7,1.2l6.8-4.5l6.7,3.5l4.7,2.5l5.7,0.5l-0.2,2l4-0.7l-1.2-8.3
		l-3-8l-0.7-3l-3.2-4.2l0.8-3.7l-2-2.5l0.3-4.8l3.3-5l2.3-1.8l0.5-3L236.3,190.1z"/>
	<path id="동해시" class="st0" d="M242.9,193.6l6.2-5.2l9.7-0.2l3.3-2.3l-2.7-4.7l-4.5-6.2l2.2-2.5l-1.5-3.3l-6.7-5l-2.3,10
		l-8.8,2.5l-1,3.3l3.5,3.3l-4,6.7l2.7,3L242.9,193.6z"/>
	<path id="영월군" class="st0" d="M225.9,243.1l2.8,2.3l-2.3,3.7l0.3,2.8l-4-1.2l-6.8-4l-2.5,3.2l-2,2.3l1,3.3l-4.8-1.3l-7.3-3.3
		l-5-4l-6.2,0.8l-8-4.8l-5,1l-6.2,0.2l-4.2-6.2h-5.7l-6.2,2.5l-2.7-4.5l7.7-6.3l-0.3-2.3l-1.8-0.5l-6.2,2.3l-2.8-3.2l-4.3-2.6
		l-0.3-2.3l1-2.8l-2.5-2.5l-3,3.5l-5.8,0.3l-2.3-4.8l0.5-3.8l6.8,0.3l2.8-2.8l-2-4.5l1.3-3l7.8-0.3l2-2.8l3.2,0.8l3.2,4.3l1.5,5.2
		l0.3,6l3.7-0.8l3,3.5l3.5-1.8l0.8-6.7l2.8-0.5l3.7,3.8l0.7,2.2h3.5l2,3.3l4.8-1l3.7,2.3l-2.7,3.2l3.2,5.7l3.7,0.3l3.2,4.2l7.7,1.2
		l6.8-4.5l11.3,6l5.7,0.5l-0.2,2l-1,4.5L225.9,243.1z"/>
	<path id="태백시" class="st0" d="M232.4,221.9l1.2-1.2l0.2-3.8l4.2-8.8l5.2-1.5l-1,2.5l2.2,3.7l-1.2,3.3l1.3,2l-1.3,3.3l-2,1
		l2.5,2l-0.7,3.7l2.5,4.5l6.3,1.8l2.7,3.8l-0.2,5.7l-2.8,2.3l-0.7,2.3l-3.8-0.7l-5.7-1.5l-3,1l-4.3-2.5l-2.3,6.3l-4.8,0.7l-0.3-2.8
		l2.3-3.7l-3.2-2.3l2.2-1.3l1-4.5l4-0.7l-1.2-8.3L232.4,221.9z"/>
	<path id="삼척시" class="st0" d="M266.9,252.3l5.3-0.3l-0.3-5.3l5.8-5.7l3.7-0.3l3.7-4.2h3.5l-3.3-8.7l0.3-1.7l-0.8-2l2.8-1.7
		l-4.7-7.5l-4.2-4.2l-3.2-1.3l-2.5-7.3l1.2-2.2l-8.2-5.5l-0.5-5.5l-3.5-3l-3.8,2.3l-9.7,0.3l-5.7,5l-4-0.5l-2.7-3l-5.7,2.2l-1.3,3.7
		l-2,1.2l-3.3,5l-0.3,4.8l2,2.5l-0.8,3.7l2.8,3.8l4,11.3l0.8-6.3l1.5-1.5l-0.2-3.5l4.2-8.8l5.2-1.5l-0.7,2.2l1.8,4l-1.2,3.3l1,2.3
		l-1,3l-2,1l2.5,2l-0.7,3.7l2.5,4.5l6.3,1.8l2.2,4.2l0.3,5.3l3.7,0.8L266.9,252.3z"/>
</g>
</svg>
