<?xml version="1.0" encoding="utf-8"?>
<!-- Generator: Adobe Illustrator 21.1.0, SVG Export Plug-In . SVG Version: 6.00 Build 0)  -->
<svg version="1.1" id="레이어_1" xmlns="http://www.w3.org/2000/svg" xmlns:xlink="http://www.w3.org/1999/xlink" x="0px"
	 y="0px" viewBox="0 0 500 500" style="enable-background:new 0 0 500 500;" xml:space="preserve">
<style type="text/css">
	.st0{fill:#B9B9B9;stroke:#FFFFFF;}
</style>
<g id="경기도">
	<path id="김포시" class="st0" d="M43.2,112.2l-16.2-11l2.8-5.5l-1.8-3.8l-0.7-6.3l-3.2,0.3l-3.3,4.3l-6.3-0.5l-1.8-2.2l-3.7,0.2
		l1,2.8l0.3,2.3l-0.5,0.8l1,5.3v2.7l0.8,3.3l-0.2,3l2.8,2.8v2.7l0.8,2.5l7.7-3.3l2.5-4.5l10.8,8l6.7,0.7l1.7-3.2L43.2,112.2z"/>
	<path id="고양시" class="st0" d="M28.9,98.9l2.5,0.3l4.2-1l6.2-0.5l2.3-4.3l2.3,0.8l4.5-0.8l3.5,2l3-3.7l2.5,0.3l-0.8,2.5v5.7
		l-0.8,2.5l3.7-0.5l2-2.5l4,2.3l-0.8,5.3l-0.8,2l-2.3-2l-1.7-2.8l-2.7,3l-2,0.7l-0.3,6.5l-2.5,0.7l-2,2l-3.5-0.2l-4.5-3l-1.5-2
		l-16.2-11L28.9,98.9z"/>
	<path id="파주시" class="st0" d="M28.4,77.6l3.2-1.7l7.3-0.7l-6-9.8l-5.5-0.3l0.2-6.5l5.8,3.7l2.8-3l-0.2-1.8l2.5-3.5l1.7,2.3
		l1.2,5.7l-0.7,3l2.3,0.2l0.8,3.3l2.5-0.8l1.7-10.3l2.2-3.2l5.2,2.5l0.5-5l3.5,2.2l3.8-0.2l2.7-2.8l4.5,2.8l-5.3,7.7l-2.7,3.3
		l-1,9.7l-0.8,2.7l-2.3-0.3l-0.7,3.2l0.5,4.5l2.5,1.7l-0.2,6l-3-0.2l-3,3.7l-3.5-2l-4.5,0.8l-2.3-0.8l-2.3,4.3l-6.2,0.5l-4.2,1
		l-3-0.3l1.5-3.2l-1.8-3.8l-0.7-6.3L28.4,77.6z"/>
	<path id="양주시" class="st0" d="M69.9,62.4l-4.3-1.3l-3.2,3.5l-1,9.7l-0.8,2.7l-2.3-0.3l-0.7,3.2l0.5,4.5l2.5,1.7l-0.2,6
		l-1.3,2.7v5.7l-0.8,2.5l3.7-0.5l2-2.5l4,2.3l3.3-3.8l-1.5-4.8l-1.8-3.3l3-2.3l3.8,0.8l4-1.5l3.7-1.7l1.2-6l-1.5-6l-7.8-1.7
		l-1.3-3.7l-3.8-1.8L69.9,62.4z"/>
	<path id="의정부시" class="st0" d="M86.4,90.1l-2,2.8l-0.5,2l-4.2,5.2l-3-0.3l-1.7,1.3l-3.8-2.8l-1.5-4.8l-1.8-3.3l3-2.3
		l3.8,0.8l7.7-3.2l2.7,2.2L86.4,90.1z"/>
	<path id="동두천시" class="st0" d="M75.7,55.1l-6.2,7.8l-0.5,3.3l3.7,2.3l1.5,3.2l7.8,1.7l2.3-2.2h2.2l0.7-3.2l-1.8-3.3l-5.2-5
		v-3.8L75.7,55.1z"/>
	<path id="연천군" class="st0" d="M56.1,39.6l-1.7,5.8l-0.7,3.7l-5.3-2.7l-1.2,5l-2.3,1.5l1,4.5l2.2-0.2l2.2-3.2l5.2,2.5l0.5-4.5
		l3.5,1.7l3.8-0.2l2.7-2.8l4.5,2.8l-4.8,7.5l3.8,1.2l6.3-7.2l4.5,0.8l0.2-2.5h2.2l2.5,0.3l1.7-2l-0.8-6.3l-2.3-0.5l-0.2-2.3l3.7-2.8
		l4.2,1.3v-6.8l0.5-12.2l-2.2-3.5l-2.2-5.3l-3.5,1.8l-1.8-2.3l0.2-6.8l-9.3,4.7l-6.3,4.8l-2.2,4.3l-2.2-1.5l-4.2,2l-2.3-0.7l-3-4
		l-15.7,16l3.8,3.7l1.3,3.2l6.2,0.3l4.3-2.2L56.1,39.6z"/>
	<path id="포천시" class="st0" d="M86.4,90.1l4.5-0.2l3.7-1l2.5,0.7l5.2-3.3l2.7-14.2h3.8l1.2-8.2l5.8-1.8l0.3-6.2l4.7-6.3
		l1.7-4.2l2.5-0.8l-1.7-10.2l-1.7-1.2l-1.2,1.7l-5.5-2l-3.7,2.7l-1.5,1.5l-2-3.5l-4.2-1l1.5-8.5l-2.2-1.3l-7.3,6.3l-4.2-3.8v8
		l-0.3,7.3l-4-0.8l-3.7,2.8l0.2,2.3l2.7,1.8l0.5,5l-1.7,2l-4.7-0.3l-0.2,6.3l4.7,4.3l2,3.2l-0.3,4h-2.2l-2.3,2.2l1.7,6.5l-1.3,5.5
		l3.2,2.8L86.4,90.1z"/>
	<path id="구리시" class="st0" d="M90.2,118.7l1.5-3.5l-4-1.7l-1.2-6.7l-2.2,1.2l-3-0.3l1.8,4.2l0.2,3.7l-2,2l1.7,2.8l3.5-2
		L90.2,118.7z"/>
	<path id="남양주시" class="st0" d="M105.6,87.1l5,3.7l2.2,4.8l1,4.2l2.2,2.5l-0.7,4.5l-3.8,4.7l-0.3,6.8l-4.3,6.2l0.2,3.5
		l-2.7,0.2l-3.3-4l-3.3-3.5l-4-5l-1.8-0.3l-4-1.7l-1.2-6.7l-2.2,1.2l-3-0.3l-1.2-1.8l-0.5-5.8l4.2-5.2l0.5-2l2-2.8l5.2-0.2l3-1
		l2.5,0.7l5-2.8L105.6,87.1z"/>
	<path id="하남시" class="st0" d="M86.2,133.6l3.2,0.7l2.5-1.5l6,0.3l1.5,1l1.7-2.3l-0.5-2.7l3.7-1l-3.3-4l-3-2.8l-4.3-5.7
		l-1.8-0.3l-1.5,3.5l0.8,1.7l0.3,2.5l-3.8,2.8l-0.3,2l1.2,3L86.2,133.6z"/>
	<path id="양평군" class="st0" d="M122.7,103.7l-3.8,2.3l-3.7,0.7l-3.8,4.7l-0.3,6.8l-4.3,6.2l0.2,3.5l3.7-3.2l2.7,0.2l2.7,3.3
		l1.2,4.8l1,1.8l-1.5,1.8l-1.7,0.5l4,5.7l3.2-3.7l5.8,2.8l4.5-2.5l4,3.8l5,0.2l3.2-1l4,1.5l4.2-0.5l4,1.3l0.2,3l0.7,2.3h6l5.5-10.7
		l-1.3-6.3l-4.7-3.3l7.3-6.8l4.3-1.2l-6.3-5l-4-1.7h-8l-12.3-8.2l-6.2,3l-0.2,6.5l-4,1h-5.7l-1-6.2l-3.5-4.8L122.7,103.7z"/>
	<path id="가평군" class="st0" d="M125.7,49.1l-0.8-4.5l-2.5,0.8l-1.7,4.2l-4.7,6.3l-0.3,6.2l-5.8,1.8l-1.2,8.2h-3.8l-2.8,14.7
		l3.5,0.3l5,3.7l2.2,4.8l1,4.2l2,3.5l-0.5,3.5l3.7-0.7l3.8-2.3l0.8,2.8l3.5,4.8l1,6.2h5.7l4-1l0.2-6.5l-2.8-4.3l2.3-1.2l0.5-9.7
		l-4.8,0.7l0.3-3.8l2.8-3.3l-2.5-4.5l1.8-2.8l-0.8-4.7l6.7-6.3h2.8l1-5.7l-2.2-2.8l-0.3-3.7l-8-0.3l0.3-6.3l-8.7-0.7L125.7,49.1z"/>
	<path id="여주군" class="st0" d="M124.1,152.7v-5.2l-5.2-4.7l3.2-3.7l5.8,2.8l4.5-2.5l4,3.8l5,0.2l3.2-1l3.3,1.7l4.8-0.7l4,1.3
		l0.2,3l0.7,2.3h6l0.3,8.5l-1.5,10.7l-1.7,8l-5.8,9.5l-7.3-3.7l-5.5-4.8l-2.5,2.5l-5.2-0.5l0.3-2.8l-0.2-6.2l1.5-2.2l-0.8-4.3
		l1.8-3.2l-1.8-2.7l-2.8-3.5l-2-0.8l-3-2.3L124.1,152.7z"/>
	<path id="광주시" class="st0" d="M110.7,165.4l4.8-7l2.5-0.3l6-5.3v-5.2l-5.2-4.7l-4-5.7l1.7-0.5l1.3-1.2l-0.8-2.5l-1.2-4.8
		l-2.7-3.3l-2.7-0.2l-3.7,3.2l-3.2,0.3l-3.2,0.8l0.5,2.7l-1.7,2.3l-1.5-1l-6-0.3l-1,1.3l1,1.7l2.2,4.3l-1.7,3.5l-2,2.8l-0.7,3.5
		l-4.5,4v2.3l2.5-0.3l4-2.5l1.2,1.8l2.8,0.7l0.5-3.7l5,1.8l3.2,0.8l-0.2,11L110.7,165.4z"/>
	<path id="성남시" class="st0" d="M74.4,141.6l-2,8l6.2,3.2l4.3,3.5h2.3v-2.3l4.5-4l0.7-3.5l3.7-6.3l-3.5-6.5l-1.2,0.7l-3.2-0.7
		l-1.7,2l-3,0.2l-4.2,5.8l-2.5-1L74.4,141.6z"/>
	<path id="과천시" class="st0" d="M66.7,144.7l7.2-2.5l1-1.7l-1.7-4l-6.2-0.5l-2.8,3.8v2.3L66.7,144.7z"/>
	<path id="의왕시" class="st0" d="M65.4,147.4l-1.3,5.3l-2.5,5.7l-1,2.2l3.5,0.5l1-3.2l3.2-1.8l2.8-2.8l1.3-3.7l1.5-7.3l-6.7,2.5
		l-1.3,0.8L65.4,147.4z"/>
	<path id="용인시" class="st0" d="M73.2,155.1l-2.2-1.8l1.3-3.7l6.2,3.2l4.3,3.5l4.8-0.3l4-2.5l1.2,1.8l2.8,0.7l0.5-3.7l8.2,2.7
		l-0.2,11l6.5-0.5l-0.2,6.8l1.3,3.5l4.3,1.7l0.2,2.8l3.8,0.2l1.3,3.5l1.8,1.7l-1.7,3.8l-0.8,3.8l-3.8-1l-5-0.3l-2.8-2.3l-2.2,1.7
		l-4.3-4l-1.7-2.2l-1.2,3.5l-4.7,3l-2.8,3.5l-5.2-1.3l-4.3-2.2l0.5-4.5l2.5-4.7l2.8-2l-1.5-5.7l-8.2-0.7l-1.8-2.3l2.7-4.8l-2.5-1.7
		l2.3-2.7l-3.2-0.7l-0.7-2.2l-2.2-0.7L73.2,155.1z"/>
	<path id="안양시" class="st0" d="M61.1,149.1h-2.5l-2.3,2.7l-3-4.7l1-3.7l2.2-3.5l3.2-2l2.5,2.2l2.2-0.2v2.3l2.5,2.5l-0.8,0.8
		l-1.7,5.7L61.1,149.1z"/>
	<path id="부천시" class="st0" d="M46.7,134.2l-0.5,1.8l-5.2,0.2l-3.8-3.8l-0.3-4l2.2-1.5l0.7-5.3l6.3,2.5l1.5,4.8l-2,1.7
		L46.7,134.2z"/>
	<path id="광명시" class="st0" d="M48.4,136.7l-2.2-0.7l0.5-1.8l3-1.2l2.5-1.7l1.3,1.8l2.8,6.7l-2.2,3.5l-0.7,1.7l-3.7-0.5
		l-0.8-6.8L48.4,136.7z"/>
	<path id="시흥시" class="st0" d="M33.4,150.6l-4,4.5l4.7,3.5l4.3-3.5l5-0.5l3.5-2.8l5.7-1.3l1-2.2l-0.3-1.2l0.3-2l-3.7-0.5
		l-1-6.3l-0.5-1.5l-2.2-0.7l-5.2,0.8l-5.7,10.8L33.4,150.6z"/>
	<path id="이천시" class="st0" d="M133.1,198.7l1-5.2l-2.8-4.8l-4-0.8l-1.7-2.5l-2.2,0.2l-1.8-1.7l-1.3-3.5l-3.8-0.2l-0.3-2.3
		l-4.2-2.2l-1.3-3.5l0.2-6.8l4.8-7l2.5-0.3l6-5.3l3.3-0.3l2.3,2.2l2.7,1l4.7,6.2l-1.8,3.2l0.8,4.3l-1.5,2.2v6.8l-0.2,2.2l5.2,0.5
		l2.5-2.5l5.5,4.8l0.3,9.5l-3.5,1.2l0.2,2.7l-2.2-0.8l-2.2,0.5l-0.8,4.8l-2.5-1.3L133.1,198.7z"/>
	<path id="수원시" class="st0" d="M61.2,162.5l-1.5,2.6l0.5,2.5c0,0,2.5,0.4,2.5,0.8S66,173,66,173l6-0.3l2-1.9l3.3,0.9l2.7-4.8
		l-2.5-1.7l2.3-2.7l-3.2-0.7l-0.7-2.2l-2.2-0.7l-0.5-4l-2-1.3l-2.6,2.1l-3.8,2.4l-0.8,2.8l-2.8-0.3L61.2,162.5z"/>
	<path id="군포시" class="st0" d="M60.6,160.6l-3.8-1.7l-3.4-1.3l1.5-5.9l1.3-0.4l2.1-2l2.8-0.3l3.2,2.2l-0.2,1.5L60.6,160.6z"/>
	<path id="안산시" class="st0" d="M34.1,158.6l5.6,3l5.9,0.4l1.5-0.1l2.8,3.9l5.6-2l4.3,1.4l1.5-2.6l0.1-1.8l-7.5-3.1l1.1-5.9
		l1.3-0.4l-2.6-3.1l-1,2.2l-5.7,1.3l-3.1,2.9l-5.4,0.5L34.1,158.6z"/>
	<path id="오산시" class="st0" d="M74.8,188.1l5.5-0.5l1.4-1.8l-0.5-2.1l-2.5-0.4l-1.5-3.6l-1.3-2.4h-4.9l-2.4,4.1l3.6,2.4l0.3,3
		L74.8,188.1z"/>
	<path id="평택시" class="st0" d="M58.5,222.6l10.1-5.1l4.9,1.6l6.5-2.9l3.3-4.3H86l0.9-3.6l1-1.1l-0.3-2.1l0.3-1.5l-5.5-1.4
		l3.1-3.6l-2.4-1.4l0.8-5.1l-0.8-0.9V187l-1.4-1.1l-1.4,1.8l-5.1,0.4l-2.6-1.1l-3.8,1.9l-1.6,7.8l-6.1,1.4l-6.1-0.6l-5.5,7.9
		l-5.4,0.8l-1.8,1.9l5.4,1.6l1.4,5.5l6.8,4l1.5,3.8L58.5,222.6L58.5,222.6z"/>
	<path id="안성시" class="st0" d="M105.2,223.6l-4.8-4.1l-4.3-0.4l-3.3-4.3l-7-2.9l0.9-3.6l1-1.1l-0.5-2.6l0.5-1l-5.5-1.4
		l3.1-3.6l-2.4-1.8l0.8-4.8l3.4,1.6l5.2,1.3l2.5-3.6l5-2.9l1.2-3.5l2,2.4l4,3.8l2.2-1.7l3.2,2.7h4.6l3.8,1l0.8-3.8l1.7-3.4l2.1-0.6
		l1.7,2.5l4.3,1.1l2.5,4.6l-1,5.2l-7,1.4v3.8l-3.8,3l-4.8,0.8l-0.3,3.9l1.5,1.9l-3.8,3.4h-5.9l-2.6,4.9L105.2,223.6z"/>
	<g id="화성시">
		<path class="st0" d="M47.2,165.1l-4.1,0.1l-1.1,3.1l-0.9,2.5l-3-2.8l-1.6,0.4l-3.6-0.4l-1.8-0.9l-2.4,0.8l-2.3,2.9l1.8,2.8l-2,4.9
			l-0.4,3l0.1,2.6l4-0.4l-1.4,3.4l1.9,3.1l4-3.1l3.1-4.1h4.5l1.8-2.4l-0.1,4.1l1.8,1l-1.6,2.4l-5.3,0.5l0.3,2.9v2.6l-0.1,4.1
			l-2.6,2.5v2.3l6.9,1.1l1.1,1.8l5.4-0.8l5.5-7.9l6.1,0.6l6.5-1.3l1.3-7.9l3.8-1.9l-0.3-3l-3.6-2.4l2.4-4.1H76l1.3,2.4l1.5,3.6h2.6
			l0.4,2.5l1.7,1.2l2.5-4.7l2.8-2l-1.5-5.7l-8.2-0.7l-1.8-2.3l-3.3-0.5l-2,1.5l-6,0.3l-3.3-4.6l-2.5-0.8l-0.5-2.5l-4.3-1.4l-5.6,2
			L47.2,165.1z"/>
		<path class="st0" d="M21.5,169.9l-1.6-2.4l-3.1-0.5l-1.6-2.8l-4.5-0.6l2.3,4l1,3l-2.5,1.4l0.1,5.4l3,0.1l2.6-4l3.8,2.8l-0.1-3.9
			l1.3-1.1L21.5,169.9z"/>
	</g>
</g>
</svg>
