<?xml version="1.0" encoding="utf-8"?>
<!-- Generator: Adobe Illustrator 21.1.0, SVG Export Plug-In . SVG Version: 6.00 Build 0)  -->
<svg version="1.1" id="레이어_1" xmlns="http://www.w3.org/2000/svg" xmlns:xlink="http://www.w3.org/1999/xlink" x="0px"
	 y="0px" viewBox="0 0 500 500" style="enable-background:new 0 0 500 500;" xml:space="preserve">
<style type="text/css">
	.st0{fill:#B9B9B9;stroke:#FFFFFF;}
</style>
<g id="경상북도">
	<path id="문경시" class="st0" d="M54.1,91.9l4,2.5l7.8,3.7l1.2,7.2l5.5,0.3l0.7-2.8l2.8-0.7l-0.2-4.8l-2.3-4.5l6-5.8l2.8,0.5
		l0.5-1.7l-3-3.7l2-10.3l3.3-0.3L85,63l-2.3-2.1L79,59.5l-6.5-7.6l-3.1-0.8l-3.5,3l-0.2,5.3l-2.7,0.8l-6.8-2.9L50,62.6L48.6,61
		l-2-0.4l-1.3,5.3l-2.6,4.8l6.1,6.1l-3.5,1l-4.8-3.4l-2,1.8l-4.1-2.6l-2.5,5L28.6,81l-2.4,0.3l5.5,5.8l-1.9,7l1.9,7.2l-0.2,4.3
		l4.3,1.5l2.3-3.8l5.7,0.5l2.7-4.7l-0.5-2.2l3.7-3.2l2.7-0.3L54.1,91.9z"/>
	<path id="상주시" class="st0" d="M54.8,150.8l2.2-3.7l2.3-5.3l7.8-0.5l2.5-6.8l3.7-2.8l3.2,2.3l2.7-4.7l3.8-4.5l-2.3-4.8
		l-2.3-3.8l-4.7-1.8l-1-8.7l-5.5-0.3l-1.2-7.2l-7.8-3.7l-4-2.5l-1.7,1.5l-2.7,0.3l-3.3,3.2l0.2,2.7l-2.7,4.2l-5.7-0.5l-2.3,3.8
		l-4-1.7l-0.2-4.8l-1.9-6.5l-5.5-5.8l-1-1.4l-3,3.4l0.9,2.3l-8.3,1.8l1.2,2.7l4.5,2.5h3.5l1,3.7l3.8,4.7l0.2,2.7l-3.3,2l-0.2,9.2
		l1,2.2l-2.5,2.7l2.8,3.8l0.3,3.5l-5.7,6.3l1.8,5.3l3.3,0.5l2.8-4l3.3,4.2l5.3,2.8l2.7-2.5l4.3,0.2l2.2,2l2.8,2.5l3.7-0.8
		L54.8,150.8z"/>
	<path id="예천군" class="st0" d="M95.4,105.9l2.7-5.5l3.7-2.7v-5.2l4.5-0.7l-0.2-3.2l6.5-2.7l2.5-0.2l0.8-6.8l-4.3-5.7l-3.2-5.5
		l-4.7-0.2l-5-1.3l0.2-6.2l0.3-2.3l-3.1-3.8l-3.8,5.8l-3.9-0.3L85,63l-0.3,8.5l-2.8,0.3l-2,10.3l2.7,3.2l-0.2,2.2l-2.8-0.5l-6,5.8
		l2,4.7l0.5,4.7l-2.8,0.7l-0.7,2.8l0.7,8.3l5,2.2l3.2-3.8l1-5.7l4.5-0.2l1.2,2.7l3.8-3.2L95.4,105.9L95.4,105.9L95.4,105.9z"/>
	<path id="영주시" class="st0" d="M131.6,77.1l-0.3-13.5l-1-3l1.7-5.2l-2.5-3.2l-6.2,0.7v3.2l-3-3.8l2.2-9.5l2.5-7.3l2.3-11.7
		l-6-2.8l-2.8,3.2l-6.3,0.1l-4.5,8l-2.6,0.9l-9.6,9.3l-1.9,5.3l1.5,3.8l1,2.8l3.1,3.8l-0.5,8.5l5,1.3l4.7,0.2l3.2,5.5l2.2,2.7
		l8.2-0.3l3.7,2.2l2.3-1.2L131.6,77.1z"/>
	<path id="봉화군" class="st0" d="M164.4,69.4l-2.7,0.5l-3.8-4l-5.2-0.3l-9.2-5.5l-2.5,1.2l-1.3-2.5l-3.7,2.2l-5.2,1.7l-0.5-2.7
		l1.5-4.5l-2.5-3.2l-6.2,0.7v3.2l-3-3.8l2.2-9.5l2.5-7.3l2.3-11.7l5.8,1.5l-0.7-3l5-5.5l5.5,3.8l4.8,1.3l4.2-0.7l3-6.3l4.3,2.5l3-1
		l9.5,2.2l0.7-2.3l2.8-2.3l3.7,0.8l8.7,7.3l-3.5,4l-2.8-1.8l-6,3.3l1,6.8l-1.3,3.2l6.8,4.5l2.3,5.7l-4,3.5l-2,4.3l-6.3,4.2l-3.5,3.8
		l-5.5,1l0.7,2.7L164.4,69.4z"/>
	<path id="영양군" class="st0" d="M199.8,80.6l2.3-6.7l-3.2-4.5l5.5-6.8l-5-6.8l0.2-5.3l-3-0.8l-1.7,2.7l-4.2-2.5l-6.7-2l-4,3.5
		l-2,4.3l-6.3,4.2l-3.5,3.8l-5.3,1.5l0.5,2.2l1,2.2l-0.2,2l0.7,6.8l-0.2,11.3l1.8,4.5l3.7,0.5l3.5,5.7l6,0.7l2.7,3.7v2.2l3.8-0.2
		l7.3,1.8l1.7-2.3l1.2-8.3l-3.2-5.2l2.5-6l-1-4.2l1.5-1.7L199.8,80.6z"/>
	<path id="울진군" class="st0" d="M219.4,81.8l-8.5,0.2l-2.3,2l-4-2.5l-4.8-0.8l2.3-6.7l-3.2-4.5l5.5-6.8l-5-6.8l-0.3-5.3l-2-0.8
		l-2.5,2.7l-4-3l-6.5-1.5l-2.3-5.7l-6.8-4.5l1.3-3.2l-1-6.8l6-3.3l3.2,1.7l3.2-3.8l5.7-0.2l-0.3-5.3l5.8-5.7l3.7-0.3l3.7-4.2h3.5
		l2.5,7l6.2,5.8l-2.3,2.8l0.8,7.8l-1,3.5l2.2,4.8l-0.8,6.2l0.8,7.7l4.5,4.5l2.5,7.7l-0.7,2.7l0.8,3.3l-0.5,7.3L219.4,81.8z"/>
	<path id="안동시" class="st0" d="M153.1,140.4l-2.8-9.8l-4.8-7.7l-1.7-5.3l-10-5.8l-2.2,1.5l-2.2-0.3l-0.7,5.3l-12,5l-4.5-4.5
		l-4-8l-5.2-1.5l-3.3-1.8l-2.5,3l-3.5-1.5v-2.8l1.2-0.2l3.5-6l3.3-2.2v-5.2l4.5-0.7l-0.2-3.2l6.5-2.7l2.5-0.2l0.8-6.8l-2.2-3
		l8.2-0.3l3.7,2.2l2.3-1.2l3.7,0.3l-0.7-14.5l5.2-1.7l3.7-2.2l1.3,2.5l2.5-1.2l8.7,5.3l5.7,0.5l3.8,4l2.3-0.5l0.8,8.8l-0.2,11.3
		l1.8,4.5l-2.5,3.3l0.3,3.2l-2.5,2.3l3.7,3.8l-2.3,5.8l-1.2,4l1.7,5.3l-2.3,6.2v6.5l-6,5.7L153.1,140.4z"/>
	<path id="의성군" class="st0" d="M96.6,137.6l-5,6l-7.3-9.7l-4.8,3l-3-3l2.8-5.3l3.3-3.8l-4.3-8.7l3.2-3.8l1-5.7l4.5-0.2
		l1.2,2.7l3.8-3.2l1.8,0.2v2.8l3.5,1.5l2.5-3l3.3,1.8l5.2,1.5l3.7,8l4.8,4.5l12-5l0.7-5.3l2.2,0.3l2.2-1.5l10,5.8l1.3,5l4.8,8.2
		l3.2,9.7l-2,0.3l-0.3,3.3l-3.2,2.2l5,2.2l-1.8,2.8l2.3,3.7l-0.7,1.7l-5.7-3.2l-5.8,3l-8.3-0.2l-8.3-3.2l-3.7,1.3l-0.3-5.7l-7-4.7
		l-3.7,0.7l-1-3.3l-6.5-0.7l-3.5-3.2L96.6,137.6L96.6,137.6z"/>
	<path id="김천시" class="st0" d="M48.9,213.1l2.3-4.8l-4.3-10.3l2.5-0.3l2.3,2.3l3-5.2l2.8-1.2l3.5-4.7v-5.5l3.5-0.7l3.3-3.3
		h10.5l-1.5-4.2l0.8-2.2l-2.2-2.3l0.3-3.7l0.8-4.5l-2.8-2.8l-0.7-2l-4.5-1.2l-0.2-3.3l-7.3-4.2l-4.7-1.5l-2.2,3l-2.5-0.3l-3.7,0.8
		l-2.8-2.5l-1.8,2.3l4.3,7.3l-3.2,0.3l-4.3-1.7l-3.2,0.8l1,4.2l1.3,3l-3,4.3l-1.5,9l-6.5,2.2l-4.2,4.5l0.2,3.8l4.8,7.5l-3.8,2.8
		l0.3,5.7l5.3,1.8l1.2,4.5l6.2-0.3l3.7,3.7L48.9,213.1z"/>
	<path id="구미시" class="st0" d="M87.9,178.1l4.2-5c0,0,7,2.8,7.2,2.3s3.8-6.7,3.8-6.7l9,0.5l-3.2-6.5l1.2-2.2l-3.5-3.8
		l-3.8,2.3l-1.5-6.7l-4.5,1l-4.5-4.7l-0.7-5.2l-7.3-9.7l-4.8,3l-3-3l-3.2-2.3l-3.7,2.8l-2.5,6.8l-7.8,0.5l-2.7,5.8l5.3,1.7l6.7,4
		l0.2,3.3l4.5,1.2l0.7,2l2.8,2.8l-0.8,4.5l-0.3,3.7l2.2,2.3l3.2,0.3L87.9,178.1z"/>
	<path id="성주군" class="st0" d="M60.9,222.9l1.3-1.8l-0.5-3.3l5.3-1l3.7,4.7l5.2-5.7l3.5,1.7l5.5,2.5l4.8-6.8v-7.3l2.3-5
		l-1.3-3.2l-4.2-1.8l-7-6.3l0.3-5.8l-1.5-4.2H67.9l-3.3,3.3l-3.5,0.7v5.5l-3,4l-3.3,1.8l-3,5.2l-2.3-2.3l-2.5,0.3l4.3,10.3l-2.3,4.8
		l6.3,2.5l2.7,5.8L60.9,222.9z"/>
	<path id="고령군" class="st0" d="M60.6,241.3l0.3-2l6-4.3l-2.3-6.8l-3.7-5.2l1.3-1.8l-0.5-3.3l5.3-1l3.7,4.7l5.3-6l8.8,4
		l4.8-7.2l4.8-1.2l6.7,3.3l-0.7,2.5l-6.5,0.5l-2.3,5.3l-1.5,2.8l6,4.8l-0.7,5.2l-9.2-1l0.7,4.7l4.8,4.5v4.8l-3.3,0.3l-3.2-4.5
		l-4.5-2.2l-7.8,0.3l-2.8,2l-3.8-0.7l-1.3-1.5L60.6,241.3z"/>
	<path id="칠곡군" class="st0" d="M104.4,203.9l-4.3-1.3l-0.3-5.2l-2.5-1.2l-5.2,4.5l-1.3-3.2l-4.7-2.3l-6.5-5.8l-0.2-6.3
		l-2.5-7.8l0.8-2.2l3.2,0.3l7,4.7l4.2-5l7.2,2.3l4.3-6.5l8.5,0.3l0.3,7.2l7.3-1.8l0.3,10.2l-3.7,4.5l-6,3l-2.5-1.7l-1.3,1.3l1,3.7
		l-0.8,4.2L104.4,203.9z"/>
	<path id="군위군" class="st0" d="M128.9,184.8l0.7-8.5l4.7-6l5.5,1.8l3.5,0.8l4.3-7l6.8-1.2l-0.7-5.7l-1.3-2.5l-5.7-3.2
		l-5.5,2.8l-8.7,0l-8.3-3.2l-3.7,1.3l-0.3-5.7l-7-4.7l-3.7,0.3l-1-3l-6.5-0.7l-3.5-3.2h-2l-4.7,5.3l0.2,5.2l4.7,5.3l4.5-1l1.5,6.3
		l3.8-2l3.5,3.8l-0.8,2.5l2.7,5.7l0.5,7.7l7.3-1.8l0.3,10.2L128.9,184.8z"/>
	<path id="영덕군" class="st0" d="M214,143.4l-10.3-0.5l1-5.8l-2.3-2.5l-3.5,0.5l-4.3-4.5l-0.3-5l-3.3-6.5l-3.8-0.8l-2.3-4.5
		l-0.3-6.8l1.3-0.5l7.3,1.8l1.2-1.6l1.7-9.1l-3.2-5.2l2.5-6l-1-4.2l1.5-1.7l3.5-0.2l4.8,0.8l4,2.5l2.3-2l8.5-0.2l-1.4,5.6l0.3,6.5
		l4.5,5.8l-0.5,6.5l-1.3,7l-0.3,8.8l-6.5,11L214,143.4z"/>
	<path id="청송군" class="st0" d="M175.3,152.6l2-3.3l-4.8-3.8l2.8-1.8l8.3,2.3l5.5,6l6-9.5v-4.3l4-3.3l-4.3-4.5l-0.3-5l-3.3-6.5
		l-3.8-0.8l-2.3-5.3l-0.3-6l-2.6-0.3v-2.2l-2.7-3.7l-6-0.7l-3.5-5.7l-3.7-0.5l-2.5,3.3l0.3,3.2l-2.5,2.3l3.7,3.8l-3.5,9.8l1.7,5.3
		l-2.3,6.2v6.5l-6,5.7l-4.3,0.5l-0.3,3.3l-3.2,2.2l5,2.2l-1.8,2.8l2.3,3.7l-0.7,1.7l1.3,2.5l5.5,0.5l4.5,2l5.8-3l2.5-5.3
		L175.3,152.6z"/>
	<path id="포항시" class="st0" d="M202.5,173.6l-4.3,0.5l-1.3,3.8l-5.5,1.5l-4-3l-3-0.8l-0.5-2.3l-4.3-3.3v-2.3l-3.3-0.3
		l-2.8-4.5l-9-1.8l4.8-2.8l2.5-5.3l3.3-0.8l2-3.3l-4.8-3.8l2.8-1.8l8.3,2.3l5.5,6l6-9.5v-4.3l4-3.3l3.5-0.5l2.3,2.5l-1,5.8l10.3,0.5
		l1,4.5l1.5,1.3l-1.8,4l-1.3,0.5l1,2l2.5,2.3l0.8,5.5l4.5,4.3l-1.3,2.5l-6,6l3.3,4.5l2.3,3.3l5.3,2.8l2.8-4l3.3-2.3l5.8-8.8l2,2
		l1.3,7.5l-2.8,6.5l-1.3,5.5l-4,2.5l2,7l-0.3,6.3l-1.8,2.5l-6-3.3l-4.8-5l-2.3,3.8l-6.3-0.5l-0.8-3.3l-2-2.5l-3.5-11.3l-5.3-8l1.8-6
		L202.5,173.6z"/>
	<path id="영천시" class="st0" d="M162,212.1l-7-1l-4.3-5l0.5-3l-1.8-3.8l-0.5-6l-6.5-2l-3.5-2.8l-5,0.8l-1.3-3.5l-3.8-1.1
		l0.7-8.5l4.7-6l9,2.7l4.3-7l6.8-1.2l-0.7-5.7l5.5,0.5l4.5,2l10,1.5l2.8,4.5l3.3,0.3l0.3,3l4,2.5l0.5,2.3l1,0.8l-1,3.3l1,5.3l-3-0.8
		l-1.8-1l1.5,9.3l3.3,4.5l-2.8,1l-2.5-2.8h-4.8l-3.5,6l-0.5,7.3l-5.8,4.5L162,212.1z"/>
	<path id="경산시" class="st0" d="M158.8,223.4l-4,0.8l-5.3,2l-8,0.5l-3.8,7.3l-5.5-3l-3.8-4.3l1.3-2.8l-1-3.3l3.3-2.5v-4.8
		l1.5-3.8l3.5-2v-7.5l-2.5-1.8l-0.5-9l5-0.8l2.8,2.8l7.3,2l0.5,6l1.8,3.8l-0.5,3l4.3,5l8,1.3l-1,5.3L158.8,223.4z"/>
	<path id="청도군" class="st0" d="M125,250.9l-5.5,2.5l-9.3-7.5l-2-5.3l-0.8-3.8l0.8-4.3l4.5-3.5l7.3,0.3l-0.5,4.5l7-2.5l2-4.8
		l2.8,3.5l6.5,3.8l3.8-7.3l6.3-0.8l7-1.8l4-0.8l3.3-5.8l1-5.3l2.8,0.5l4.5-3.3l-2.8,6.5l-2.5,8l5,9.3l2.3,1.3l2.8,8l-5.3,2l-3.5,3.3
		l-3.5-3.5l-4.3-1.8l-6.3,2.3l-2.5,5.3l-5.5,0.3l-2.8,3.8l-7.3-0.8l-5.3-1.8L125,250.9z"/>
	<path id="경주시" class="st0" d="M214,235.4l-7.3,4.8l-4.5-1.3l-0.5-7l-6.5-1.8l-6.8,0.3l-1.3-1l-3,2.5l-4.8,0.8l-3.3,6.5l3,3.5
		l-4.3-0.8l-2.8-7.3l-2.3-1.3l-5-9.3l5.3-14.5l1.3-1.3l0.5-7.3l3.5-6h4.8l2.5,2.8l2.8-1l-3.3-4.5l-1.5-9.3l4.5,1l-0.8-4.5l1-3.3
		l2.8,0.3l3.3,2.8l5.5-1.5l1.3-3.8l4.3-0.5l1.3,2.8l-1.8,5l5.3,8l3.5,11.3l2,2.5l0.8,3.3l6.3,0.5l2.3-3.8l4.8,5l6,3.3l0.5,2.8
		l-2.8,3.3l-0.5,8.8l-1.8,6l0.3,2.8l-4.3,4.8L214,235.4z"/>
	<g id="울릉군">
		<path class="st0" d="M249.3,130.1l-3.3-0.3l-2.3,1.5l-3.8,2.5l-4.3,0.3l-2.8,0.5l1.3,2.5l1,2.5v2l8,3l0.8-2l4-2.8l0.3-6
			L249.3,130.1z"/>
		<path class="st0" d="M260.3,143.1l-1.3,2.5l2,1l1.3-2.5L260.3,143.1z"/>
	</g>
</g>
</svg>
