<?xml version="1.0" encoding="utf-8"?>
<!-- Generator: Adobe Illustrator 21.1.0, SVG Export Plug-In . SVG Version: 6.00 Build 0)  -->
<svg version="1.1" id="레이어_1" xmlns="http://www.w3.org/2000/svg" xmlns:xlink="http://www.w3.org/1999/xlink" x="0px"
	 y="0px" viewBox="0 0 500 500" style="enable-background:new 0 0 500 500;" xml:space="preserve">
<style type="text/css">
	.st0{fill:#B9B9B9;stroke:#FFFFFF;}
</style>
<g id="경상남도">
	<path id="거창군" class="st0" d="M22,28.9l4.8,3.5l0.5,3l5-1.5l3.5,4l4.8,4l3.8,4l3-0.8l0.3,7.8l-4,6.5l4.3,2.3l1.3,4.3l8.8,3
		l2.3-6l3-6.3l1.8-8l5.8-6l3.8-1L72,34.9l-2.3-7.5L69,25.6l6.3-7.3l-2.5-1.5l-7.5,1.6L61,14.9l-5.6,0.3l-1.2-4.5l-5.3-1.8l-0.2-1.9
		l-3,0.8l-2,4.5l-7,4.8l-6.5,0.8l-1.8,5.8L22,28.9z"/>
	<path id="합천군" class="st0" d="M76.3,90.9l-5.3-7h-3.8l-6-9.5l-3.5-6.3L63,56.6l1.8-8l5.8-6l3.8-1l-4.5-13.5L69,25.6l6.3-7.3
		l3,1.3l2.7,5.8l3,1.5l3.7,5.2l2.3,6.8l-6,4.3l0.6,1.8l3.6,1.3l1.3,1.5l3.8,0.7l2.8-2l7.8-0.3l4.5,2.2l3.2,4.5l-2.1,2.9l0.3,5
		l-1.8,2.8l2.8,4.5v3l-10.3-2.3l-6.3,4.3l-4.8,1.8L89,81.4l-1.3,5.5L82,87.4L76.3,90.9z"/>
	<path id="함양군" class="st0" d="M26.3,98.1l4.8-4l6.5-15.3l2.3-4.8l0.5-4.3l1.3-4l3.8-5.5l-1.8-1l4-6.5l-0.3-7.8l-3,0.8l-3.8-4
		L35,37.1l-2.8-3.3l-5,1.5l-0.5-3L22,28.9l-0.5,3.3l-1,6.5l-3,2.5l-2,5.5l2,5.8L15,54.9l-1,3.3l-3,2.3l4.3,4.5l3.8,6.8l-1.8,3l1,4
		l3.8,1.5l-1.8,4.5L15,89.4l-0.5,4.3l2,3.3L26.3,98.1z"/>
	<path id="창녕군" class="st0" d="M114,76.1l3.8-4l-4.8-3.8l-2.3-0.3l-2.8-4.5l1.5-4l-0.3-4.5l2.3-2.2l3.3-0.3l5.8-3.8l7.8-0.3
		l1-5.5l0.7-1.5l1,3l1.3,4l10,8.8l-3.3,1.5l0.8,4l-2.5,2.3l1.5,3.3l-1.3,3l1.3,5l5.3,1l3.5,4.8l-0.5,6.8l-6.8-2.3l-3.5,2l-7.3-3
		l-4.8,3l-5-0.8l-0.8-4.5l-6.3-2.5L114,76.1z"/>
	<path id="밀양시" class="st0" d="M166.3,92.6l8-6.3l4.5-5l4,0.3l-1.3-4.3l6.3-2.3l-0.3-6.8l3-5.5l-1.6-1.5v-2.9l5.3-3l0.8-3.8
		l-2.1-3.1l-3.5,3.3l-3.5-3.5l-4.3-1.8l-6.3,2.3l-3.3,5.3l-5,1l-2.5,3l-7.3-0.8l-9.3-2.5l-8.8,4l0.8,4l-2.5,2.3l1.5,3.3l-1.3,3
		l1.3,5l5.3,1l3.5,4.8l-0.5,6l4.8,0.3l5.8,5.3L166.3,92.6z"/>
	<path id="양산시" class="st0" d="M209.5,89.6l-1.5,9.5l-12,5l-6.8-5.3l-0.8-4.3l-5.5-4.3l-5.8-0.5l-1.5-4.8l3-3.8l4,0.3
		l-1.3-4.3l6.3-2.3l-0.3-6.8l3-5.5l3.5,2.8l6.5,0.8l5,3.5l6.4,8.9l5.6-0.4l2.9,3.8l-2,3.8l-0.9,3.8l-3,2l-3-2.3L209.5,89.6z"/>
	<path id="김해시" class="st0" d="M167.5,123.6l-7.8-2.8l-0.3-5.3l-2-0.5l-1-5.8l-4-9.3l5-3.3l1.3,1.8l3.3-5.3l4.3-0.8l9.5-7.5
		l1.5,4l5.8,1.3l5.5,4.3l0.8,4.3l5.8,4.5l-2.3,5.8l-7,2.8l-2.5,2.5c0,0-4.5,0.3-5.3,0.3s-2,4.5-2,4.5l0.3,3.5l-3.5-1.8l-1.8,2.3
		L167.5,123.6z"/>
	<path id="창원시" class="st0" d="M137.9,91.6l-1.6,2.4l0.3,3.4l1.9,1.8v2.8l1.4,4.1l-4.8-0.8l-4.9,2.3l-2-2l-1.4,3l-2.4,4.5
		l2.3,3.8l-0.6,2.5l-3.1,0.1l-2.1,3.6l-3.4-2.6l-1.8-3.6l-3.5,2.1l-1,8.8l-1.5,3.4l4.1,1.5l3.6,3l2.9,0.3l2.3,2.1l2.9-2l-3-2.8
		l1.4-1.4l4.3,1.5l1.9-0.8l2.5-1.9l3,3.4l2.8,0.8l-1.4,3.1l3,0.4l-0.9,1.8l5.4-0.9l1-2.8l-1.9-1.5l-0.4-1.8l-2.5-5.5l0.6-2.5l-2-2.8
		l-1.6-2.9l2.9-2.8l1.6,3.9l2.1,4v2.3l2.4-1.9l3.3,1.8l2.6-1.8l1.4,4l-1.4,3.3l4,1.6l4.6-0.3l4.5-2.3l0.4,3.4l4.1-1l2.6-2.3
		l-0.5-2.9l-4.3-2.8l-0.9-2.4l-7.3-2.6l-0.3-5.3l-2-0.5l-1-5.8l-3.9-8.8l4.9-3.8l1.3,1.8l3.3-5.3l-4.3,0.3l-6.1-5.1l-4.4-0.4v0.8
		l-6.8-2.3l-3.5,2L137.9,91.6z"/>
	<path id="함안군" class="st0" d="M101.3,109.8l-2.2-1.5l3.7-3.7l-0.5-3.5l1.5-4.2l1.7-5l3.2,1.2l3,2.2l3.5-0.2l-0.7-2.5l4-0.2
		l1.3-4.2l5.3,0.3l4.8-3l6.8,3.5l1.3,2.5l-1.1,2.2l-0.5,3l1.7,2.7l0.5,2.4l1.4,4.1l-5.2-0.7l-4.2,1.7l-2.3-1.5l-3.4,7.5l1.9,3.8
		l-0.6,2.5l-3.1,0.1l-2.1,3.6l-3.4-2.6l-1.6-3.1l-3.6,1.6l-3.4-2.3h-3L101.3,109.8z"/>
	<path id="의령군" class="st0" d="M89.4,107.3l-2.8-4l0.5-5.5l-4-3l-3.3,3l-3.5-2.2v-4.8l5.8-3.5l5.8-0.5l1.3-5.5l0.5-6.5
		l4.8-1.8l6.3-4.3l10.3,2.3v-3l2.3,0.3l4.8,3.8l-3.8,4l-0.6,4.2l5.8,3.1l0.8,4.5l-1.6,4.6l-4,0.2l0.7,2.5l-3.5,0.2l-2.7-2l-3.5-1
		l-3.2,8.8l0.5,3.5l-3,3.5l-6.5,0.3L89.4,107.3z"/>
	<path id="산청군" class="st0" d="M48.3,108.8l-4.2,5.2h-8.2l-4.3-4.3l-5.7-3.5l0.3-8l4.3-3.7l6.9-15.6l2.3-4.3l0.7-5.7l1.1-3.1
		l3.8-5.5l2.5,1.3l1.3,4.3l8.8,3l9,14.6l4.3,0.4l4.9,6.4l0.3,5.3l-4.3,1.8l-1,3.2l-4.8,1l-4.5,5.5l-1.5,3.3h-5.8l-1.3,3.7l-2-0.3
		l-1.2-3.7L48.3,108.8z"/>
	<path id="진주시" class="st0" d="M86.4,133.9l-2.8-3.2l-6.3,2.3l-2.2-2.7l-3.3-1.5l-5.8,2.3l-2.5-6.8l-6.3,0.2l-2.3-3.8l-4-2.5
		l-0.2-4.3l2.3,0.2l1.3-3.7h5.8l1.5-3.3l4.5-5.5l4.8-1l1-3.2l4.3-1.8l3.5,2.2l3.3-3l4,3l-0.7,4.8l2.7,4.2l4.2,1.7l5.8-0.2l2.2,1.2
		l4.5,7.2h3l3.4,2.3l-1,8.8l-1.5,2.5l-13.5-0.5l-4.3,1.8l-2.5,3.8l3.2,1.8l-3.5,3.3l-4.5-2.8L86.4,133.9z"/>
	<path id="고성군_1_" class="st0" d="M78.9,160.9l4.8-10.3l2.7-0.5l-1.2-5.2l3.7-2.3v-2.2l3.2-3.3l-2.8-1.8l2.5-3.8l4.3-1.8
		l13.8,0.3l-0.3,1l4.1,1.5l3.6,3l3.4,0.6l1.8,1.8l-2.6,0.8l-5.2,1.3l-2,3.5l-1.5,4l4-4l2.2-2l2.8-0.2l3-2.3l1.8-0.7l-1.7,3.3
		l3.7,2.7l-0.2,4l-5.7,1.5l-3.3-0.7l-0.2,1.3l4,1.5l-6,1.8l-2.3,2.8l-4,1.8l-2.3-2.7l-2.5,2.2l-1.8,5.5l-3-0.3l-1.8-4.7l-6.5,0.3
		l-0.3,5.7h-6.5h-2.7l-3.5-1.3L78.9,160.9z"/>
	<g id="거제시">
		<path class="st0" d="M133.1,160.9l4.7,2.7l3.5-2l3.2,2.5l-3.2-5.7l2.5-4.7l3,0.2l3-3.2l1.8-3.7l0.3-3.5l5.2-0.2v2.5l-3.2,2.7
			l0.5,4.7l2.8,1.5l0.3,5.5l-2.2,4.8l2,3.2l3.2-2.8l0.3,3.2l-1.8,2.2l0.5,1.8l-3.2,0.2l-0.8,2.8l3.5,1.5l2,3.5l-2.8-0.2l-2.5-2.3
			l-5.2,0.2l0.3,3l-2.7,1.8l0.3,4.5l3.8,1.5l-1.5,2.2l-3-1l-2,0.3l1.5,2.3l-5.8,1.5l-1.7-1l2-3.2l-0.7-1l-1.5-2l0.5-3l-3.2,0.7
			l-0.2-2.8l3.3-2.7l1.8-3.3l-2.8-4.2l-3.2,2l-4,1.5l-1.2,1.5l-0.8-2.7l-2.7-2l-0.3-5l3.7-4.2L133.1,160.9z"/>
		<path class="st0" d="M133.1,152.8l-1.8,1.3l0.2,4c0,0,3.3,1.2,3.3,0.2s0-3,0-3l-1.2-0.2l-0.5-2.7"/>
	</g>
	<path id="사천시" class="st0" d="M55.6,126.3l-4-0.5c0,0-2.2,1.8-1.7,2s3.7,3.7,3.7,3.7l-0.5,3.7l1.7,4.5l0.8,5.8v3.3l3.7,3.8
		l1.5-1.7l4.2,0.3l2-4l-4.5-3.3l2.2-1.8l2.3,2.2l1.2-5.7l4-3.5l-2.2,6.8l-0.5,4.3l2,1l-2.7,3.3l1.8,1.5l-2.2,4l3.8,4.2l6.2,2.8
		l0.2-2.2l5.2-10.3l2.7-0.5l-0.7-5.2l3-3l0.2-1.5l-4.5-2.8l2-3.3l-2.8-3.5l-6.3,2.3l-1.8-2.3l-3.7-1.8l-5.3,2l-3.3-6.3h-6
		L55.6,126.3z"/>
	<path id="하동군" class="st0" d="M15.1,98.1l-5,4.5l1.8,3.2l4.8,6.3l-0.7,8.2l8.5,7.7l0.7,6l5,4l1.3,2.7l2.7,1.2l1.3,5.5
		l1.8-0.2l-0.7,3.8l-2.3,2.3l1.8,4l5.7,0.8l2.8-1.8l1.2,1.7l5.8-1.5l2.7-4.7v-4.7l1.3-0.5l-1-7l-1.7-4.5l0.5-3.7l-4.2-4l2.2-1.7
		l4,0.2l1.5-1.3l-2.3-3.8l-4-2.5l-0.2-4.3l-0.8-3.8l-1.5-1.3l-4.2,5.2l-8.2-0.5l-4.3-3.8l-5.7-3.5l0.3-8l-9.8-1.3L15.1,98.1z"/>
	<g id="남해군">
		<path class="st0" d="M55.6,162.9l-1.8-3.5l-4-1.3l-3.8,2.3c0,0,0.7,3.3,0.2,3c-0.5-0.3-2.8-0.2-2.8-0.2l-0.7,5.3l-2.2,2.5l2.8,6.3
			l2.2,6.2l-0.2,3.7l-1,1.7l4.5,3.3l4.2-0.3l0.2-4.8l3.3-2.2l2.8,0.8v6.3l3,3.3l4.3-2l2.8,2.8l2.2-1.3l-1.5-2.5l2.8-3.7l-0.7-4.7
			l0.3-4l-1.7-2.8l-3.2-1l-5.2,1.2l-4,2.5l-1.2-3l-2.7-3.3l-1.8-6l2.8-2.8L55.6,162.9z"/>
		<path class="st0" d="M68.8,161.8l-4.5,0.8l-3.7,5.5l1.5,5.8h8l4,1.2l-1.3-3.7l0.8-3.2l-4-2.8l-1.8,4.3l-0.5-3.7l1.2-2L68.8,161.8z
			"/>
	</g>
	<g id="통영시">
		<path class="st0" d="M122.9,165.1l-3.5,3.5l-3.7,2.2l-1.2,2.8l2.8,0.8l2.7,0.7l1.8-2.5l1.8-4l1.7-1.7L122.9,165.1z"/>
		<path class="st0" d="M111.9,173.1l-2.7,1l1,4.3l5.7,6l4.3-5.3l-4.8-1.8L111.9,173.1z"/>
		<path class="st0" d="M127.1,178.9l-2.3,2.3l2,5.2l2.2-2.3L127.1,178.9z"/>
		<path class="st0" d="M124.9,189.9l-1.5,4.8l2.8-2.7L124.9,189.9z"/>
		<path class="st0" d="M122.1,153.8l-2.2,2.8l0.2,4l-1,4.8l-3,4l-2.3-2.5l-2.2,1.8l-6.5-2.7l0.2-2.5l5.8-0.5l-1.7-4.7l4-1.8l2-3.2
			l6.3-1.5L122.1,153.8z"/>
		<path class="st0" d="M93.3,171.4h-6.2l3.3,4.3l2.2-2.5L93.3,171.4z"/>
		<path class="st0" d="M96.3,175.4l-4.2,0.8l5.2,5l3-2.2L96.3,175.4z"/>
		<path class="st0" d="M98.1,204.3l-2.3,0.3l0.5,3.5l4.2-0.5L98.1,204.3z"/>
		<path class="st0" d="M88.3,194.1l-1.3,2.3l3.3,2l1-2.2L88.3,194.1z"/>
	</g>
</g>
</svg>
