<?xml version="1.0" encoding="utf-8"?>
<!-- Generator: Adobe Illustrator 21.1.0, SVG Export Plug-In . SVG Version: 6.00 Build 0)  -->
<svg version="1.1" id="Layer_1" xmlns="http://www.w3.org/2000/svg" xmlns:xlink="http://www.w3.org/1999/xlink" x="0px" y="0px"
	 viewBox="0 0 509 716.1" style="enable-background:new 0 0 509 716.1;" xml:space="preserve">
<style type="text/css">
	.st0{fill:#B9B9B9;stroke:#FFFFFF;}
</style>
<g id="인천광역시">
	<g id="강화군">
		<path class="st0" d="M91.5,14.9L81.3,7.8l-2.2,1.8h-2.8l-4.2,4.2l0.8,7.3l-2,0.7l0.5,4.8l5.8,5.3l0.2,4.3l-4,2.8l2.3,4.5l10.3,1.3
			l5.3,0.8l5.5-3.5l-0.8-2.5l-2.8-3l1.3-3l-1.5-3.5l0.8-3l-1.7-3.8l1.3-3.2L91.5,14.9z"/>
		<path class="st0" d="M84.6,52.8l-3.2,3l3.3,1.3l1.2-2.8L84.6,52.8z"/>
		<path class="st0" d="M68.3,19.8l-4.2,1L63,26.1l-1.7,0.3l7,5.7l0.2,4.5l4.3-0.5l2-4.7l-5.3-5.2L68.3,19.8z"/>
		<path class="st0" d="M69.8,12.8l-4.3,5.2l-3.8-0.5l-5,2.7l-2.5-4l1.3-2.8l0.3-2.3l3.3-1.5l4.3,0.8l5,1.2L69.8,12.8z"/>
	</g>
	<path id="계양구" class="st0" d="M118.3,45.1l-1.5,2l-3.6-0.1l1.8,2l0.6,2l0.6,0.8l-3,2.7l0.7,1.6l8.8-0.3l0.6-4.8l3-4l-0.6-0.5
		l-5.8-0.6L118.3,45.1"/>
	<path id="부평구" class="st0" d="M113.3,58.1l1.1,2l-1,3.3l1.8,2l1.8-1.9l4.8,2l1.6-0.8l-2.6-2.3l-0.1-4.3l1.9-1.6v-0.8
		l-8.8,0.3L113.3,58.1z"/>
	<path id="서구" class="st0" d="M113.5,63.1l-2.7-0.3l-3-2.3V59l-3-0.4l0.1-2.8l4.3-0.7l-6.2-0.6l-0.4-4.6L99,45.7l7.4-3.3
		l2.5-4.5l9.5,7l-1.8,2.3l-3.2-0.3l1.5,2l0.6,2l0.8,0.8l-3.4,2.6l0.8,1.7l-0.6,2.3l1.1,1.8L113.5,63.1z"/>
	<path id="연수구" class="st0" d="M115.9,70.9l-3.6-0.9l-6.3,0.8l1.4,2.3l3.3,2.8L115.9,70.9z"/>
	<path id="남구" class="st0" d="M108,70.3l-0.6-2.6l1.2-3.3l2.3-1.8L113,63l1.8,2.1l0.4,3.6l0.6,2.3l-3.3-1L108,70.3z"/>
	<path id="남동구" class="st0" d="M110.7,75.8l5.2-4.8l-0.6-2.3l-0.2-3.3l1.8-1.9l4.8,2l1.6-0.8l1.7,1.3l-6.3,11.9l-5.4-0.2
		L110.7,75.8z"/>
	<path id="동구" class="st0" d="M108.5,65l-2.4-1.4l-2.9-2.2l2-1.3l1.4-1.4l1.1,0.3l0.3,1.5l2.5,2.3l-1.8,1.6L108.5,65z"/>
	<g id="중구_1_">
		<path class="st0" d="M91.3,53.8l-1.5,1.5l-1.2,3.8l-6.8,0.3l0.7,2.7l-2.8,2l4.5,6l4.7-2.5l2.5-3.5l3.7-1l4.8-1.8l-2.7-4.3
			L91.3,53.8z"/>
		<path class="st0" d="M82.5,73.6l2.5,2.7l1.3-2.3l-2.2-0.8L82.5,73.6z"/>
		<path class="st0" d="M106,70.8l-1.8-1.1l-0.2-2.1l-1.4,1.2l-1.1-0.9l0.1-2.1l1.4-1.9l0.2-2.3l1.2,0.6l2.2,2.1l2.1,0.9l-1.1,3.1
			l0.8,2.4L106,70.8z"/>
	</g>
	<g id="옹진군">
		<path class="st0" d="M85.5,93.6L82,95.8l0.2,5.8l2.5,1l2.8-2.3l1.2-1.5l2.7-0.5l-1.5-2.8L85.5,93.6z"/>
		<path class="st0" d="M40.6,95.4l-1.2,3.5l-0.8,4.7l3,0.7l2,1.5l2.3-0.7l2.2-2.5l-3.3-3.2l-2.5-1.3L42,95.8L40.6,95.4z"/>
		<path class="st0" d="M69,97.3l-5.3-2l0.2,2.3l5.2,3.3l2.7-2.3L69,97.3z"/>
		<path class="st0" d="M15.9,54.2l4-1.8l-2.3-2.5l-4.5-0.3l-3,1.3l-3.8-0.3l-0.8,1l2,2.8l1.3,2.5l3.5,0.3l3.3,1l-0.3-2.5L15.9,54.2z
			"/>
		<path class="st0" d="M16.6,68.9l-1.8-1l-2.5,2.3l-1.8,1l2.3,2.5l3-0.5l0.8-2.3V68.9z"/>
		<path class="st0" d="M39.6,71.7l-3.3-0.3l-0.3,1.8l3,1.5v-1.5L39.6,71.7z"/>
	</g>
</g>
</svg>
