<?xml version="1.0" encoding="utf-8"?>
<!-- Generator: Adobe Illustrator 21.1.0, SVG Export Plug-In . SVG Version: 6.00 Build 0)  -->
<svg version="1.1" id="레이어_1" xmlns="http://www.w3.org/2000/svg" xmlns:xlink="http://www.w3.org/1999/xlink" x="0px"
	 y="0px" viewBox="0 0 500 500" style="enable-background:new 0 0 500 500;" xml:space="preserve">
<style type="text/css">
	.st0{fill:#B9B9B9;stroke:#FFFFFF;}
</style>
<g id="제주특별자치도">
	<g id="제주시_1_">
		<path id="제주시" class="st0" d="M11,49l12.7-11.7l0.3-3.2l4.3-2.8l2.5-3l8.8-0.3l7.3-3.5l7.3-4h10.3l5.7-2.5l6.3-2l8.8-0.3
			l2.8-2.5l9,0.3l2,4.8l6.2,1.7l2.8,0.2l0.5,4l-0.5,3.5l-11.5,5.8l-3.7,0.3L90,37.5h-8.7l-2.7,2.2l-3.5,0.5L70,44l-8.5,0.2l-2.3,2.3
			l-11,0.5l-0.5,3.3l-8.3-1l-6.5,1.2l-9.5,6.7l-2.2,2.7L15,56l-4,1.3L11,49L11,49z"/>
		<path class="st0" d="M114.5,21.3l-1.5,3.2l2,2.3l1.5-1.2l0.8-3.3L114.5,21.3z"/>
	</g>
	<g id="서귀포시">
		<path class="st0" d="M13.2,61.3l-2.2-4l4-1.3l6.2,3.8l2.2-2.7l9.2-6.8l6.3-1l8.8,1l0.5-3.3l11-0.5l2.3-2.3L70,44l5.2-3.8l3.5-0.5
			l2.7-2.2H90l3.2-3.7l4.3-0.5l10.8-5.7l3.2,2.5l1.3,2l-2.3,2.8l1.3,2.2l-4,3.8l-3.3,3.3l-5.8,8l-0.2,3.3L91,56.5L85.5,61
			c0,0-10.7-0.5-11,0s-6,6.3-6,6.3l-4.3-1.5l-11,1.2l-5-0.5H45l-2.7-1.3L40,66.8l-9-0.7l-3.3,2.3l-0.5,3.2l-2.8-0.3l-5.7-6L15,64.5
			L13.2,61.3z"/>
		<path class="st0" d="M24.3,81.7l-0.5,3.5l1.5,0.3l1.3-2.3L24.3,81.7z"/>
	</g>
</g>
</svg>
