<?xml version="1.0" encoding="utf-8"?>
<!-- Generator: Adobe Illustrator 21.1.0, SVG Export Plug-In . SVG Version: 6.00 Build 0)  -->
<svg version="1.1" id="레이어_1" xmlns="http://www.w3.org/2000/svg" xmlns:xlink="http://www.w3.org/1999/xlink" x="0px"
	 y="0px" viewBox="0 0 500 500" style="enable-background:new 0 0 500 500;" xml:space="preserve">
<style type="text/css">
	.st0{fill:#B9B9B9;stroke:#FFFFFF;}
</style>
<g id="전라남도">
	<path id="구례군" class="st0" d="M205.1,56.4l-5.8-0.5v-5l5.3-2.5l-3.5-6l0.3-4.6l6.4-8.6l6.9,0.3l7,4.5l4.3,4.3l2.3,4l4.3,6
		l-0.8,8.8l-1.5,3l-0.8,6l-3,1.3l-4.5,3l-3.3-4.5h-1.8l-4.5-4.3l-3.8-3L205.1,56.4z"/>
	<path id="곡성군" class="st0" d="M176.9,64.6l-0.3-6.2l0.3-3.7l-2-3.2l-3,3.3l-6,0.2l-4-8.3l1.5-2l0.2-6.5l3.6,0.5l8.6-6.6
		l-0.2,3.1l3.1,1.1l2.3-3.9l3.1,3.6l3.9,0.3l4.2,2.7l4.8-3.6l4,2.3l0.3,4l3.4,6.6l-5.3,2.5v5l4.8,0.4l-0.7,6.8l-2.8,3.2l-1.2,4
		l-4.2,0.2l-1.3,4l-6.8-2.3l-4.3-3.5l-3.7-2.5L176.9,64.6z"/>
	<path id="담양군" class="st0" d="M156,64.3l6,3.2l1.3-3.2l-2.5-6.5h2.7l2.3-2.7l-4.3-8.7l1.8-1.7v-6.8l-4.4-1.7l-1.1-3.1
		l2.4-0.6l-0.8-6.4l-3-0.6l-1-2.4l2.5-1.3l0.5-2.8l-1.5-1.3l-1.3-4l-3.8,0.3l-1.8,4.3l-1.8,1.4l-0.3,2.9l-4.1,0.8l-2,1.9l-2.8,1.8
		l-3.5,4.8l1.8,2l-0.8,1.8l-2.3,0.5l-0.2,4.5l2.7,5.8l3.3-2l1.8,1l3,4.7l1.2,4l2,2l3.8,0.3l2.3,2.9l-1.5,1.4l0.3,2.8l0.4,1.3
		L156,64.3z"/>
	<path id="장성군" class="st0" d="M103.2,50.8c0,0-4.5-2-4.7-2.7c-0.2-0.7-0.2-3.7-0.2-3.7l4-3.7l0.7-2.5l1.8-0.5l0.3-2.9
		l3.6-3.9l7.8-2.6l0-4.6l2.5-1.3l1-4.1l-1-2.8l3.5-3.9l5,0l1.8-2.8l3.3,1.7l-0.3,1.6l7,3.9l0.9,3.4l4.5,3.5l-3.2,3.2l-1.7,0.7
		l-3.5,4.7l1.2,2.5l-0.8,1.8l-1.8-0.2l-0.7,5.2l2.7,5.8l-2.8,0.1l-2.6,2.7l-4.9,1.9l-6.3-2.6l-0.5-2.3h-2l-1.8,5.8l-4.4,0.6
		l-3.9,3.8l-2.3-3.6L103.2,50.8z"/>
	<path id="영광군" class="st0" d="M64.5,57.4l7.5-4.3l-2.7,3.5l1,3.3l5.3-2.5l2.3,0.5l5.8-1.5l5.8,0.3l7-1l1.8-7.7l-0.2-3.2
		l4-4.2l0.7-2.5l1.8-0.5l0.3-2.9l-4.4-1.4l-2.9,0.4l0.1,4l-7.5-1.8L90,30.2L87.6,30l-2.4-5.1l1-6.6l-7-0.8l-3.3,3.5v4.5l5.8,5.5
		l-6-2.7l-2,1.2l-1.5,5l-0.3,4.7l-6,1.3l-0.3,5.3l-2.7,0.5l-0.7,5.8l0.5,1.7l-0.5,2.5L64.5,57.4z"/>
	<path id="함평군" class="st0" d="M84.4,81.9l-1.5-3.7l1.2-2.8l-4-2.8l2.2-2.7l-5.8-1.3l-1.5-4.3l-4.5-4.3l5.3-2.5l2.3,0.5
		l5.8-1.5l5,0.3l7.8-1l1.8-7.7l4.7,2.7l1.8,1.7l4.1,6.8l-2.8,1.8l0.5,5.8l-0.3,2.7l-5.2,1l-2.2,3.8L99,81.9l0.8,3.7l-2.3,3.5
		l-2.7-1.5l-3,2l-5.2-2.8l-0.2-4L84.4,81.9z"/>
	<path id="순천시" class="st0" d="M175.4,88.9l-0.2-6.5l0.5-7.3l-0.8-6l2-4.5l6,4l4.3,3.5l6.8,2.3l1.3-4l4.2-0.2l1.2-4l2.8-3.2
		l0.7-6.8l0.9,0.1l4.1,2.3l7.7,7h1.7l3.3,4.5l-2.3,4.8l2.6,4.7l1.3,5.5l-0.5,7.8l3.2,1.9l1,4.3l-0.8,2.7l-4.3,1.2l0.3,5.2l-0.8,2.8
		l-3.3-4l-0.5-2.7l-2.8,1.2l0.2,4.7l-8,1l-2.5,1.2l-5.2-5l-3.8-0.3l-5.8-5.5l-4.2,1.7l-4.5-1.3l0.5-5.2l-2.5-5.7L175.4,88.9z"/>
	<g id="광양시">
		<path class="st0" d="M222.9,92.9l0.5-7.8l-1.3-5.5l-3-4.5l2.8-5l4.5-3l3-1.3l0.8-6l1.5-3l8.6,7.1l0.7,6l5,4l1.3,2.7l2.7,2l1.3,4.7
			l1.8-0.2l-0.7,3.8l-2.3,2.3l-3.2,3.1l-2,0.8l-6.5,7.5h-5.8l-2.8-4.5l-3.5,2.8l-0.8-4L222.9,92.9z"/>
		<path class="st0" d="M246.5,96.4l-2.3,3.3l2.5,1.3l3.5-3L246.5,96.4z"/>
	</g>
	<g id="여수시">
		<path class="st0" d="M233.7,143.6l-3.3-2.5h-2.5v2.3l-3.3-3.8l-1.5-5.7l1.5-1.3l-1.2-3.3l5.7-4.7l-4.3-4l-0.5-4.7l-4.7-0.3
			l1.8-4.7l0.8-2.8l-0.3-5.2l4.3-1.2l3.3,4.5l4.8,4l0.8,3.5l3.7-3.3l3.5-3.7l4.2,0.3l2,1.5l1.7-1.8l2,2.2l-1,4l-0.3,5.7l-2.2,3.3
			l0.5,4.3l-2.3,3.2l-5.3-0.7l-4.2-3.7l-2.3,4l-3.8,2l1,3.2l0.3,2.2l1.8,1.8L233.7,143.6z"/>
		<path class="st0" d="M255.4,150.4l-4.7-0.5l-5.7-5l0.2-3.7l3.5-6l-0.2-5l1-1.5l3,2l-0.7,5.3l3.2,3l-0.8,7.2c0,0,1.8,0.8,1.8,1.3
			S255.4,150.4,255.4,150.4z"/>
		<path class="st0" d="M246,156.3l-3.5,3.2l3.5,0.8l2.5,3l3.8,2.7l1.5-1.7l-2.7-2.3l0.7-1.2l-2.2-3.7L246,156.3z"/>
		<path class="st0" d="M236.2,150.3l-2,2.2l1.2,3.3l3.8-0.7v-2.2L236.2,150.3z"/>
	</g>
	<path id="화순군" class="st0" d="M129,106.8l4.8-3.5l1.8-9.8l2.8-5.2l-3-5l2.3-6.7l0.3-4l2.8-1l3.8,2.7l1-1.5l3.6-1.7l4-6.2
		l2.6-0.7l6,3.2l1.3-3.2l-2.5-6.5h2.7l2.3-2.7l6-0.2l3-3.3l2,3.2l-0.3,3.7l0.3,6.2l-2,4.5l0.8,6l-0.5,6.5l0.2,7.3l-5.3,2.2l-7.3,6.8
		v6.3l-1.7,3.5l-1.8,3.3l-10-0.2l-1.5-1.7l-4.8,3.7l-3.8-3.5l-1.5-4.8l-3.7,2.2L129,106.8L129,106.8z"/>
	<path id="나주시" class="st0" d="M88.2,96.9l3.3,5.3l2.8,4.8l1.8-5.5l2.5-3.3l3.5,0.3l1.7,4.2l3.7,0.5l1.8,1l0.2-5.7l-1.2-3.3
		h3.3l3.8,5.2l0.3,3.8l4.5-1.8l4.3,2.7l4.3,1.7l4.8-3.5l1.8-9.8l2.8-5.2l-3-5l2.3-6.7v-3.5l-6,1.1l-3.3,2.4l-5.1,0.2l-2.2-1.8
		l0.5-1.8l-3-4.3l-8.3,0.2l-3.2-1.7l-0.8,2.2l-5.2,1l-2.2,3.8L99,81.1l0.8,4l-2.3,4l-2.7-1.5l-3,2l-0.5,2.5l-0.2,2.8l1.7,3.5
		l-2.5-1.7L88.2,96.9z"/>
	<g id="무안군">
		<path class="st0" d="M67.5,84.9l2.2,2.2l1.3-0.7l0.8,3.3l1.3,2.8l0.5,6.3l1.5,1.3l-2,3.2l1.5,3.8l0.3,2l3,1.2l2,3.2l1.5,0.8l0.7,4
			l3,1.8l2.3,1.8l2.5-4.2l3.3-4.7l1-6.2l-5.7-10l1.7-0.3l2.5,1.7L91,95.3l0.8-5.7l-5.2-2.8l-0.2-4l-2.7-1.5l-1-3l1.2-2.8l-2.2-1.3
			L80,76.3l-2.8,2l-0.8,4.2l-1.7-2l-1.3-1.3l-1,2.8l-1.8,1.2L67.5,84.9z"/>
		<path class="st0" d="M67.5,61.1l-4,3L59,62.8c0,0-4.3,0.5-4.3,1s-0.3,4.7-0.3,4.7L54,70.3l-6.7-1.7l-3.2,2l1.5,3.8l5.7,1.3l0.5,4
			l0.8,3.3l5-2.7l-0.8-3.7l2.5-0.2l1.7,2.8l2.5-3v-4.5h1.7l1.5-4l1-3.3L67.5,61.1z"/>
		<path class="st0" d="M69.2,72.3l-2.5,0.8l-1.3,3.8l3,2.7l3.3-1.7l3.2-0.3v-3.7l-3.2-2.2l-1,2.8L69.2,72.3z"/>
		<path class="st0" d="M66.7,89.4c-0.5,0-2.8-0.7-2.8-0.7l-2-0.2l-1,3.2l5.2,5.8l0.8,1.8c0,0,3-3.2,3-3.7s0-4.3,0-4.3l-1-2.8
			L66.7,89.4z"/>
	</g>
	<path id="목포시" class="st0" d="M73.4,111.3l-2.3,2.7l-2.2,3.2l3.3,3.2l5.2-1l2.3-0.2l2.7-0.3l-0.8-4.3l-1.5-0.8l-2-3.2
		l-2.5-1.2L73.4,111.3z"/>
	<path id="영암군" class="st0" d="M71.7,127.3l5.2-0.7l3.7,1.5l5.7-0.8l6.5,7.8l12.2,1.3l3.8-2.5l1.3-3.8l-2-3l6.3-4l3.5,0.8
		l4.7-5h4l0.2-6.2l5.3-2.7l1.8-3.3h-4.3l-4.8-1.7l-4.3-2.7l-4.3,1.3l-0.2-3.8l-4.2-4.7h-3.3l1.2,3.3l-0.2,5.3l-1.8-0.7l-3.7-0.5
		l-1.7-4.2l-3.5-0.3l-2.2,2.7l-2.2,6.2l-1,6.2l-5.8,8.8l-5.2-3.3l-1,1.7l-4.8,0.8l-4.7,0.7l0.2,2.2l-2.3,2L71.7,127.3z"/>
	<path id="보성군" class="st0" d="M157.5,141.6l5-4.2l4.5-4.2l2.7,1.3l5.8-1.3l3.8-7.5l3.2-4.2l1.7-2.5l6.3-3.7h2.5l2.2-1.7
		l7.3,4.8l1.7-3.2l-5.3-3.3l5.5,0.2l-5.2-5h-3.7l-6-5.5l-4.2,1.3l-4.7-1.7l0.7-4.8l-3-6l-3-1.7l-4.7,2l-8,7v6.3l-3.5,6.8l-2.8-0.2
		l-2.7,7.5l1.7,2.8l-1.5,2.3v4.3l-5,4.7l0.7,2.8l6,0.5L157.5,141.6z"/>
	<g id="고흥군">
		<path class="st0" d="M166.5,157.9l0.8-6.7l4.5-3l3.5-6l3-1.5l-1.7,4l-1.2,5.3l4.5,0.3l3.3-5.2l-1.7-4.8v-6.2l4.3-3.7l2,1.3
			l0.5,5.8l5.7-0.3l0.7-5.3l-0.3-4.3l-1.2-3.3l-4,2.5l-4,0.2l-2.3-6.2l1.2-1.8l6.3-3.7h2.5l2.2-1.7l7.3,4.8l-0.5,1.8l1.8,1.5
			l-0.3,2.8l-3.2,2l1.5,3.7l3.8,2.5l2,2.5l0.3,1.8l6.8,2.5l-1.8,2l4,3.2l-1.5,6.3l-6.2,0.7c0,0-5.3-0.8-5.3-0.2
			c0,0.7,0.2,3.7,0.2,3.7l3.7,0.3l-0.7,6.7l-4.5,1.7l-0.2,3l-6.3-0.3l-2.5,3.5l-5-2.5l-2.3-2.7l2-5l-5.3-0.5l-5.2-0.5l-4.7,1.8
			l-6-0.7L166.5,157.9z"/>
		<path class="st0" d="M178,165.8h-5.3l-4.2,1.2c0,0-2.8-1.2-3-0.2s-0.5,5.3-0.5,5.3l4.7,3.8l8-0.5l2-3.2l1-4L178,165.8z"/>
		<path class="st0" d="M213.7,162.1l-3.5,1.2l-0.3,3l5-0.7l1.8-1.3L213.7,162.1z"/>
		<path class="st0" d="M217.4,169.4l-5-0.7l-1.5,2l6.5,4.5l1.2,2.2l2.7-4L217.4,169.4z"/>
	</g>
	<path id="장흥군" class="st0" d="M132.2,146.1l3.5-0.5l-1-6.7l-1.8-3.3v-5.2l-4.2-5.7l-2.2-5.8l0.2-6.2l5.3-2.7l1.8-3.3l3.7-2.2
		l1.5,4.8l3.8,3.5l4.8-3.7l1.5,1.7h7.2l-2.7,7.5l1.7,2.8l-1.5,2.3v4.3l-4.7,4.2l0.3,3.3l6,0.5l2,5.7l-2.8,3.5l-6-0.5l-0.2,1l3.2,1.8
		l-1.2,3.3l-0.7,1.8l2,0.8l-1.3,4l-4,2l2.2,2.8l-0.8,3.5l2.2,2.3l-4.3,2.2l-2.5-2.2v3.7l-7.7-0.8l2,3.8l-6.5-2.2l0.5-10l5-5.7
		l-0.8-5L132.2,146.1z"/>
	<path id="강진군" class="st0" d="M116.7,170.6l2.3-1.8l-0.8-1.8l2.2-2c0,0,1.2-7.8,1.2-9.2c0-1.3,0.7-11.2,0.7-11.2l2-1.5
		l-1.3,2.8l0.8,5.3l1.7,2.5v13l1.8,2l3.8,3.8l0.5-10l5-5.7l-0.8-5l-3.5-5.8l3.5-0.5l-1-6.7l-1.8-3.3v-5.2l-4.2-5.7l-2.2-5.5h-4.3
		l-4.3,5l-3.5-1.2l-6.3,4l2,3l-1.3,3.8l2.7,1.5l1.5,3l-0.7,3.8l0.8,1.5l-3.2,5.7l2.2,5l-2.5,3.8l1.5,1.7l0.3,8.8l3.7,0.3
		L116.7,170.6z"/>
	<path id="해남군" class="st0" d="M65.7,126.9l-5.2-3.3l-2.2,6l-3.2,2.7v9.2l3.2,1.7v3.3l3.7,4.2l0.2,1.5l9.3,2.7l0.8,3.3
		l4.5-2.5l4.2,4.2l1,3.5l0.5,7.2l-1.3,1.7l3.8,4.2l3.7-2.7l-0.8,4.3c0,0-2.8,1.3-3,2.2c-0.2,0.8-1.7,7-1.7,7l4.3-0.3l0.8,4.2
		l0.7,5.3l4.8-4.2l6,0.8l-0.2-6.3l2.3-1.8l-1.7-3.7l5.2-3l6.2-3.8l3.7-1.2l1.3-2.5l-1.3-1l-4-0.8l-0.3-8.8l-1.5-1.7l2.5-3.8l-2.2-5
		l3.3-6l-1-1.2l0.7-3.8l-1.5-3l-2.7-1.5l-3.8,2.5l-10.2-0.8l0.3,3.5l7,4l-5.2,0.8l-3.7-3l-3.2-0.5l-0.2,3.8l-5.8-2.7l-5.5-4l2.7-4.5
		l-2.7-0.3l-1,1.7l-3.2-1.7l-1.7,0.3l0.2,3l-0.2,4.7l3.7-0.8l2,2.8l4.8,3.5l-1.3,3.8l-7-3.7l-4.2-1l-1.8-7.2l-2.2-4.7l0.8-3.2
		l-1.5-1.2L65.7,126.9z"/>
	<g id="진도군">
		<path class="st0" d="M54.7,150.3l-1.7,3.5l2.8,1.2l0.7,3.7c0,0-5.3,0.5-5.8,0.5s-0.7,2.7-0.7,2.7l-1.3,2.3l-2.3-1.7l-1.2,4
			l-6.7,4.5l-4.2,4.3l3,5.8l3.3,1.5l-0.3,2.3l6.7,0.8l6.8-2.5l6-4.2l4.5-2.5l-0.2,1.7l4.7-5.5l-0.5-4.7l3.5-2l-1-3.8l-6.5-5.7l-3-1
			l-0.2-1.8L54.7,150.3z"/>
		<path class="st0" d="M27.9,193.3l-0.8-1.2l-3.2,4.7l4,2l5.7-0.2l-0.2-4.5l-2.7-0.2L27.9,193.3z"/>
	</g>
	<g id="완도군">
		<path class="st0" d="M105.9,181.1l5.1-0.6l5.1,2.5l0.8,4.8l4.4,5.3l0.9,4l-4.4-0.3l-5.4-0.3l-3.8-4.6l-2.8-1.1V181.1z"/>
		<path class="st0" d="M129.4,173.9l-3.4,1l-4.9,3.3l-1.3,3.5l1.8,1.4l2.5,1.1l4.5-2.3l4.6-2.1l-3.4-1.9l1.3-1L129.4,173.9z"/>
		<path class="st0" d="M129.6,187l-1.8,1.6l-3.8-0.6l-1.3,3.3l5.1,1.6l2.3,0.3l1.1,2.8l3.1-2.3l2.5-0.6l0.4-2.3l-2.3-1.6l-1.1-1.4
			h-3.3L129.6,187z"/>
		<path class="st0" d="M136.1,209.5l-2.6,1.6l-1,4.9l2.9,1.3l7.3-0.1l-0.5-3.1l-2.1-1l-0.6-3.3L136.1,209.5z"/>
		<path class="st0" d="M93.8,206.7l-0.8,4l1.9,3.5c0,0,6.5,0.1,6.5-0.4s-0.6-2.3-0.6-2.3l1.3-1.5l-2-2.6l-3.1-0.4L93.8,206.7z"/>
		<path class="st0" d="M93.6,215.4l-3.9-1.3l-2.3,2.5l0.1,4.4l3.8,1.5l3.3-2.6l3.1-3L93.6,215.4z"/>
		<path class="st0" d="M106.5,212l-1.8,2.5l2.8,0.4l2.3-0.8l-1.1-1L106.5,212z"/>
		<path class="st0" d="M104.8,217.9l-0.8,3.6l2.1,2.8l1.4-2.5l0.4-3.5l-1.9-0.5L104.8,217.9z"/>
		<path class="st0" d="M155.5,183c0,0-2.8-0.4-2.8,0.5s0.9,4.1,0.9,4.1s2.8,2.8,2.9,3.3s0,4.3,0.5,3.5s4.1-4.1,4.1-4.1l3.8-1.6
			c0,0-3.4-4-3.8-4s-2.5,2.3-2.5,2.3L155.5,183z"/>
	</g>
	<g id="신안군">
		<path class="st0" d="M31.7,95.3l-1.2,2.8l-4.3-0.2l-3.7,2.5l-2.8,4.3l-2.3,0.5l9,2l4,2l4.3-3.8l1.2-4l-2.5-2.7L31.7,95.3z"/>
		<path class="st0" d="M20.4,116.3l-5.5,4l-5.2-0.3l-1.3,8l3,2.2l3.7-1.7v-3.2l5-1.5l2-6L20.4,116.3z"/>
		<path class="st0" d="M16.9,127.9l-1.2,2l-4.8,1.3l1.3,3.8l5.7,3.5l2.8-2.8l3-2.5l-0.5-4.7l-2.8,1.8L16.9,127.9z"/>
		<path class="st0" d="M28,138.4l-3.3,4.7l-0.8,4.2l1,3.7l2.5,1.3l2.5-2.7l-1.7-3l-0.8-3.7l1.5-2L28,138.4z"/>
		<path class="st0" d="M34,146.4l-2.5,1.8l2.2,4l-3.7,3l-1.8,0.8l2,1.2l-0.7,2.5l3-2.5l2.7-3l1.5-3.7l-2-2.2L34,146.4z"/>
		<path class="st0" d="M42.9,115.1l-2.3,1.5l-5.7,0.7l3.7,2.5l2.7,1.5l2.7-2.3L42.9,115.1z"/>
		<path class="st0" d="M42,124.3l-2.8-1.3l-3.3-1.7l-0.8,5.5l0.8,6.3l4.3-1.5l4.7-3.2L42,124.3z"/>
		<path class="st0" d="M38.5,105.6l-0.8,1.8l-3.5,1.7l-1.2,2.5l3.3,2.5l1.2-2.8l2.7-0.8l-0.2-2l1.5-2.3L38.5,105.6z"/>
		<path class="st0" d="M41.2,136.3l-3.5,3.3l2.5,4.2l3.3-2l0.8-3.2L41.2,136.3z"/>
		<path class="st0" d="M61.5,98.4l-2,0.8l1.7,2.7l-1.3,1.3l-2.5,2.2l-4,2l4.2,1.7l2.5-1l5.8,1.7l-0.7,2.7l3.7-0.8l0.3-3.5l-3.7-1
			l-2.2-0.5l1.2-3.2l2.7-0.8l-2.7-2.5L61.5,98.4z"/>
		<path class="st0" d="M41.7,62.9l-6,2.7l-3.8,4.3c0,0-4.5,2.3-4.2,2.8s2.3,4,2.3,4l5.7-0.3l2-4.5l0.2-3.7l3.7-3.7L41.7,62.9z"/>
		<path class="st0" d="M39.9,82.1l-3.5,2.5l3.5,0.7l0.5,6c0,0-3,2.3-2.2,2.5c0.8,0.2,5.8,0.2,5.8,0.2l0.3-4.3l-0.7-3.7L39.9,82.1z"
			/>
	</g>
</g>
</svg>
