<?xml version="1.0" encoding="utf-8"?>
<!-- Generator: Adobe Illustrator 21.1.0, SVG Export Plug-In . SVG Version: 6.00 Build 0)  -->
<svg version="1.1" id="레이어_1" xmlns="http://www.w3.org/2000/svg" xmlns:xlink="http://www.w3.org/1999/xlink" x="0px"
	 y="0px" viewBox="0 0 500 500" style="enable-background:new 0 0 500 500;" xml:space="preserve">
<style type="text/css">
	.st0{fill:#B9B9B9;stroke:#FFFFFF;}
</style>
<g id="전라북도">
	<path id="무주군" class="st0" d="M163.2,52.6l1.3-3.3l-3.7-4.5v-3l-3-6.5l1-8.2l10,5.8l1.7-4.5l-1.7-4.2l2.2-2.2l3.7,4.2
		l2.7-2.7l3,4.8l5.7,1.2l1.2,2.3l10.2-3.3l3.8,1.8l0.5,3.3l5.2,7.3l-4.2,3l0.2,3.8l-3,0.8l-2,4.5l-7,4.8l-6.5,0.8l-1.8,5.8l-3.1,1.8
		l-4.5-3.3l-4.8-0.5l-0.7-3.3l-2.3-5.5L163.2,52.6z"/>
	<path id="진안군" class="st0" d="M124.8,68.3l4.8-8.7l2.5-7.7v-4.2l2-0.5l0.5-8.7l-1.7-1.7l3-2.5l1.7-6.8l3.7,4.2l1.2,0.3
		l2.2-2.3l3.8,5.8l9.5-0.7l2.8,6.8v2.7l3.7,4.5l-1.3,3.7l4,0.8l2.7,5.8l-2.3,0.2l-1.3,4.5l-1.8,1.5l-6-1.5l-3,2l0.3,7l-4.8,5
		l-1.2,6.5l0.8,3.8l-0.5,4l-5,0.3l-0.8-2.2l-3-1.5l-4.5-2.8l-5.3-0.3c0,0-3.8-0.2-3.8-1.3s0.2-7.3,0.2-7.3l-3-4.7L124.8,68.3z"/>
	<g id="전주시">
		<path class="st0" d="M98,61.8l-0.2-4.2l-3.7-1.5l-1.7-1.5l-2.7-3.8l2.3-1l3.2,0.7l4-0.8h8l3.7,7.2l4.7-0.5l2.2,5.2l1.7,0.7l-1.2,2
			l-6-0.3l-2.8-3.3l-5.2-0.5l-1.7-1l-1.7,1L98,61.8z"/>
		<path class="st0" d="M99,68.1l-0.5-3.5l0.3-1.5L98,61.8l4.7-2.8l1.7,1l5.2,0.5l2.8,3.3l6,0.3l-4.5,4.7l-3.7-0.2l-2.5,3.5l-5.8,1.2
			l-0.7,2.3l-3.7-3.3l0.7-2.2L99,68.1z"/>
	</g>
	<g id="완주군">
		<path class="st0" d="M112.5,75.8l-5.5,4.7l-0.2,6.2l-0.2,3.2l-5.7,6l-0.2-9.7l-2.7-2.2l2.5-7.8l1.2-2.8l5.8-1.2l2.5-3.5l3.7,0.2
			l3.2-3.2l2.5-3.5l-1.7-0.7l-2.2-5.2l-4.7,0.5l-3.7-7.2h-8l-4,0.8L95,46.9l4-0.2l3.3-4.8l0.8-7.3l3.3-2.5l-0.8-4l1-3l-1-2.2
			l2.7-2.8h7l2.2-1.8l4.6,1.2l0.8-4.1l4,1.6l4.7-3.7l3.3,2.7l2.2,9.7l1.3,2.2l-2.3,6.7l-2.7,2.8l1.3,1.3l-0.5,8.7l-1.5,0.2l-0.5,4.5
			l-2.5,7.7l-4.8,8.7l-3.8,4.2l0.7,2.2l0.8,2.7l0.5,5l-1.5,0.2l-2.8-2.7l-2.3-0.8l-1.7-2.8L112.5,75.8z"/>
		<path class="st0" d="M89.8,59.1l2.2-4.8l2.2,1.8l3.7,1.5l0.3,3.5l0.7,2l-0.3,1.5l0.5,3.5l-2.5-1l-4.3-2.3L89.8,59.1z"/>
	</g>
	<path id="익산시" class="st0" d="M86.7,49.1l-3-1.2H72c0,0,5-8.3,5-8.8s2.2-6.7,2.2-6.7l-4.8-4.2l-1.2-4.2l1.2-2.5l0.3-6.4
		l2.3-3.9l4.8,0.1l3.1-1.1l2.8,1.1l5.2,0.8l3.3-1.1l3.3,9.3l6.3,2.6l1,2.2l-1,3l0.8,4l-3.3,2.5l-1,7.7l-3.3,4.2L95,46.9l0.2,3
		l-3-0.2l-2.3,1L86.7,49.1z"/>
	<path id="장수군" class="st0" d="M136.2,103.3l2.3-3l0.5-6l6-1.7l5-0.3l0.5-4l-0.8-3.8l1.2-6.5l4.8-5l-0.3-7l3-2l6,1.5l1.8-1.5
		l1.3-4.5l2.3-0.2l0.3,2.7l4.8,0.8l5,3.7l-3.9,3.4l-1.5,9.8l-2.4,2.2l-2.6,5.8l2,5.8l-2.4,2.1l-1.1,3.7l-2.6,2.3l-2,3.3l0.3,6.7
		l-2.7,4.2l-4.7-0.3v-4l-6-5.5l-3.5-0.3l-4.7-2.2l-1,1.8L136.2,103.3z"/>
	<path id="남원군" class="st0" d="M114.3,136.7l2.9-4l2.1-4.9l3.4-0.4l0.5-3.1l3.8-0.8l3.5-5.1l-0.8-3.3l0.8-2.4h5.8l-0.9-3.1
		l-1.3-1.9l-0.4-3.3l2.8-1l4.9,1.5l1-1.8l4.4,2.3l3.8,0.2l5.6,5.5l0.4,4l4.7,0.3l2.7-4.2v-7l1.7-3l3.8,4.4l3.8,6.8l-1.8,3l1,3.6
		l3.4,1.6L174,126l-4.9,4.4l-0.6,3.9l2.1,3.6l-6.3,5.3l-4.3-4.3l-7-4.5l-6.9-0.3l-6.4,8.6l-4.5-2.3l-5.3,3.4l-4.1-2.5l-3.5-0.3
		l-3.1-3.6l-2.3,3.9l-3.1-1.1L114.3,136.7z"/>
	<path id="임실군" class="st0" d="M112,118.2l-3.8-0.6l-1.9-5.5l-4.9-1.5v-2.8l2.4-2.1l-2.4-2.1l-0.1-4.8l1.6-1.6l-1.5-2l5.2-5.5
		l0-9.2l5.8-4.8l2.2,0.3l1.7,2.8l2,1l3.2,2.5l1.2-0.5l-0.2-4.7l-1.5-4.8l3.5-3.6l0.2,3.6l3,4.7l-0.1,7.8l2.6,0.9l6.5,0.4l7.5,4.3
		l0.8,2.2l-5.7,1.4l-0.8,6l-2.5,3.6l-2.4,1l0.4,3.3l1.3,1.9l0.9,3.1h-5.8l-0.8,2.4l-8.6,0.5l-3.1-0.9l-1.5-1.6l-2.8,2l-0.8,2.9
		L112,118.2z"/>
	<path id="순창군" class="st0" d="M71.1,115.6l10.3-0.4l0.4-4.3l-0.3-2.6l5.4-4.6l2.5,2.1l2.9-0.9l4.9,5.6h4.4l4.9,1.5l2.3,5.5
		l4.4,0.5l0.8-2.9l2.8-2l1.5,1.6l3.1,0.9l8.6-0.5l0.8,3.3l-3.9,5.3l-3.4,0.6l-0.5,3.1l-3.4,0.4l-1.9,4.5l-3.1,4.4l-8.8,7l-8.1-2.5
		l-1.1-3.1l2.4-0.6l-0.8-6.4l-3-0.6l-1-2.4l3-1.3V124l-1.5-1.3l-0.9-4.1l-4.3,0.5l-1.8,4.3l-1.8,1.4l-0.3,2.9l-4.1,0.8l-3.8-3.9
		l-0.9-3.4l-3.5-2.1l-3.5-1.8L71.1,115.6z"/>
	<path id="정읍시" class="st0" d="M75.1,72.1l-0.8,1.4l0.4,0.9l-2.6,2.1l-6,1.6l2.9,2.8l-1.1,2.4L60,83.6l-5,3.5l-1.5,6.3
		l1.3,7.8l2,0.4l2.5-0.9v3.9l0.3,3.3l1.6,0.8l-1.1,3.4l1,5.4l5-0.1l1.5-3.1l3.6,1.6l10.3-0.4l0.4-4.3l-0.4-2.3l5.5-5l2.5,2.1
		l2.9-0.9l4.9,5.6h4.4v-2.8l2.4-2.1l-2.4-2.1l-0.1-4.8l1.6-1.6l-1.9-2.5l-0.3-8.6l-2.5-2.5l-1.9,2.3l-4.3-0.5l-3.1-3.1l-0.8-2.8
		l-3-2.4l-3.6,0.8l-2.4-3.8L75.1,72.1z"/>
	<path id="김제시" class="st0" d="M61,64.7L51,59l3.8-4.1l3-0.8l4.3,1.1l2.3-4.3l5.9-3h2.5l11.1,0l3,1.2l3.2,1.7l2.2,3.5
		l-2.2,4.8l2.3,5.7l7.2,3.2l-1.6,3.9l3,3.6l-2.4,7.6l-1.9,2.8l-4.3-0.5l-3.1-3.1l-0.8-2.8L85,77.2l-3.3,0.6l-2.4-3.8l-4.3-2
		l-0.8,1.4l0.4,0.9l-2.6,2.1l-6,1.6l-4.6-6.5L60.1,67l1.5-1L61,64.7z"/>
	<path id="부안군" class="st0" d="M48,101.7l-4.8-5.5l-10,0.9l-5,2.5l-7.6-6.3l0.3-4.3l10.5-6.5l3.5-0.5l6.8-7.5l0.8-9.5l10.5,1
		l6.9,2.6l1.8,2.4l4.6,7l3.3,3l-1.5,2.1L60,83.6l-4.9,3.1l-1.3,6.1l0.9,8.3L48,101.7z"/>
	<path id="고창군" class="st0" d="M17.2,122.2l7.4-13.1l7.5-3.3l6.3-0.1l4.1-3.5l5.3,1.3l0.3-1.8l6.8-0.6l1.5,0.5l3-1l0.6,6.9
		l1.3,1l-0.9,3l0.8,5.3l-3.9,4.1l1.4,2.5l-1,4.1c0,0-2.3,1.1-2.4,1.6s-0.1,4.3-0.1,4.3l-7.8,2.6l-3.6,3.9l-4.4-1.4l-2.9,0.4l0.1,4
		c0,0-7.4-1.4-7.5-1.8s-0.5-5.9-0.5-5.9l-2.4-0.2l-2.4-5.1l1-6.6L17.2,122.2z"/>
	<g id="군산시">
		<path class="st0" d="M60.8,50.8l5-3.2l6.2,0.3l5-8.8l2.2-6.7l-4.8-4.2l-1.2-4.2l-6.1,4.6L60.5,29l-3.6,4l-3.5,0.5l-3.2-0.3
			L49,35.4l-13.3,1.7L34,38.9l-1.8-1l0.5,2.8l5.3,2l2.8,1.7v6.8l7,0.5l2.3-0.8l3.5,0.3l1.2,1.2l2-0.7L60.8,50.8z"/>
		<path class="st0" d="M13.7,60.1l-0.5,5l3-1.5L13.7,60.1z"/>
	</g>
</g>
</svg>
