<svg height="344" version="1.1" width="294" xmlns="http://www.w3.org/2000/svg" style="overflow: hidden; position: relative; left: -0.5px;"><desc style="-webkit-tap-highlight-color: rgba(0, 0, 0, 0);">Created with Raphaël 2.1.0</desc><defs style="-webkit-tap-highlight-color: rgba(0, 0, 0, 0);"></defs><rect x="0" y="-1" width="294" height="346" r="0" rx="0" ry="0" fill="#b0cbe6" stroke="none" id="배경" style="-webkit-tap-highlight-color: rgba(0, 0, 0, 0);"></rect><path fill="#f6f8fb" stroke="none" d="M37.574,334.386C36.949999999999996,334.386,36.354,334.12,35.936,333.65700000000004L31.014,328.196C30.24,327.33700000000005,30.264,326.01500000000004,31.069,325.185L39.079,316.924C39.512,316.477,40.062,316.167,40.668,316.02799999999996L64.79599999999999,310.48999999999995C64.958,310.453,65.12299999999999,310.43399999999997,65.28899999999999,310.43399999999997C65.88599999999998,310.43399999999997,66.46499999999999,310.681,66.87799999999999,311.10999999999996L72.18299999999999,316.62199999999996C72.87799999999999,317.34399999999994,72.99799999999999,318.44599999999997,72.476,319.30099999999993L67.499,327.4459999999999C67.184,327.96199999999993,66.663,328.3299999999999,66.07,328.4539999999999L38.02499999999999,334.3389999999999C37.878,334.37,37.725,334.386,37.574,334.386ZM88.65,295.599C87.31200000000001,295.599,86.10000000000001,294.756,85.635,293.501L81.683,282.852C81.552,282.49899999999997,81.32000000000001,282.19899999999996,81.01,281.984L73.18400000000001,276.53299999999996C71.95300000000002,275.67499999999995,71.47900000000001,274.102,72.03300000000002,272.70699999999994L81.84800000000001,247.99199999999993C82.09300000000002,247.37599999999992,81.98500000000001,246.67299999999994,81.56800000000001,246.15699999999993L76.26600000000002,239.61099999999993C75.49100000000001,238.65399999999994,75.33200000000002,237.31599999999995,75.86200000000002,236.20399999999992L92.83700000000002,200.55799999999994C93.13700000000001,199.92799999999994,93.05000000000001,199.16899999999993,92.61600000000001,198.62399999999994L88.05000000000001,192.88499999999993C87.60500000000002,192.32599999999994,87.45800000000001,191.58199999999994,87.659,190.89499999999992C87.85900000000001,190.2079999999999,88.38300000000001,189.6599999999999,89.05900000000001,189.42699999999994L92.70000000000002,188.17599999999993L83.24500000000002,151.16199999999992C83.04700000000003,150.38899999999992,82.38000000000002,149.83499999999992,81.58400000000002,149.78299999999993L77.75000000000001,149.53299999999993C76.88600000000001,149.47699999999992,76.06900000000002,149.06599999999992,75.50900000000001,148.40699999999993L69.04200000000002,140.79799999999992C67.91000000000001,139.46699999999993,68.05900000000001,137.44799999999992,69.37400000000001,136.2969999999999L85.19500000000001,122.43899999999991C85.78200000000001,121.92499999999991,86.534,121.64199999999991,87.31400000000001,121.64199999999991C87.72000000000001,121.64199999999991,88.11800000000001,121.7179999999999,88.49600000000001,121.8669999999999L100.162,126.4789999999999C100.834,126.7449999999999,101.403,127.2359999999999,101.76400000000001,127.8609999999999L104.02700000000002,131.7769999999999C104.17400000000002,132.0319999999999,104.44900000000001,132.1909999999999,104.74300000000001,132.1909999999999C104.843,132.1909999999999,104.94200000000001,132.1729999999999,105.037,132.13599999999988L106.86500000000001,131.43999999999988L95.31200000000001,113.08199999999988C94.98400000000001,112.56099999999988,94.88900000000001,111.92199999999988,95.05000000000001,111.32899999999988C95.21200000000002,110.73499999999989,95.61800000000001,110.23299999999988,96.16400000000002,109.94999999999987L100.15300000000002,107.88499999999988C100.42500000000003,107.74399999999987,100.59200000000001,107.47699999999988,100.59900000000002,107.17099999999988C100.60700000000001,106.86499999999988,100.45300000000002,106.58999999999988,100.18800000000002,106.43599999999988L93.88700000000001,102.77599999999988C93.01900000000002,102.27199999999988,92.42900000000002,101.37599999999988,92.30900000000001,100.37899999999988L90.794,87.75L83.749,88.032L83.65899999999999,88.03399999999999C82.532,88.03399999999999,81.58999999999999,87.18799999999999,81.46799999999999,86.067L80.12199999999999,73.65799999999999L47.341,62.22C46.762,62.018,46.255,61.657,45.875,61.175L36.397,49.152C36.18,48.877,35.89,48.67,35.559999999999995,48.555L9.057,39.308C8.216000000000001,39.014,7.5280000000000005,38.378,7.171,37.562C6.814,36.745999999999995,6.812,35.809,7.167000000000001,34.992L22.389,-1.078000000000003L169.363,-1.0790000000000028L178.877,18.956999999999997L235.394,117.237C235.663,117.705,235.811,118.237,235.822,118.776L237.126,184.58999999999997C237.135,185.09199999999998,237.562,185.402,237.951,185.402C238.045,185.402,238.13899999999998,185.385,238.231,185.35299999999998L242.243,183.921C242.487,183.834,242.738,183.79,242.99099999999999,183.79C243.677,183.79,244.33599999999998,184.123,244.754,184.68099999999998C245.172,185.23899999999998,245.29899999999998,185.94599999999997,245.101,186.61899999999997L229.775,238.83099999999996C229.532,239.65699999999995,228.958,240.36199999999997,228.197,240.76499999999996L213.483,248.57699999999997C213.02100000000002,248.82199999999997,212.499,248.95199999999997,211.975,248.95199999999997C211.86599999999999,248.95199999999997,211.757,248.94699999999997,211.648,248.93499999999997L190.76,246.8C190.731,246.79700000000003,190.703,246.79600000000002,190.67399999999998,246.79600000000002C190.307,246.79600000000002,189.98199999999997,247.04200000000003,189.88099999999997,247.395L186.76199999999997,258.285C186.49199999999996,259.226,185.62099999999998,259.88300000000004,184.64299999999997,259.88300000000004C184.54099999999997,259.88300000000004,184.43799999999996,259.87600000000003,184.33399999999997,259.86100000000005L167.063,257.43000000000006C166.278,257.32000000000005,165.665,256.66600000000005,165.605,255.87500000000006L165.398,253.10500000000005C165.384,252.91800000000003,165.224,252.80700000000004,165.079,252.80700000000004C165.042,252.80700000000004,165.00400000000002,252.81400000000005,164.967,252.82800000000003L147.327,259.322C147.143,259.39,147.119,259.549,147.117,259.615C147.11499999999998,259.68,147.13,259.841,147.31,259.919L151.64600000000002,261.805C152.14300000000003,262.021,152.49900000000002,262.448,152.62300000000002,262.976C152.746,263.504,152.61700000000002,264.044,152.26800000000003,264.458L145.11300000000003,272.95500000000004C144.69300000000004,273.45400000000006,144.07900000000004,273.74000000000007,143.42900000000003,273.74000000000007C142.58500000000004,273.74000000000007,141.82700000000003,273.2710000000001,141.45200000000003,272.51700000000005L137.29200000000003,264.15400000000005C137.22700000000003,264.02200000000005,137.10000000000002,263.9750000000001,137.00400000000002,263.9750000000001C136.955,263.9750000000001,136.907,263.9870000000001,136.86100000000002,264.00900000000007L132.044,266.40900000000005C131.93900000000002,266.46100000000007,131.89700000000002,266.54900000000004,131.882,266.59700000000004C131.86700000000002,266.64500000000004,131.848,266.74100000000004,131.90200000000002,266.845L137.532,277.737C138.007,278.656,137.77100000000002,279.79900000000004,136.97,280.456L130.347,285.87800000000004C129.954,286.19900000000007,129.458,286.37600000000003,128.95000000000002,286.37600000000003C128.66000000000003,286.37600000000003,128.377,286.32000000000005,128.108,286.20900000000006L119.62100000000001,282.70400000000006C119.06700000000001,282.4750000000001,118.63900000000001,282.04300000000006,118.41600000000001,281.48600000000005C118.19300000000001,280.93000000000006,118.20400000000001,280.32200000000006,118.44600000000001,279.77400000000006L121.56600000000002,272.71200000000005C121.61300000000001,272.605,121.60700000000001,272.50500000000005,121.54800000000002,272.41400000000004C121.48500000000001,272.31800000000004,121.37700000000001,272.25600000000003,121.27300000000001,272.25600000000003C121.218,272.25600000000003,121.16300000000001,272.273,121.10600000000001,272.307L113.78000000000002,276.69800000000004C113.20800000000001,277.04,112.77300000000001,277.576,112.55400000000002,278.20500000000004L109.89100000000002,285.86800000000005C109.59000000000002,286.73300000000006,108.93300000000002,287.43000000000006,108.08800000000002,287.78100000000006L89.88600000000002,295.3520000000001C89.49,295.515,89.075,295.599,88.65,295.599ZM67.859,293.388C67.25099999999999,293.388,66.664,293.13399999999996,66.249,292.69L64.16499999999999,290.464C63.404999999999994,289.652,63.36999999999999,288.395,64.083,287.543L70.962,279.318C71.382,278.815,71.99900000000001,278.527,72.655,278.527C73.144,278.527,73.607,278.68399999999997,73.995,278.98199999999997L78.411,282.366C79.19800000000001,282.969,79.486,284.032,79.111,284.95L77.24600000000001,289.51599999999996C77.004,290.10699999999997,76.519,290.56399999999996,75.915,290.76899999999995L68.569,293.2699999999999C68.34,293.349,68.101,293.388,67.859,293.388ZM195.979,270.733C195.10600000000002,270.733,194.377,270.082,194.281,269.218L193.747,264.356C193.73100000000002,264.214,193.622,264.098,193.48100000000002,264.074L190.42800000000003,263.559C189.80700000000002,263.454,189.29700000000003,263.01700000000005,189.098,262.41900000000004C188.899,261.82000000000005,189.04700000000003,261.165,189.483,260.708L198.248,251.54300000000003C198.572,251.20400000000004,199.00699999999998,251.01700000000002,199.47,251.01700000000002C200.327,251.01700000000002,201.054,251.65600000000003,201.162,252.50300000000001L202.291,261.391C202.391,262.175,202.19899999999998,262.96500000000003,201.751,263.617L197.371,269.994C197.049,270.464,196.542,270.733,195.979,270.733ZM157.71,270.606C156.965,270.606,156.31400000000002,270.128,156.09,269.417L154.087,263.05199999999996C153.765,262.03099999999995,153.97199999999998,260.921,154.63899999999998,260.08299999999997L157.08299999999997,257.01399999999995C157.40699999999998,256.60699999999997,157.89099999999996,256.37299999999993,158.40999999999997,256.37299999999993C159.07799999999997,256.37299999999993,159.68699999999995,256.7659999999999,159.96199999999996,257.37299999999993L161.84499999999997,261.5439999999999C161.88499999999996,261.6339999999999,161.96699999999998,261.7009999999999,162.06299999999996,261.72399999999993L166.13499999999996,262.69899999999996C166.86999999999998,262.87499999999994,167.40599999999995,263.52699999999993,167.43799999999996,264.28299999999996L167.57399999999996,267.63599999999997C167.60899999999995,268.50699999999995,166.98599999999996,269.25899999999996,166.12399999999997,269.38599999999997L157.95899999999997,270.58799999999997C157.875,270.6,157.792,270.606,157.71,270.606ZM72.293,250.344C71.97300000000001,250.344,71.661,250.254,71.39,250.084L68.694,248.391C68.172,248.063,67.875,247.5,67.9,246.885C67.924,246.26999999999998,68.26400000000001,245.732,68.81,245.446L73.09100000000001,243.203C73.33300000000001,243.076,73.60600000000001,243.00900000000001,73.88000000000001,243.00900000000001C74.04200000000002,243.00900000000001,74.203,243.032,74.35900000000001,243.078L76.337,243.66C76.928,243.834,77.367,244.296,77.51100000000001,244.896C77.65400000000001,245.49599999999998,77.47200000000001,246.106,77.02300000000001,246.528L73.46000000000001,249.881C73.142,250.18,72.729,250.344,72.293,250.344L72.293,250.344ZM81.225,164.362C81.127,164.362,81.02799999999999,164.35399999999998,80.92699999999999,164.33599999999998L78.77099999999999,163.958C78.02899999999998,163.828,77.46899999999998,163.238,77.37699999999998,162.49L76.33399999999997,153.964C76.24499999999998,153.23499999999999,76.63099999999997,152.535,77.29399999999997,152.221L77.99999999999997,151.887C78.22999999999998,151.778,78.47399999999998,151.723,78.72599999999997,151.723C79.49299999999997,151.723,80.16799999999996,152.24,80.36799999999997,152.98000000000002L82.86099999999996,162.21800000000002C82.99999999999996,162.733,82.89399999999996,163.27100000000002,82.56999999999996,163.693C82.246,164.119,81.756,164.362,81.225,164.362L81.225,164.362ZM278.974,105.144C278.36699999999996,105.144,277.873,104.65,277.873,104.043V102.637C277.873,102.03,278.367,101.536,278.974,101.536H280.126C280.594,101.536,281.012,101.833,281.166,102.276L281.393,102.926C281.57,103.437,281.35499999999996,103.995,280.881,104.254L279.503,105.009C279.34,105.097,279.157,105.144,278.974,105.144ZM268.523,102.709C268.329,102.709,268.139,102.676,267.95500000000004,102.611L265.15700000000004,101.62C264.60400000000004,101.424,264.196,100.965,264.06600000000003,100.39200000000001L263.665,98.61200000000001C263.48,97.78500000000001,263.939,96.94000000000001,264.733,96.64600000000002L269.63,94.83000000000001C269.82099999999997,94.75900000000001,270.021,94.72300000000001,270.222,94.72300000000001C271.159,94.72300000000001,271.91999999999996,95.48600000000002,271.91999999999996,96.42300000000002V99.78800000000001C271.91999999999996,100.33400000000002,271.655,100.85000000000001,271.21299999999997,101.168L269.51399999999995,102.38900000000001C269.224,102.598,268.881,102.709,268.523,102.709L268.523,102.709ZM82.883,99.159C82.536,99.159,82.201,99.054,81.916,98.857L79.322,97.06099999999999C78.827,96.71799999999999,78.554,96.154,78.593,95.553C78.632,94.952,78.97500000000001,94.428,79.51100000000001,94.152L86.06200000000001,90.777C86.302,90.654,86.57100000000001,90.58800000000001,86.84100000000001,90.58800000000001C87.18400000000001,90.58800000000001,87.51500000000001,90.69000000000001,87.798,90.88300000000001L90.054,92.41900000000001C90.538,92.74900000000001,90.816,93.296,90.796,93.882C90.77600000000001,94.468,90.462,94.995,89.956,95.29100000000001L83.74300000000001,98.92600000000002C83.481,99.079,83.184,99.159,82.883,99.159L82.883,99.159Z" id="전도" style="-webkit-tap-highlight-color: rgba(0, 0, 0, 0);"></path><path fill="#a1bad4" stroke="none" d="M168.725,-1L178.259,19.113L178.32199999999997,19.223L233.07599999999996,114.438L234.79499999999996,117.428C235.00699999999995,117.79599999999999,235.12199999999996,118.212,235.13099999999997,118.637L236.43499999999997,184.45C236.45199999999997,185.304,237.15599999999998,185.93699999999998,237.94899999999998,185.93699999999998C238.117,185.93699999999998,238.29,185.908,238.46099999999998,185.84799999999998L242.474,184.415C242.648,184.35299999999998,242.822,184.32399999999998,242.98999999999998,184.32399999999998C243.94899999999998,184.32399999999998,244.73499999999999,185.259,244.438,186.26999999999998L237.553,209.72599999999997L231.658,229.80899999999997L229.112,238.48099999999997C228.92,239.13399999999996,228.47299999999998,239.68199999999996,227.87199999999999,240.00099999999998L213.158,247.813C212.79199999999997,248.00699999999998,212.385,248.10799999999998,211.97299999999998,248.10799999999998C211.88699999999997,248.10799999999998,211.802,248.10399999999998,211.71599999999998,248.09499999999997L207.469,247.66099999999997L190.829,245.96099999999998C190.77700000000002,245.956,190.725,245.95299999999997,190.673,245.95299999999997C190.004,245.95299999999997,189.405,246.396,189.217,247.05199999999996L186.098,257.94199999999995C185.91000000000003,258.59999999999997,185.30900000000003,259.04099999999994,184.64200000000002,259.04099999999994C184.57200000000003,259.04099999999994,184.50100000000003,259.03599999999994,184.43000000000004,259.02599999999995L167.15900000000005,256.59499999999997C166.68800000000005,256.529,166.32800000000006,256.14399999999995,166.29200000000006,255.66999999999996L166.08400000000006,252.89999999999995C166.04300000000006,252.35399999999996,165.58600000000007,251.96399999999994,165.07700000000006,251.96399999999994C164.96200000000005,251.96399999999994,164.84300000000005,251.98399999999995,164.72700000000006,252.02699999999993L153.87400000000005,256.0229999999999L147.08800000000005,258.5209999999999C146.23300000000006,258.8359999999999,146.19800000000006,260.0329999999999,147.03400000000005,260.3959999999999L151.37000000000006,262.2819999999999C151.99000000000007,262.5519999999999,152.17600000000007,263.3429999999999,151.74000000000007,263.8599999999999L144.58500000000006,272.3569999999999C144.27800000000008,272.7219999999999,143.85200000000006,272.89699999999993,143.42800000000005,272.89699999999993C142.88200000000006,272.89699999999993,142.34200000000004,272.60599999999994,142.06800000000004,272.0559999999999L137.90800000000004,263.6929999999999C137.73100000000005,263.3379999999999,137.37400000000005,263.13199999999995,137.00200000000004,263.13199999999995C136.85100000000003,263.13199999999995,136.69700000000003,263.16599999999994,136.55200000000005,263.23799999999994L131.73500000000004,265.6379999999999C131.23000000000005,265.8889999999999,131.02900000000005,266.50499999999994,131.28800000000004,267.00699999999995L136.91800000000003,277.89899999999994C137.24700000000004,278.53499999999997,137.08600000000004,279.31499999999994,136.53200000000004,279.768L129.90900000000005,285.19C129.63300000000004,285.416,129.29300000000003,285.533,128.94900000000004,285.533C128.75400000000005,285.533,128.55700000000004,285.495,128.37000000000003,285.418L119.88300000000004,281.913C119.09600000000003,281.588,118.73100000000004,280.678,119.07500000000003,279.90000000000003L122.19500000000004,272.83700000000005C122.51200000000003,272.11800000000005,121.94400000000003,271.41300000000007,121.27200000000003,271.41300000000007C121.10100000000003,271.41300000000007,120.92300000000003,271.45900000000006,120.75100000000003,271.5610000000001L113.42400000000004,275.9510000000001C112.71200000000003,276.37700000000007,112.17300000000003,277.0400000000001,111.90100000000004,277.82400000000007L109.23800000000004,285.4870000000001C109.00200000000004,286.1670000000001,108.48600000000005,286.71400000000006,107.82200000000005,286.99000000000007L89.62000000000005,294.5610000000001C89.30200000000005,294.6930000000001,88.97400000000005,294.7560000000001,88.65100000000005,294.7560000000001C87.62800000000006,294.7560000000001,86.66000000000005,294.1290000000001,86.28100000000005,293.10800000000006L82.33,282.46C82.151,281.977,81.828,281.56,81.405,281.26599999999996L73.578,275.81499999999994C72.61500000000001,275.1449999999999,72.241,273.8999999999999,72.674,272.80899999999997L82.489,248.09399999999997C82.82600000000001,247.24499999999998,82.679,246.28099999999998,82.104,245.57099999999997L76.80199999999999,239.02499999999998C76.189,238.26899999999998,76.06599999999999,237.22699999999998,76.484,236.34799999999998L81.482,225.85199999999998L93.459,200.70199999999997C93.87400000000001,199.82999999999996,93.756,198.79799999999997,93.155,198.04299999999998L88.589,192.30399999999997C87.937,191.48499999999999,88.292,190.26699999999997,89.283,189.92699999999996L93.525,188.46899999999997L83.912,150.83999999999997C83.641,149.77999999999997,82.72000000000001,149.015,81.628,148.944L77.794,148.694C77.112,148.649,76.476,148.32999999999998,76.033,147.809L69.566,140.2C68.672,139.148,68.788,137.57299999999998,69.82600000000001,136.66299999999998L85.647,122.80499999999998C86.116,122.39399999999998,86.71000000000001,122.17899999999997,87.31200000000001,122.17899999999997C87.62500000000001,122.17899999999997,87.94000000000001,122.23699999999998,88.24100000000001,122.35599999999998L99.90700000000001,126.96799999999998C100.43700000000001,127.17799999999997,100.88100000000001,127.55999999999997,101.16600000000001,128.05399999999997L103.42900000000002,131.97099999999998C103.70700000000002,132.45199999999997,104.21400000000001,132.72899999999998,104.74200000000002,132.72899999999998C104.92200000000003,132.72899999999998,105.10500000000002,132.69699999999997,105.28100000000002,132.629L107.89500000000002,131.63299999999998L95.89400000000002,112.56399999999998C95.42100000000002,111.81299999999997,95.69200000000002,110.81799999999998,96.48000000000002,110.40999999999998L100.46900000000002,108.34499999999998C101.53200000000002,107.79499999999999,101.56800000000003,106.28899999999999,100.53400000000002,105.68799999999999L95.71300000000002,102.88799999999999L94.23300000000002,102.02799999999999C93.54700000000001,101.63,93.08800000000002,100.93199999999999,92.99300000000002,100.14399999999999L91.40100000000002,86.883L88.41200000000002,87.002L83.72000000000003,87.19C83.69900000000003,87.191,83.67900000000003,87.191,83.65800000000003,87.191C82.88800000000003,87.191,82.23600000000003,86.611,82.15200000000003,85.83800000000001L80.76,72.998L47.568,61.417C47.114,61.258,46.714,60.974000000000004,46.416,60.596000000000004L36.937999999999995,48.57300000000001C36.63999999999999,48.19500000000001,36.239999999999995,47.91000000000001,35.785999999999994,47.75200000000001L9.284,38.505C7.897,38.021,7.214,36.461000000000006,7.799,35.113L23.007,-1H168.725M86.84,91.125C87.039,91.125,87.238,91.184,87.409,91.3L89.665,92.836C90.27900000000001,93.254,90.247,94.169,89.607,94.544L83.394,98.179C83.236,98.272,83.06,98.31700000000001,82.884,98.31700000000001C82.682,98.31700000000001,82.481,98.257,82.309,98.137L79.715,96.341C79.08800000000001,95.907,79.149,94.961,79.827,94.612L86.378,91.237C86.523,91.162,86.682,91.125,86.84,91.125M270.223,95.259C270.75800000000004,95.259,271.232,95.69200000000001,271.232,96.27V99.63499999999999C271.232,99.96,271.07500000000005,100.26599999999999,270.81100000000004,100.45599999999999L269.112,101.67699999999999C268.93800000000005,101.80199999999999,268.73100000000005,101.86699999999999,268.52200000000005,101.86699999999999C268.40900000000005,101.86699999999999,268.2950000000001,101.84799999999998,268.18500000000006,101.80899999999998L265.38700000000006,100.81799999999998C265.06000000000006,100.70199999999998,264.81500000000005,100.42599999999999,264.73800000000006,100.08699999999999L264.3380000000001,98.30799999999999C264.2270000000001,97.814,264.4980000000001,97.315,264.97300000000007,97.139L269.87000000000006,95.323C269.988,95.279,270.107,95.259,270.223,95.259M280.126,102.072C280.301,102.072,280.457,102.183,280.515,102.348L280.741,102.999C280.80699999999996,103.189,280.726,103.399,280.55,103.49499999999999L279.171,104.24999999999999C279.10699999999997,104.28499999999998,279.039,104.30099999999999,278.974,104.30099999999999C278.759,104.30099999999999,278.562,104.12799999999999,278.562,103.88899999999998V102.48299999999998C278.562,102.25599999999997,278.74600000000004,102.07099999999997,278.974,102.07099999999997H280.126M78.727,152.26C79.167,152.26,79.58,152.54999999999998,79.703,153.00799999999998L82.196,162.24599999999998C82.373,162.90099999999998,81.871,163.51999999999998,81.225,163.51999999999998C81.166,163.51999999999998,81.107,163.515,81.04599999999999,163.504L78.88999999999999,163.126C78.45199999999998,163.049,78.11499999999998,162.695,78.06099999999999,162.25300000000001L77.01799999999999,153.727C76.96499999999999,153.29500000000002,77.195,152.877,77.58899999999998,152.691L78.29499999999999,152.357C78.436,152.291,78.583,152.26,78.727,152.26M73.879,243.545C73.97500000000001,243.545,74.071,243.559,74.164,243.58599999999998L76.142,244.16799999999998C76.89099999999999,244.38799999999998,77.118,245.33799999999997,76.54899999999999,245.87399999999997L72.98599999999999,249.22799999999998C72.79299999999999,249.409,72.544,249.503,72.29299999999999,249.503C72.10799999999999,249.503,71.92099999999999,249.452,71.75599999999999,249.34799999999998L69.05999999999999,247.65499999999997C68.39999999999999,247.23999999999998,68.43799999999999,246.26599999999996,69.12799999999999,245.90399999999997L73.40899999999999,243.66199999999998C73.556,243.584,73.717,243.545,73.879,243.545M199.47,251.554C199.947,251.554,200.409,251.89000000000001,200.47899999999998,252.438L201.60799999999998,261.32599999999996C201.68599999999998,261.941,201.53499999999997,262.56399999999996,201.18399999999997,263.075L196.80399999999997,269.452C196.59699999999998,269.754,196.28599999999997,269.892,195.97899999999998,269.892C195.49999999999997,269.892,195.029,269.558,194.96699999999998,268.991L194.433,264.13C194.384,263.681,194.042,263.319,193.59699999999998,263.24399999999997L190.54399999999998,262.729C189.74399999999997,262.594,189.421,261.62,189.98199999999997,261.034L198.74699999999996,251.869C198.952,251.652,199.213,251.554,199.47,251.554M158.41,256.909C158.786,256.909,159.158,257.115,159.333,257.504L161.216,261.67400000000004C161.345,261.95900000000006,161.598,262.16800000000006,161.90200000000002,262.24100000000004L165.97400000000002,263.21600000000007C166.41400000000002,263.3210000000001,166.73000000000002,263.7060000000001,166.74800000000002,264.1580000000001L166.88500000000002,267.51000000000005C166.906,268.02600000000007,166.53400000000002,268.47600000000006,166.02200000000002,268.55100000000004L157.85700000000003,269.75300000000004C157.80700000000002,269.76000000000005,157.75800000000004,269.76400000000007,157.70900000000003,269.76400000000007C157.27400000000003,269.76400000000007,156.88000000000002,269.4820000000001,156.74600000000004,269.0570000000001L154.74200000000005,262.69200000000006C154.49000000000004,261.89000000000004,154.65200000000004,261.0160000000001,155.17600000000004,260.35900000000004L157.62100000000004,257.29C157.827,257.032,158.119,256.909,158.41,256.909M72.654,279.063C72.976,279.063,73.301,279.16499999999996,73.575,279.376L77.991,282.76C78.534,283.176,78.731,283.904,78.472,284.537L76.607,289.10299999999995C76.441,289.50899999999996,76.107,289.823,75.692,289.965L68.34599999999999,292.46599999999995C68.18599999999999,292.52099999999996,68.02099999999999,292.54699999999997,67.85799999999999,292.54699999999997C67.44599999999998,292.54699999999997,67.04299999999999,292.378,66.75099999999999,292.06699999999995L64.66699999999999,289.84099999999995C64.14399999999999,289.2819999999999,64.11899999999999,288.41999999999996,64.61099999999999,287.83199999999994L71.49,279.6069999999999C71.79,279.249,72.22,279.063,72.654,279.063M65.29,310.971C65.697,310.971,66.093,311.135,66.382,311.436L71.688,316.948C72.166,317.445,72.24900000000001,318.20099999999996,71.889,318.78999999999996L66.91199999999999,326.93399999999997C66.69399999999999,327.291,66.339,327.541,65.92999999999999,327.62699999999995L37.88499999999999,333.51199999999994C37.78099999999999,333.53399999999993,37.67699999999999,333.5439999999999,37.57399999999999,333.5439999999999C37.14999999999999,333.5439999999999,36.73899999999999,333.36499999999995,36.44799999999999,333.04299999999995L31.525999999999993,327.58299999999997C30.991999999999994,326.98999999999995,31.007999999999992,326.085,31.563999999999993,325.513L39.57399999999999,317.25199999999995C39.913999999999994,316.90199999999993,40.346999999999994,316.6569999999999,40.82299999999999,316.54799999999994L64.951,311.00999999999993C65.063,310.983,65.177,310.971,65.29,310.971M169.788,-1.921H168.936L22.84,-1.92H21.936L21.576,-1.091L6.534,34.564C6.103,35.556,6.1049999999999995,36.694,6.539,37.685C6.973,38.676,7.808,39.449000000000005,8.829,39.805L35.331,49.052C35.538000000000004,49.124,35.719,49.253,35.855000000000004,49.425L45.333000000000006,61.446999999999996C45.794000000000004,62.032,46.410000000000004,62.471,47.11300000000001,62.715999999999994L79.483,74.00999999999999L80.783,85.98599999999999C80.943,87.45799999999998,82.179,88.56799999999998,83.659,88.56799999999998C83.69800000000001,88.56799999999998,83.73700000000001,88.56699999999998,83.77600000000001,88.56599999999999L88.46800000000002,88.37799999999999L90.18500000000002,88.30899999999998L90.60700000000001,91.81999999999998C90.55300000000001,91.77599999999998,90.49700000000001,91.73399999999998,90.43900000000001,91.69499999999998L88.183,90.15899999999998C87.78500000000001,89.88799999999998,87.32000000000001,89.74499999999998,86.83900000000001,89.74499999999998C86.46000000000001,89.74499999999998,86.08200000000001,89.83699999999997,85.74500000000002,90.00999999999998L79.19300000000001,93.38499999999998C78.44000000000001,93.77299999999998,77.95800000000001,94.50899999999997,77.903,95.35399999999997C77.848,96.19899999999997,78.23100000000001,96.99099999999997,78.927,97.47299999999997L81.521,99.26899999999998C81.922,99.54699999999998,82.393,99.69399999999997,82.881,99.69399999999997C83.305,99.69399999999997,83.722,99.58099999999997,84.088,99.36699999999998L90.30099999999999,95.73199999999997C90.579,95.56999999999996,90.81499999999998,95.35799999999998,91.00199999999998,95.11099999999998L91.62599999999998,100.30799999999998C91.77099999999997,101.51799999999997,92.48699999999998,102.60699999999999,93.54199999999997,103.21899999999998L95.02199999999998,104.07899999999998L99.84299999999998,106.87899999999998C99.86599999999997,106.89199999999998,99.91399999999997,106.91999999999997,99.91199999999998,107.00199999999998C99.90999999999998,107.08299999999998,99.86099999999998,107.10899999999998,99.83799999999998,107.12099999999998L95.84899999999998,109.18599999999998C95.13199999999998,109.55699999999997,94.59899999999998,110.21699999999998,94.38699999999997,110.99599999999998C94.17499999999997,111.77499999999998,94.29999999999997,112.61399999999998,94.72999999999998,113.29699999999998L105.83499999999998,130.94299999999998L104.79299999999998,131.33999999999997C104.77699999999997,131.34599999999998,104.76099999999998,131.34899999999996,104.74399999999997,131.34899999999996C104.70499999999997,131.34899999999996,104.65399999999997,131.33099999999996,104.62499999999997,131.27999999999997L102.36199999999997,127.36299999999997C101.92299999999997,126.60299999999997,101.23199999999997,126.00699999999998,100.41599999999997,125.68499999999997L88.74999999999997,121.07299999999998C88.29099999999997,120.89199999999998,87.80799999999998,120.79899999999998,87.31499999999997,120.79899999999998C86.36799999999997,120.79899999999998,85.45399999999997,121.14299999999997,84.74199999999998,121.76599999999998L68.92,135.625C67.324,137.023,67.144,139.475,68.517,141.091L74.984,148.70000000000002C75.66499999999999,149.501,76.65599999999999,149.99900000000002,77.705,150.068L81.539,150.318C82.036,150.35000000000002,82.45400000000001,150.697,82.577,151.18L91.875,187.578L88.835,188.623C87.94699999999999,188.928,87.25999999999999,189.648,86.997,190.54999999999998C86.734,191.451,86.926,192.42799999999997,87.511,193.16199999999998L92.077,198.90099999999998C92.348,199.242,92.402,199.71599999999998,92.215,200.10999999999999L80.238,225.26L75.24,235.756C74.597,237.106,74.78999999999999,238.73,75.731,239.892L81.03299999999999,246.438C81.29399999999998,246.76,81.36099999999999,247.2,81.20799999999998,247.58499999999998L71.393,272.3C70.72,273.994,71.295,275.904,72.79,276.945L80.617,282.396C80.81,282.53000000000003,80.955,282.718,81.037,282.939L84.988,293.588C85.553,295.112,87.025,296.13500000000005,88.65,296.13500000000005C89.165,296.13500000000005,89.67,296.03400000000005,90.149,295.83500000000004L108.351,288.264C109.377,287.837,110.175,286.991,110.53999999999999,285.94100000000003L113.20299999999999,278.278C113.36899999999999,277.80100000000004,113.69899999999998,277.39500000000004,114.133,277.13500000000005L120.467,273.33900000000006L117.815,279.3430000000001C117.497,280.06200000000007,117.484,280.86000000000007,117.776,281.5900000000001C118.069,282.3200000000001,118.63,282.8870000000001,119.357,283.18700000000007L127.844,286.69200000000006C128.196,286.83700000000005,128.56799999999998,286.91100000000006,128.94899999999998,286.91100000000006C129.61599999999999,286.91100000000006,130.267,286.67900000000003,130.78199999999998,286.2560000000001L137.40499999999997,280.83400000000006C138.45599999999996,279.97300000000007,138.76699999999997,278.47300000000007,138.14299999999997,277.2660000000001L132.68499999999997,266.7050000000001L136.83899999999997,264.6360000000001L140.83499999999998,272.6700000000001C141.32799999999997,273.6600000000001,142.32199999999997,274.2750000000001,143.42899999999997,274.2750000000001C144.283,274.2750000000001,145.08899999999997,273.9000000000001,145.64,273.2450000000001L152.795,264.7480000000001C153.286,264.1650000000001,153.46699999999998,263.4060000000001,153.29399999999998,262.6640000000001C153.11999999999998,261.9220000000001,152.61999999999998,261.3230000000001,151.921,261.0190000000001L148.42499999999998,259.4980000000001L154.35099999999997,257.3160000000001L156.45599999999996,256.5410000000001L154.09899999999996,259.5000000000001C153.28899999999996,260.5170000000001,153.03799999999995,261.8650000000001,153.42899999999997,263.1060000000001L155.43299999999996,269.4710000000001C155.74799999999996,270.4710000000001,156.66299999999995,271.14300000000014,157.71099999999996,271.14300000000014C157.82699999999997,271.14300000000014,157.94399999999996,271.1340000000001,158.05899999999997,271.11700000000013L166.22399999999996,269.91400000000016C167.43599999999995,269.73600000000016,168.31299999999996,268.67800000000017,168.26299999999995,267.45300000000015L168.12599999999995,264.10100000000017C168.08299999999994,263.0380000000002,167.32999999999996,262.12300000000016,166.29599999999994,261.87500000000017L162.39899999999994,260.9420000000002L160.58999999999995,256.93600000000015C160.28699999999995,256.26600000000013,159.69499999999994,255.78200000000015,159.00099999999995,255.60400000000016L164.74899999999994,253.48800000000014L164.91999999999993,255.77200000000013C165.00299999999993,256.8840000000001,165.86499999999992,257.80400000000014,166.96899999999994,257.9590000000001L184.23999999999995,260.3900000000001C184.37399999999994,260.4090000000001,184.50999999999996,260.4180000000001,184.64399999999995,260.4180000000001C185.92799999999994,260.4180000000001,187.07099999999994,259.5560000000001,187.42499999999995,258.32100000000014L190.54399999999995,247.43100000000015C190.56399999999996,247.36200000000017,190.62599999999995,247.33100000000016,190.67499999999995,247.33100000000016L207.32999999999996,249.03200000000015L211.57699999999994,249.46600000000015C211.70899999999995,249.47900000000016,211.84199999999993,249.48600000000016,211.97399999999993,249.48600000000016C212.60999999999993,249.48600000000016,213.24299999999994,249.32800000000017,213.80499999999992,249.03000000000017L228.51999999999992,241.21800000000016C229.44299999999993,240.72800000000015,230.14099999999993,239.87200000000016,230.43599999999992,238.86900000000017L232.9819999999999,230.19700000000017L238.87699999999992,210.11400000000017L245.76199999999992,186.6580000000002C246.0209999999999,185.7740000000002,245.8549999999999,184.84700000000018,245.30599999999993,184.1130000000002C244.75899999999993,183.3820000000002,243.89399999999992,182.9460000000002,242.99199999999993,182.9460000000002C242.65999999999994,182.9460000000002,242.33099999999993,183.0040000000002,242.01299999999992,183.1170000000002L237.99999999999991,184.55000000000018C237.98299999999992,184.55600000000018,237.96699999999993,184.55900000000017,237.9519999999999,184.55900000000017C237.90599999999992,184.55900000000017,237.81799999999993,184.51900000000018,237.81599999999992,184.42300000000017L236.51199999999992,118.61000000000017C236.4989999999999,117.95500000000017,236.3189999999999,117.30900000000017,235.9929999999999,116.74100000000017L234.2729999999999,113.75100000000018L179.51899999999992,18.536000000000172L179.4759999999999,18.461000000000173L170.1709999999999,-1.1579999999998272L169.788,-1.921L169.788,-1.921ZM270.223,93.88C269.939,93.88,269.659,93.931,269.391,94.03L264.494,95.846C263.377,96.26,262.732,97.44800000000001,262.994,98.61L263.394,100.389C263.576,101.195,264.149,101.841,264.927,102.116L267.725,103.107C267.982,103.198,268.25,103.244,268.52200000000005,103.244C269.02500000000003,103.244,269.50800000000004,103.089,269.91600000000005,102.795L271.61500000000007,101.574C272.23800000000006,101.126,272.61000000000007,100.401,272.61000000000007,99.634V96.27C272.61,94.952,271.539,93.88,270.223,93.88L270.223,93.88ZM280.126,100.694H278.974C277.98699999999997,100.694,277.18399999999997,101.497,277.18399999999997,102.48400000000001V103.89000000000001C277.18399999999997,104.87700000000001,277.98699999999997,105.68100000000001,278.974,105.68100000000001C279.27299999999997,105.68100000000001,279.57,105.60500000000002,279.83299999999997,105.46000000000001L281.212,104.70500000000001C281.98199999999997,104.284,282.331,103.37600000000002,282.043,102.54700000000001L281.817,101.89600000000002C281.567,101.177,280.888,100.694,280.126,100.694L280.126,100.694ZM78.727,150.882C78.372,150.882,78.02900000000001,150.959,77.706,151.112L77,151.446C76.068,151.887,75.525,152.87199999999999,75.65,153.895L76.694,162.42100000000002C76.82300000000001,163.472,77.61,164.30100000000002,78.652,164.484L80.808,164.862C80.94600000000001,164.886,81.08600000000001,164.898,81.22500000000001,164.898C81.97200000000001,164.898,82.662,164.55599999999998,83.11800000000001,163.96C83.57300000000001,163.366,83.72200000000001,162.61,83.52700000000002,161.886L81.03400000000002,152.648C80.754,151.609,79.805,150.882,78.727,150.882L78.727,150.882ZM73.879,242.167C73.494,242.167,73.111,242.261,72.77000000000001,242.44L68.489,244.682C67.72200000000001,245.08399999999997,67.244,245.83999999999997,67.21000000000001,246.70499999999998C67.176,247.57,67.59400000000001,248.361,68.32700000000001,248.821L71.02300000000001,250.514C71.40400000000001,250.75300000000001,71.843,250.88000000000002,72.293,250.88000000000002C72.90400000000001,250.88000000000002,73.486,250.64900000000003,73.93100000000001,250.23100000000002L77.49400000000001,246.87800000000001C78.11600000000001,246.293,78.37900000000002,245.41400000000002,78.18000000000002,244.584C77.98200000000003,243.754,77.35000000000002,243.088,76.53100000000002,242.847L74.55200000000002,242.26500000000001C74.334,242.2,74.107,242.167,73.879,242.167L73.879,242.167ZM199.47,250.176C198.816,250.176,198.205,250.438,197.75,250.915L188.985,260.08C188.372,260.721,188.16500000000002,261.642,188.44400000000002,262.483C188.723,263.324,189.44000000000003,263.939,190.31400000000002,264.086L193.09300000000002,264.555L193.597,269.14C193.73000000000002,270.354,194.75400000000002,271.269,195.979,271.269C196.77200000000002,271.269,197.48700000000002,270.891,197.94000000000003,270.232L202.32000000000002,263.855C202.86300000000003,263.064,203.09600000000003,262.10400000000004,202.97500000000002,261.15200000000004L201.84600000000003,252.26400000000004C201.694,251.074,200.673,250.176,199.47,250.176L199.47,250.176ZM72.654,277.685C71.794,277.685,70.984,278.063,70.43299999999999,278.723L63.553999999999995,286.94800000000004C62.617,288.06800000000004,62.663,289.716,63.660999999999994,290.78200000000004L65.74499999999999,293.00800000000004C66.28999999999999,293.59000000000003,67.05999999999999,293.92400000000004,67.85799999999999,293.92400000000004C68.17599999999999,293.92400000000004,68.49,293.872,68.791,293.76900000000006L76.137,291.2680000000001C76.93,290.9980000000001,77.566,290.3980000000001,77.883,289.6230000000001L79.74799999999999,285.05700000000013C80.24,283.85200000000015,79.86299999999999,282.4570000000001,78.829,281.66500000000013L74.413,278.2810000000001C73.904,277.891,73.296,277.685,72.654,277.685L72.654,277.685ZM65.29,309.592C65.07300000000001,309.592,64.855,309.61699999999996,64.643,309.66499999999996L40.513999999999996,315.203C39.778,315.37199999999996,39.11,315.748,38.583999999999996,316.291L30.573999999999998,324.552C29.517999999999997,325.641,29.485999999999997,327.377,30.502,328.504L35.424,333.964C35.972,334.572,36.756,334.92,37.574,334.92C37.772999999999996,334.92,37.973,334.899,38.168,334.858L66.213,328.973C66.991,328.81,67.67399999999999,328.327,68.088,327.649L73.065,319.505C73.751,318.383,73.593,316.937,72.681,315.989L67.375,310.477C66.832,309.916,66.072,309.592,65.29,309.592L65.29,309.592Z" id="전도_테두리" style="-webkit-tap-highlight-color: rgba(0, 0, 0, 0);"></path><path fill="#d7f1b9" stroke="none" d="M31.526,327.735L36.448,333.195C36.81,333.596,37.357,333.775,37.885,333.664L65.93,327.779C66.33900000000001,327.693,66.694,327.442,66.912,327.086L71.88900000000001,318.942C72.24900000000001,318.354,72.16600000000001,317.597,71.68800000000002,317.1L66.38200000000002,311.588C66.01300000000002,311.204,65.47000000000001,311.043,64.95100000000002,311.16200000000003L40.822,316.7C40.347,316.80899999999997,39.913000000000004,317.054,39.573,317.404L31.563000000000002,325.665C31.008,326.238,30.992,327.143,31.526,327.735Z" id="제주" style="-webkit-tap-highlight-color: rgba(0, 0, 0, 0);"></path><path fill="#d7f1b9" stroke="none" d="M206.566,241.501C206.052,241.885,205.836,242.55100000000002,206.026,243.16400000000002L207.46900000000002,247.81400000000002L211.716,248.24800000000002C212.214,248.299,212.716,248.20100000000002,213.15800000000002,247.966L227.872,240.154C228.473,239.835,228.92000000000002,239.287,229.11200000000002,238.634L231.65800000000002,229.962L227.644,225.73399999999998L206.566,241.501Z" id="부산" style="-webkit-tap-highlight-color: rgba(0, 0, 0, 0);"></path><path fill="#c1e3ff" stroke="none" d="M222.383,206.416C221.842,206.292,221.27700000000002,206.474,220.90900000000002,206.89L215.532,212.976L227.644,225.734L231.65800000000002,229.96200000000002L237.55300000000003,209.87900000000002L222.383,206.416Z" id="울산" style="-webkit-tap-highlight-color: rgba(0, 0, 0, 0);"></path><path fill="#d7f1b9" stroke="none" d="M157.621,257.443L155.17600000000002,260.512C154.65200000000002,261.169,154.49,262.044,154.74200000000002,262.845L156.746,269.21000000000004C156.895,269.68300000000005,157.366,269.97900000000004,157.857,269.90600000000006L166.022,268.70400000000006C166.533,268.6290000000001,166.90599999999998,268.18000000000006,166.885,267.66300000000007L166.748,264.3110000000001C166.73,263.8590000000001,166.41299999999998,263.4750000000001,165.974,263.3690000000001L161.902,262.39400000000006C161.59799999999998,262.3210000000001,161.345,262.1120000000001,161.21599999999998,261.82700000000006L159.33299999999997,257.65700000000004C159.022,256.968,158.092,256.852,157.621,257.443ZM198.746,252.02L189.981,261.185C189.421,261.771,189.744,262.745,190.543,262.88L193.596,263.395C194.042,263.46999999999997,194.383,263.832,194.43200000000002,264.281L194.966,269.14300000000003C195.068,270.074,196.273,270.377,196.804,269.605L201.184,263.228C201.535,262.717,201.686,262.094,201.608,261.479L200.479,252.59099999999998C200.371,251.747,199.333,251.405,198.746,252.02ZM206.566,241.501L227.644,225.735L215.532,212.977L189.18900000000002,212.174L183.76100000000002,212.008L175.25100000000003,211.74800000000002C174.43200000000004,211.723,173.78100000000003,211.05200000000002,173.78100000000003,210.23300000000003V205.24000000000004C173.78100000000003,204.66700000000003,173.45800000000003,204.14300000000003,172.94600000000003,203.88600000000002L156.61,195.66800000000003L146.98100000000002,203.61800000000002C146.49200000000002,204.02200000000002,146.17200000000003,204.59500000000003,146.086,205.223L142.27800000000002,232.98700000000002L153.87400000000002,256.177L164.72700000000003,252.181C165.35700000000003,251.949,166.03400000000002,252.38400000000001,166.08400000000003,253.054L166.29200000000003,255.824C166.32800000000003,256.298,166.68800000000002,256.683,167.15900000000002,256.749L184.43,259.18C185.179,259.285,185.89100000000002,258.823,186.09900000000002,258.096L189.21800000000002,247.20600000000002C189.42000000000002,246.50000000000003,190.09900000000002,246.04100000000003,190.829,246.115L207.469,247.815L206.02599999999998,243.165C205.836,242.552,206.052,241.885,206.566,241.501Z" id="경남" style="-webkit-tap-highlight-color: rgba(0, 0, 0, 0);"></path><path fill="#c1e3ff" stroke="none" d="M191.652,207.401C191.96699999999998,206.791,192.652,206.46900000000002,193.32199999999997,206.615L195.80499999999998,207.156C196.46299999999997,207.299,197.13699999999997,206.991,197.45899999999997,206.4L202.63499999999996,196.894C202.77999999999997,196.627,202.84199999999996,196.322,202.81199999999995,196.019L202.22399999999996,190.08700000000002C202.16699999999997,189.51200000000003,201.78799999999995,189.019,201.24599999999995,188.817L197.28399999999996,187.33700000000002C196.85899999999995,187.17800000000003,196.38499999999996,187.21800000000002,195.99199999999996,187.44600000000003L187.12099999999995,192.59900000000002C186.71999999999994,192.83200000000002,186.44699999999995,193.23600000000002,186.38199999999995,193.69500000000002L183.76199999999994,212.00900000000001L189.18999999999994,212.175L191.652,207.401Z" id="대구" style="-webkit-tap-highlight-color: rgba(0, 0, 0, 0);"></path><path fill="#c1e3ff" stroke="none" d="M244.438,186.424L237.553,209.88L222.383,206.416C221.842,206.292,221.27700000000002,206.474,220.90900000000002,206.89L215.532,212.976L189.18900000000002,212.173L191.65200000000002,207.401C191.967,206.791,192.65200000000002,206.46900000000002,193.322,206.615L195.805,207.156C196.463,207.299,197.137,206.991,197.459,206.4L202.635,196.894C202.78,196.627,202.84199999999998,196.322,202.81199999999998,196.019L202.22299999999998,190.08700000000002C202.166,189.51200000000003,201.78599999999997,189.019,201.24399999999997,188.817L197.28099999999998,187.33700000000002C196.85599999999997,187.17800000000003,196.37999999999997,187.21800000000002,195.98699999999997,187.44600000000003L187.11099999999996,192.59900000000002C186.70999999999995,192.83200000000002,186.42899999999997,193.23600000000002,186.36299999999997,193.69500000000002L183.75999999999996,212.00900000000001L174.85899999999995,211.74900000000002C174.03999999999996,211.72400000000002,172.99799999999996,211.05300000000003,172.99799999999996,210.23400000000004V205.24100000000004C172.99799999999996,204.66800000000003,173.06599999999997,204.14400000000003,172.55399999999997,203.88700000000003L156.44799999999998,195.66900000000004L158.271,194.23000000000005C158.80399999999997,193.79000000000005,159.012,193.04600000000005,158.72,192.42000000000004L156.083,186.72200000000004L160.833,185.05400000000003C161.59,184.78800000000004,162.18,184.17800000000003,162.415,183.41100000000003L165.113,174.61800000000002C165.382,173.74000000000004,164.816,172.82600000000002,163.909,172.67800000000003L157.803,171.68000000000004C156.992,171.54800000000003,156.434,170.79300000000003,156.546,169.97900000000004L158.35299999999998,156.76200000000003C158.42499999999998,156.23900000000003,158.219,155.71600000000004,157.80999999999997,155.38200000000003L154.47899999999998,152.66400000000004C153.78799999999998,152.10100000000006,153.731,151.06600000000003,154.35399999999998,150.42900000000003L166.48399999999998,138.03800000000004C166.944,137.56800000000004,167.569,137.29600000000005,168.22699999999998,137.27900000000005L183.111,136.90900000000005C183.83599999999998,136.89100000000005,184.518,136.56300000000005,184.983,136.00700000000006L197.279,121.35700000000006L224.224,120.94600000000005C224.78099999999998,120.93700000000005,225.319,120.74500000000006,225.756,120.39900000000006L233.077,114.59200000000006L234.796,117.58200000000005C235.00799999999998,117.95000000000005,235.123,118.36600000000006,235.132,118.79100000000005L236.436,184.60400000000004C236.457,185.63900000000004,237.48600000000002,186.35000000000005,238.461,186.00200000000004L242.47400000000002,184.56900000000005C243.64,184.152,244.787,185.235,244.438,186.424ZM270.107,95.411C270.64200000000005,95.411,271,95.84400000000001,271,96.422V99.78699999999999C271,100.112,270.959,100.41799999999999,270.695,100.60799999999999L269.054,101.829C268.88,101.954,268.702,102.01899999999999,268.493,102.01899999999999C268.38,102.01899999999999,268.28,101.99999999999999,268.17,101.96099999999998L265.379,100.96999999999998C265.052,100.85399999999998,264.81,100.57799999999999,264.73400000000004,100.23899999999999L264.336,98.46C264.225,97.966,264.497,97.467,264.97200000000004,97.291L269.812,95.475C269.929,95.432,269.991,95.411,270.107,95.411M280.017,102.067C280.192,102.067,280.403,102.25699999999999,280.461,102.422L280.71500000000003,103.112C280.781,103.30199999999999,280.71400000000006,103.53099999999999,280.53700000000003,103.628L279.165,104.393C279.101,104.428,278.75600000000003,104.449,278.69,104.449C278.475,104.449,278,104.28099999999999,278,104.042V102.636C278,102.40899999999999,278.746,102,278.974,102H280" id="경북" style="-webkit-tap-highlight-color: rgba(0, 0, 0, 0);"></path><path fill="#d7f1b9" stroke="none" d="M108.524,236.277C108.174,235.855,107.624,235.65499999999997,107.084,235.753L96.32900000000001,237.718C95.73200000000001,237.827,95.257,238.28199999999998,95.123,238.874L93.846,244.50799999999998C93.693,245.18499999999997,94.018,245.879,94.637,246.194L99.838,248.84199999999998C100.11,248.981,100.41799999999999,249.034,100.72099999999999,248.99399999999997L108.499,247.98199999999997C108.89,247.93099999999998,109.246,247.72999999999996,109.491,247.42099999999996L112.771,243.28699999999998C113.217,242.72599999999997,113.208,241.92899999999997,112.751,241.37699999999998L108.524,236.277Z" id="광주" style="-webkit-tap-highlight-color: rgba(0, 0, 0, 0);"></path><path fill="#d7f1b9" stroke="none" d="M69.129,246.056L73.41000000000001,243.81400000000002C73.64200000000001,243.692,73.91300000000001,243.66600000000003,74.16400000000002,243.74L76.14200000000001,244.322C76.891,244.542,77.11800000000001,245.493,76.549,246.02700000000002L72.986,249.38100000000003C72.65100000000001,249.69600000000003,72.146,249.74600000000004,71.756,249.50100000000003L69.06,247.80800000000002C68.4,247.392,68.438,246.418,69.129,246.056ZM64.612,287.985L71.491,279.76C72.012,279.137,72.931,279.03499999999997,73.576,279.529L77.99199999999999,282.913C78.535,283.329,78.73199999999999,284.056,78.47299999999998,284.69L76.60799999999999,289.256C76.442,289.662,76.10799999999999,289.976,75.69299999999998,290.118L68.34699999999998,292.61899999999997C67.78299999999999,292.811,67.15899999999998,292.655,66.75199999999998,292.21999999999997L64.66799999999998,289.99399999999997C64.144,289.434,64.12,288.572,64.612,287.985ZM116.396,232.754C115.739,232.748,115.161,232.32,114.964,231.694L113.1,225.785C112.922,225.222,112.434,224.813,111.84899999999999,224.738L100.204,223.231C99.609,223.154,99.02499999999999,223.435,98.714,223.948L93.841,231.97400000000002C93.401,232.698,92.454,232.92100000000002,91.737,232.47000000000003L81.484,226.00700000000003L76.484,236.5C76.065,237.379,76.189,238.42,76.80199999999999,239.177L82.10399999999998,245.72299999999998C82.67899999999999,246.433,82.82599999999998,247.397,82.48899999999999,248.24599999999998L72.67399999999999,272.962C72.24099999999999,274.05199999999996,72.61599999999999,275.29699999999997,73.57799999999999,275.96799999999996L81.40499999999999,281.419C81.82799999999999,281.71299999999997,82.14999999999999,282.13,82.32999999999998,282.613L86.28099999999998,293.262C86.77999999999997,294.606,88.29599999999998,295.267,89.61999999999998,294.716L107.82199999999997,287.145C108.48699999999998,286.86899999999997,109.00199999999998,286.322,109.23799999999997,285.642L111.90099999999997,277.979C112.17299999999997,277.195,112.71199999999997,276.53299999999996,113.42399999999996,276.106L120.75099999999996,271.716C121.59699999999997,271.209,122.59299999999996,272.089,122.19499999999996,272.991L119.07499999999996,280.054C118.73099999999997,280.83299999999997,119.09599999999996,281.743,119.88299999999997,282.068L128.36999999999998,285.573C128.88599999999997,285.786,129.47699999999998,285.698,129.90899999999996,285.34499999999997L136.53199999999995,279.92299999999994C137.08599999999996,279.46899999999994,137.24699999999996,278.68999999999994,136.91899999999995,278.0539999999999L131.28899999999996,267.1619999999999C131.02999999999997,266.66099999999994,131.23099999999997,266.0449999999999,131.73599999999996,265.7929999999999L136.55299999999997,263.3929999999999C137.05299999999997,263.1439999999999,137.65999999999997,263.3479999999999,137.90799999999996,263.8479999999999L142.06799999999996,272.2109999999999C142.55399999999995,273.1879999999999,143.88199999999995,273.3469999999999,144.58499999999995,272.5119999999999L151.73999999999995,264.0149999999999C152.17599999999996,263.4979999999999,151.98999999999995,262.7069999999999,151.36999999999995,262.4369999999999L147.03399999999993,260.5509999999999C146.19799999999992,260.1879999999999,146.23299999999995,258.9909999999999,147.08799999999994,258.6759999999999L153.87399999999994,256.1779999999999L142.27799999999993,232.9879999999999L116.396,232.754ZM112.772,243.287L109.492,247.421C109.247,247.73,108.891,247.93099999999998,108.5,247.982L100.722,248.994C100.419,249.033,100.11099999999999,248.98,99.839,248.842L94.638,246.19400000000002C94.02000000000001,245.87900000000002,93.694,245.18500000000003,93.84700000000001,244.508L95.12400000000001,238.87400000000002C95.25800000000001,238.282,95.733,237.82700000000003,96.33000000000001,237.71800000000002L107.08500000000001,235.75300000000001C107.62400000000001,235.65400000000002,108.17500000000001,235.85500000000002,108.525,236.27700000000002L112.753,241.37800000000001C113.209,241.929,113.217,242.726,112.772,243.287Z" id="전남" style="-webkit-tap-highlight-color: rgba(0, 0, 0, 0);"></path><path fill="#d7f1b9" stroke="none" d="M158.763,192.419L156.106,186.721L146.329,187.83100000000002L137.561,188.82700000000003C137.13,188.87600000000003,136.699,188.73800000000003,136.377,188.44800000000004L129.63,182.38600000000002C128.94299999999998,181.76900000000003,127.975,181.57600000000002,127.103,181.88200000000003L119.30099999999999,184.62400000000002C118.80899999999998,184.79700000000003,118.26199999999999,184.705,117.85399999999998,184.38000000000002L112.70699999999998,180.282C112.25099999999998,179.919,111.62699999999998,179.84900000000002,111.10199999999998,180.104L93.52699999999997,188.621L89.28499999999997,190.079C88.29499999999997,190.419,87.93899999999996,191.637,88.59099999999997,192.45600000000002L93.15699999999997,198.19500000000002C93.75799999999997,198.95100000000002,93.87599999999996,199.98300000000003,93.46099999999997,200.854L81.48399999999997,226.00400000000002L91.73699999999997,232.467C92.45399999999997,232.919,93.40099999999997,232.69600000000003,93.84099999999997,231.971L98.71399999999997,223.945C99.02499999999998,223.432,99.60999999999997,223.15099999999998,100.20399999999997,223.22799999999998L111.84899999999996,224.73499999999999C112.43399999999995,224.81099999999998,112.92299999999996,225.219,113.09999999999997,225.78199999999998L114.96399999999997,231.69099999999997C115.16099999999997,232.31699999999998,115.73899999999998,232.74499999999998,116.39599999999997,232.75099999999998L142.27999999999997,232.98399999999998L146.08799999999997,205.21999999999997C146.17399999999998,204.59199999999998,146.49399999999997,204.01899999999998,146.98299999999998,203.61499999999998L156.61199999999997,195.665L158.35499999999996,194.226C158.887,193.789,159.055,193.045,158.763,192.419Z" id="전북" style="-webkit-tap-highlight-color: rgba(0, 0, 0, 0);"></path><path fill="#c1e3ff" stroke="none" d="M138.939,161.882L131.363,158.256L129.86599999999999,161.633C129.587,162.261,128.921,162.62400000000002,128.242,162.51600000000002L126.69299999999998,162.269L125.01599999999998,170.172C124.92699999999998,170.594,125.02099999999997,171.033,125.27499999999998,171.381L128.76799999999997,176.161C129.18699999999998,176.734,129.94599999999997,176.94,130.59699999999998,176.657L137.42799999999997,173.685L139.76199999999997,163.591C139.922,162.899,139.58,162.188,138.939,161.882Z" id="대전" style="-webkit-tap-highlight-color: rgba(0, 0, 0, 0);"></path><path fill="#d7f1b9" stroke="none" d="M132.342,154.509L127.12000000000002,145.492L121.42000000000002,143.42999999999998C120.71900000000002,143.176,119.99400000000001,143.74299999999997,120.07100000000001,144.48499999999999L121.72400000000002,160.339C121.79500000000002,161.021,122.31600000000002,161.571,122.99300000000002,161.679L126.69300000000003,162.268L128.24200000000002,162.51500000000001C128.92100000000002,162.62300000000002,129.58800000000002,162.26100000000002,129.866,161.632L131.36300000000003,158.255L132.41500000000002,155.882C132.612,155.44,132.585,154.929,132.342,154.509Z" id="세종" style="-webkit-tap-highlight-color: rgba(0, 0, 0, 0);"></path><path fill="#d7f1b9" stroke="none" d="M77.59,152.845L78.296,152.511C78.86500000000001,152.242,79.54,152.553,79.70400000000001,153.161L82.197,162.399C82.39,163.113,81.775,163.785,81.047,163.658L78.89099999999999,163.28C78.45299999999999,163.203,78.11599999999999,162.849,78.062,162.407L77.01899999999999,153.881C76.966,153.449,77.196,153.031,77.59,152.845ZM142.944,176.224C142.684,175.332,141.956,174.655,141.048,174.46099999999998L137.429,173.68499999999997L130.598,176.65699999999998C129.948,176.93999999999997,129.18800000000002,176.73399999999998,128.769,176.16099999999997L125.27600000000001,171.38099999999997C125.022,171.03299999999996,124.92800000000001,170.59299999999996,125.01700000000001,170.17199999999997L126.69400000000002,162.26899999999998L122.99400000000001,161.67999999999998C122.31600000000002,161.57199999999997,121.79600000000002,161.02299999999997,121.72500000000001,160.33999999999997L120.072,144.486C119.995,143.744,120.72,143.177,121.421,143.43099999999998L127.12100000000001,145.493L131.924,140.886C132.52200000000002,140.31199999999998,132.549,139.363,131.982,138.757L126.27,132.642L122.139,128.219C121.446,127.478,120.378,127.222,119.425,127.571L107.899,131.786L105.285,132.782C104.59,133.047,103.80499999999999,132.768,103.43299999999999,132.12400000000002L101.16999999999999,128.20700000000002C100.88499999999999,127.71300000000002,100.44099999999999,127.33100000000002,99.91099999999999,127.12100000000002L88.24499999999999,122.50900000000003C87.365,122.16100000000003,86.36299999999999,122.33400000000003,85.651,122.95800000000003L69.83,136.81500000000003C68.791,137.72500000000002,68.675,139.30000000000004,69.57,140.35200000000003L76.038,147.96100000000004C76.481,148.48200000000003,77.116,148.80100000000004,77.79899999999999,148.84600000000003L81.633,149.09600000000003C82.72399999999999,149.16700000000003,83.646,149.93200000000004,83.917,150.99200000000002L93.53,188.621L111.105,180.104C111.63000000000001,179.85000000000002,112.254,179.919,112.71000000000001,180.282L117.85700000000001,184.38000000000002C118.26500000000001,184.705,118.81200000000001,184.79700000000003,119.30400000000002,184.62400000000002L127.10600000000002,181.88200000000003C127.97700000000002,181.57600000000002,128.94600000000003,181.76900000000003,129.633,182.38600000000002L136.38,188.44800000000004C136.702,188.73800000000003,137.134,188.87600000000003,137.564,188.82700000000003L146.332,187.83100000000002L142.944,176.224Z" id="충남" style="-webkit-tap-highlight-color: rgba(0, 0, 0, 0);"></path><path fill="#d7f1b9" stroke="none" d="M174.937,110.156C174.443,109.909,173.882,109.83000000000001,173.34,109.93100000000001L149.407,114.41300000000001L126.269,132.64100000000002L131.981,138.75600000000003C132.547,139.36200000000002,132.521,140.31100000000004,131.923,140.88500000000002L127.12,145.49200000000002L132.342,154.50900000000001C132.585,154.929,132.613,155.44000000000003,132.41600000000003,155.883L131.36400000000003,158.256L138.94000000000003,161.882C139.58100000000002,162.189,139.92300000000003,162.899,139.76300000000003,163.591L137.42900000000003,173.685L141.04800000000003,174.461C141.95600000000002,174.656,142.68400000000003,175.33300000000003,142.94400000000002,176.22400000000002L146.328,187.83200000000002L156.105,186.722L160.845,185.054C161.602,184.788,162.187,184.178,162.422,183.411L165.117,174.618C165.386,173.74,164.819,172.826,163.91199999999998,172.678L157.80599999999998,171.68C156.99499999999998,171.548,156.43699999999998,170.793,156.54799999999997,169.979L158.35499999999996,156.762C158.42699999999996,156.239,158.22099999999998,155.716,157.81199999999995,155.382L154.48099999999997,152.66400000000002C153.78999999999996,152.10100000000003,153.73299999999998,151.066,154.35599999999997,150.429L166.48599999999996,138.038C166.94599999999997,137.568,167.57099999999997,137.29600000000002,168.22899999999996,137.27900000000002L183.11299999999994,136.90900000000002C183.83799999999994,136.89100000000002,184.51999999999995,136.56300000000002,184.98499999999996,136.00700000000003L197.28099999999995,121.35700000000003L174.937,110.156Z" id="충북" style="-webkit-tap-highlight-color: rgba(0, 0, 0, 0);"></path><path fill="#c1e3ff" stroke="none" d="M178.322,19.376L174.616,35.238C174.37,36.317,173.45000000000002,37.111,172.346,37.195L122.445,41.018C121.75,41.071,121.10799999999999,41.409,120.66999999999999,41.952L117.78199999999998,45.537L141.468,65.703C141.85999999999999,66.036,142.05599999999998,66.546,141.988,67.056L139.886,82.956C139.795,83.644,140.183,84.305,140.827,84.563L154.149,89.881C154.853,90.162,155.241,90.919,155.058,91.654L149.405,114.413L173.338,109.931C173.881,109.829,174.442,109.908,174.935,110.15599999999999L197.278,121.356L224.22299999999998,120.945C224.77999999999997,120.93599999999999,225.31799999999998,120.744,225.755,120.398L233.076,114.591L178.322,19.376Z" id="강원" style="-webkit-tap-highlight-color: rgba(0, 0, 0, 0);"></path><path fill="#d7f1b9" stroke="none" d="M154.15,89.881L140.828,84.563C140.184,84.306,139.796,83.644,139.887,82.956L141.989,67.056C142.056,66.54599999999999,141.86100000000002,66.03699999999999,141.469,65.703L117.78299999999999,45.537000000000006L94.678,74.218C94.103,74.932,93.187,75.278,92.28399999999999,75.123L88.279,74.437L88.414,87.155L91.403,87.036L94.492,85.19200000000001C94.91300000000001,84.941,95.429,84.909,95.87700000000001,85.105L101.89300000000001,87.742L105.17400000000002,88.382C105.51800000000001,88.449,105.87200000000001,88.333,106.11000000000003,88.07600000000001L111.37800000000003,82.37400000000001C111.63500000000003,82.096,111.98700000000002,81.924,112.36400000000003,81.89200000000001L115.37500000000003,81.638C116.18000000000004,81.57000000000001,116.89600000000003,82.14500000000001,117.00500000000002,82.94500000000001L117.78800000000003,88.71400000000001C117.87700000000002,89.36800000000001,118.55900000000003,89.76300000000002,119.17100000000002,89.51400000000001L119.50500000000002,89.37800000000001C120.24900000000002,89.07500000000002,121.03300000000003,89.72000000000001,120.87800000000003,90.50800000000001L120.09900000000003,94.48200000000001C120.05200000000004,94.72300000000001,119.91800000000003,94.93900000000001,119.72300000000003,95.08900000000001L115.98100000000002,97.96700000000001C115.58600000000003,98.27100000000002,115.02900000000002,98.24200000000002,114.66800000000002,97.89800000000001L113.20300000000002,96.50200000000001C112.92500000000001,96.23700000000001,112.52000000000001,96.153,112.15900000000002,96.28500000000001L108.37100000000002,97.671C108.00700000000002,97.804,107.59900000000002,97.71700000000001,107.32100000000003,97.44800000000001L101.11500000000002,91.436L99.29100000000003,100.08300000000001C99.21000000000002,100.46500000000002,98.98600000000002,100.80100000000002,98.66400000000003,101.02100000000002L95.71600000000004,103.03900000000002L100.53700000000003,105.83900000000001C101.57100000000004,106.44000000000001,101.53500000000004,107.94600000000001,100.47300000000004,108.49600000000001L96.48400000000004,110.561C95.69600000000004,110.96900000000001,95.42500000000004,111.96400000000001,95.89800000000004,112.715L107.89900000000004,131.784L119.42500000000004,127.56899999999999C120.37800000000004,127.22099999999999,121.44700000000005,127.47599999999998,122.13900000000004,128.21699999999998L126.27000000000004,132.64L149.40800000000004,114.41199999999998L155.06100000000004,91.65299999999998C155.242,90.919,154.853,90.162,154.15,89.881Z" id="경기" style="-webkit-tap-highlight-color: rgba(0, 0, 0, 0);"></path><path fill="#d7f1b9" stroke="none" d="M89.606,94.697L83.393,98.33200000000001C83.054,98.53,82.63,98.51400000000001,82.307,98.29100000000001L79.71300000000001,96.495C79.08600000000001,96.061,79.147,95.11500000000001,79.825,94.766L86.376,91.391C86.705,91.221,87.101,91.24600000000001,87.408,91.45400000000001L89.664,92.99000000000001C90.278,93.407,90.247,94.322,89.606,94.697ZM83.722,87.344L88.41399999999999,87.15599999999999L88.27899999999998,74.43799999999999L80.75999999999998,73.15099999999998L82.15399999999998,85.99199999999998C82.24,86.785,82.925,87.376,83.722,87.344ZM95.877,85.106C95.428,84.90899999999999,94.91199999999999,84.94099999999999,94.49199999999999,85.192L91.40299999999999,87.03599999999999L92.99499999999999,100.29699999999998C93.08999999999999,101.08499999999998,93.54899999999999,101.78199999999998,94.23499999999999,102.18099999999998L95.71499999999999,103.04099999999998L98.66299999999998,101.02299999999998C98.98499999999999,100.80299999999998,99.20899999999999,100.46699999999998,99.28999999999998,100.08499999999998L101.11399999999998,91.43799999999997L101.89299999999997,87.74399999999997L95.877,85.106Z" id="인천" style="-webkit-tap-highlight-color: rgba(0, 0, 0, 0);"></path><path fill="#d7f1b9" stroke="none" d="M107.32,97.449C107.598,97.719,108.006,97.80499999999999,108.36999999999999,97.672L112.15799999999999,96.286C112.51899999999999,96.154,112.92399999999999,96.238,113.20199999999998,96.503L114.66699999999999,97.899C115.02799999999999,98.243,115.585,98.272,115.97999999999999,97.968L119.722,95.09C119.91699999999999,94.94,120.05,94.724,120.098,94.483L120.877,90.509C121.032,89.72,120.24799999999999,89.075,119.50399999999999,89.379L119.16999999999999,89.515C118.55799999999999,89.764,117.87599999999999,89.369,117.78699999999999,88.715L117.00399999999999,82.946C116.895,82.146,116.17899999999999,81.571,115.374,81.639L112.363,81.893C111.986,81.925,111.634,82.097,111.377,82.375L106.109,88.077C105.871,88.334,105.517,88.45,105.17299999999999,88.383L101.89199999999998,87.743L101.11299999999999,91.437L107.32,97.449Z" id="서울" style="-webkit-tap-highlight-color: rgba(0, 0, 0, 0);"></path><path fill="#ffffff" stroke="none" d="M96.139,103.303L95.27799999999999,102.779L98.40499999999999,100.643C98.62999999999998,100.489,98.78499999999998,100.257,98.84199999999998,99.989L100.66599999999998,91.342C100.70099999999998,91.178,100.82099999999998,91.04599999999999,100.98099999999998,90.997C101.14099999999998,90.949,101.31499999999998,90.99,101.43499999999997,91.106L107.64099999999998,97.118C107.79199999999997,97.264,108.01699999999998,97.312,108.21399999999997,97.24L112.00199999999997,95.854C112.52999999999997,95.66,113.11199999999997,95.782,113.51999999999997,96.17L114.98499999999997,97.566C115.18299999999996,97.754,115.48399999999997,97.77,115.70199999999997,97.60300000000001L119.44299999999997,94.72500000000001C119.54899999999996,94.64300000000001,119.62199999999997,94.52600000000001,119.64799999999997,94.394L120.42799999999997,90.42C120.46699999999997,90.218,120.39599999999997,90.019,120.23699999999997,89.888C120.07799999999996,89.757,119.86899999999997,89.72500000000001,119.67899999999996,89.80300000000001L119.34599999999996,89.93900000000001C118.92099999999996,90.11200000000001,118.44999999999996,90.07900000000001,118.05399999999996,89.85000000000001C117.65799999999996,89.62100000000001,117.39499999999995,89.22900000000001,117.33399999999996,88.775L116.55099999999996,83.006C116.47499999999997,82.448,115.97399999999996,82.047,115.41499999999996,82.096L112.40399999999997,82.35000000000001C112.13999999999997,82.37200000000001,111.89599999999997,82.492,111.71699999999997,82.686L106.44899999999997,88.388C106.10099999999997,88.765,105.59299999999998,88.93100000000001,105.08799999999997,88.833L101.80699999999996,88.193C101.77399999999996,88.18599999999999,101.74199999999996,88.176,101.71099999999996,88.163L95.69499999999995,85.52499999999999C95.38299999999995,85.38799999999999,95.02199999999995,85.41099999999999,94.72899999999996,85.585L91.63899999999995,87.42899999999999L91.16799999999995,86.63999999999999L94.25799999999995,84.79599999999999C94.80499999999995,84.47,95.47999999999995,84.42699999999999,96.06299999999996,84.68299999999999L102.03199999999995,87.3L105.26299999999995,87.92999999999999C105.45399999999995,87.967,105.64299999999994,87.90499999999999,105.77299999999995,87.76299999999999L111.04099999999995,82.06099999999999C111.37699999999995,81.698,111.83299999999996,81.475,112.32599999999995,81.43299999999999L115.33699999999995,81.17899999999999C116.38599999999995,81.09299999999999,117.31899999999995,81.838,117.45999999999995,82.88099999999999L118.24299999999995,88.64999999999999C118.26599999999995,88.82,118.36499999999995,88.96699999999998,118.51299999999995,89.053C118.66099999999994,89.139,118.83799999999995,89.151,118.99699999999994,89.086L119.32999999999994,88.95C119.83299999999994,88.74600000000001,120.40199999999994,88.833,120.81899999999995,89.176C121.23699999999995,89.52,121.43199999999995,90.063,121.32799999999995,90.59400000000001L120.54799999999994,94.56800000000001C120.47899999999994,94.91900000000001,120.28499999999994,95.23200000000001,120.00199999999994,95.45000000000002L116.25999999999993,98.32800000000002C115.68199999999993,98.77300000000001,114.87799999999993,98.73100000000002,114.34999999999994,98.22800000000002L112.88499999999993,96.83200000000002C112.73199999999993,96.68600000000002,112.51399999999994,96.64100000000002,112.31599999999993,96.71300000000002L108.52799999999993,98.09900000000002C108.00199999999994,98.29200000000002,107.40199999999993,98.16400000000002,106.99999999999993,97.77400000000002L101.39099999999993,92.34100000000001L99.73899999999993,100.17500000000001C99.63299999999994,100.67500000000001,99.34299999999993,101.10900000000001,98.92199999999994,101.397L96.139,103.303ZM126.553,133.002L149.691,114.774C149.77100000000002,114.711,149.828,114.623,149.852,114.524L155.505,91.765C155.742,90.811,155.232,89.818,154.32,89.45400000000001L140.998,84.13600000000001C140.548,83.956,140.279,83.49600000000001,140.34199999999998,83.016L142.444,67.116C142.53199999999998,66.448,142.279,65.789,141.767,65.353L118.08099999999999,45.187C117.987,45.105999999999995,117.86299999999999,45.068,117.74,45.079C117.61699999999999,45.091,117.503,45.152,117.425,45.248L94.321,73.93C93.851,74.513,93.1,74.798,92.363,74.671L88.358,73.985C88.22500000000001,73.963,88.086,74,87.982,74.088C87.878,74.17599999999999,87.819,74.306,87.821,74.443L87.955,87.161L88.874,87.151L88.74499999999999,74.984L92.20799999999998,75.577C93.27499999999998,75.76,94.35799999999999,75.349,95.03699999999998,74.507L117.84499999999997,46.194L141.17199999999997,66.054C141.44599999999997,66.287,141.58099999999996,66.64,141.53399999999996,66.997L139.43199999999996,82.897C139.31299999999996,83.79400000000001,139.81699999999995,84.655,140.65799999999996,84.99000000000001L153.97999999999996,90.308C154.46799999999996,90.503,154.73999999999995,91.034,154.61299999999997,91.54400000000001L148.99799999999996,114.15L126.31599999999996,132.019L122.47299999999996,127.905C121.65299999999996,127.026,120.39299999999996,126.726,119.26599999999996,127.139L107.62299999999996,131.38299999999998L108.15399999999997,132.194L119.58099999999996,128.00199999999998C120.36199999999997,127.71599999999998,121.23399999999997,127.92399999999998,121.80099999999996,128.53199999999998L125.93199999999996,132.95499999999998C126.02199999999996,133.051,126.14499999999995,133.10099999999997,126.26799999999996,133.10099999999997C126.369,133.101,126.469,133.068,126.553,133.002ZM189.598,212.384L192.061,207.611C192.27800000000002,207.191,192.761,206.964,193.225,207.063L195.708,207.605C196.556,207.789,197.45,207.379,197.863,206.619L203.039,197.113C203.23,196.764,203.30999999999997,196.37,203.26999999999998,195.974L202.68099999999998,190.041C202.60699999999997,189.297,202.10699999999997,188.647,201.40699999999998,188.386L197.445,186.906C196.897,186.701,196.267,186.755,195.762,187.048L186.89,192.2C186.36399999999998,192.505,186.01299999999998,193.02599999999998,185.926,193.628L183.30599999999998,211.94199999999998C183.28799999999998,212.07099999999997,183.325,212.20299999999997,183.409,212.30299999999997C183.493,212.40299999999996,183.61599999999999,212.46299999999997,183.74699999999999,212.46699999999996L189.17399999999998,212.63299999999995C189.17799999999997,212.63299999999995,189.18299999999996,212.63299999999995,189.188,212.63299999999995C189.361,212.633,189.519,212.537,189.598,212.384ZM186.837,193.759C186.88299999999998,193.43699999999998,187.07,193.159,187.35199999999998,192.99499999999998L196.224,187.84199999999998C196.494,187.684,196.82999999999998,187.65599999999998,197.124,187.766L201.08599999999998,189.24599999999998C201.46099999999998,189.38599999999997,201.72799999999998,189.73399999999998,201.767,190.13199999999998L202.356,196.06499999999997C202.37699999999998,196.27699999999996,202.334,196.48699999999997,202.233,196.67399999999998L197.05700000000002,206.18099999999998C196.836,206.587,196.359,206.80499999999998,195.90500000000003,206.70799999999997L193.42200000000003,206.16599999999997C192.556,205.97699999999998,191.65200000000002,206.40599999999998,191.24600000000004,207.18999999999997L188.91500000000005,211.70599999999996L184.29100000000005,211.56399999999996L186.837,193.759ZM197.287,121.815L224.231,121.40299999999999C224.885,121.39299999999999,225.528,121.16399999999999,226.041,120.75699999999999L233.304,115.01599999999999L232.845,114.21199999999999L225.47,120.03699999999999C225.114,120.31899999999999,224.669,120.478,224.217,120.484L197.38500000000002,120.89399999999999L175.14300000000003,109.74499999999999C174.56300000000002,109.454,173.89100000000002,109.35999999999999,173.25500000000002,109.47899999999998L150.02400000000003,113.82899999999998L155.50500000000002,91.76399999999998C155.741,90.81099999999998,155.23300000000003,89.81699999999998,154.32100000000003,89.45299999999997L140.99900000000002,84.13499999999998C140.54900000000004,83.95599999999997,140.28000000000003,83.49499999999998,140.34300000000002,83.01499999999997L142.44500000000002,67.11499999999997C142.53400000000002,66.44799999999996,142.28000000000003,65.78899999999997,141.76800000000003,65.35199999999996L118.42200000000003,45.47599999999996L121.03000000000003,42.238999999999955C121.38600000000002,41.79599999999996,121.91600000000003,41.51799999999996,122.48100000000002,41.47499999999995L172.38200000000003,37.65199999999995C173.69500000000002,37.55199999999995,174.77300000000002,36.62199999999995,175.06500000000003,35.34099999999995L178.64700000000002,19.93999999999995L178.00100000000003,18.733999999999952L174.17000000000004,35.13399999999995C173.96700000000004,36.02199999999995,173.22000000000006,36.665999999999954,172.31200000000004,36.73599999999995L122.41,40.56C121.592,40.623000000000005,120.828,41.025000000000006,120.313,41.664L117.425,45.249C117.26899999999999,45.443000000000005,117.29599999999999,45.726,117.485,45.887L141.171,66.053C141.445,66.28699999999999,141.581,66.639,141.533,66.996L139.43099999999998,82.896C139.31199999999998,83.793,139.81599999999997,84.654,140.65699999999998,84.989L153.97899999999998,90.307C154.46699999999998,90.502,154.73899999999998,91.033,154.612,91.543L148.959,114.302C148.921,114.45400000000001,148.963,114.614,149.071,114.72800000000001C149.178,114.84200000000001,149.339,114.894,149.49,114.864L173.424,110.382C173.864,110.299,174.329,110.364,174.731,110.566L197.07399999999998,121.766C197.13799999999998,121.798,197.20899999999997,121.81500000000001,197.27999999999997,121.81500000000001C197.282,121.815,197.285,121.815,197.287,121.815ZM146.38,188.288L156.158,187.178C156.19199999999998,187.174,156.226,187.166,156.25799999999998,187.155L160.998,185.487C161.88899999999998,185.173,162.58499999999998,184.447,162.861,183.545L165.55599999999998,174.753C165.72299999999998,174.207,165.647,173.61599999999999,165.34499999999997,173.13199999999998C165.04399999999998,172.64699999999996,164.54899999999998,172.31699999999998,163.98599999999996,172.22499999999997L157.87999999999997,171.22699999999998C157.30999999999997,171.134,156.92499999999995,170.61299999999997,157.00399999999996,170.04099999999997L158.81099999999995,156.82399999999996C158.90399999999994,156.14699999999996,158.63299999999995,155.45799999999994,158.10299999999995,155.02599999999995L154.77199999999996,152.30799999999996C154.53899999999996,152.11799999999997,154.40099999999995,151.84799999999996,154.38499999999996,151.54799999999997C154.36799999999997,151.24799999999996,154.47499999999997,150.96499999999997,154.68499999999997,150.74999999999997L166.81499999999997,138.35799999999998C167.19299999999996,137.97199999999998,167.69999999999996,137.75099999999998,168.23999999999998,137.73699999999997L183.12399999999997,137.36699999999996C183.97999999999996,137.34499999999997,184.78699999999998,136.95699999999997,185.33699999999996,136.30199999999996L197.63299999999995,121.65199999999996C197.72399999999996,121.54399999999995,197.75899999999996,121.40099999999995,197.73099999999997,121.26399999999995C197.70199999999997,121.12699999999995,197.61299999999997,121.00899999999996,197.48699999999997,120.94599999999996L175.14399999999998,109.74599999999995C174.56599999999997,109.45599999999995,173.89,109.36199999999995,173.25599999999997,109.48099999999995L149.32299999999998,113.96299999999995C149.24999999999997,113.97699999999995,149.18099999999998,114.00799999999995,149.123,114.05399999999995L125.98599999999999,132.28299999999996C125.88499999999999,132.36299999999997,125.82199999999999,132.48099999999997,125.81199999999998,132.60899999999995C125.80199999999998,132.73699999999994,125.84699999999998,132.86399999999995,125.93399999999998,132.95799999999994L131.646,139.07299999999995C132.03799999999998,139.49299999999994,132.01999999999998,140.15799999999996,131.605,140.55699999999996L126.80199999999999,145.16399999999996C126.64899999999999,145.30999999999995,126.61699999999999,145.54299999999995,126.723,145.72599999999997L131.945,154.74299999999997C132.114,155.03499999999997,132.13299999999998,155.39299999999997,131.99699999999999,155.70099999999996L130.945,158.07299999999998C130.844,158.29999999999998,130.94299999999998,158.56599999999997,131.167,158.67299999999997L138.742,162.29899999999998C139.19199999999998,162.515,139.428,163.004,139.316,163.48999999999998L136.982,173.58399999999997C136.954,173.70399999999998,136.976,173.82999999999998,137.042,173.93399999999997C137.108,174.03799999999998,137.213,174.11099999999996,137.333,174.13699999999997L140.953,174.91199999999998C141.697,175.07099999999997,142.291,175.62399999999997,142.505,176.355L145.88899999999998,187.964C145.94699999999997,188.161,146.128,188.295,146.32999999999998,188.295C146.345,188.291,146.362,188.29,146.38,188.288ZM140.21,163.694C140.42000000000002,162.786,139.979,161.86999999999998,139.138,161.46699999999998L131.965,158.034L132.836,156.069C133.091,155.493,133.055,154.82299999999998,132.74,154.278L127.69900000000001,145.57299999999998L132.24200000000002,141.21599999999998C133.01700000000002,140.47199999999998,133.05100000000002,139.22799999999998,132.318,138.44199999999998L126.94700000000002,132.69199999999998L149.603,114.84299999999998L173.425,110.38199999999998C173.866,110.29999999999998,174.333,110.36599999999997,174.732,110.56599999999997L196.555,121.50599999999997L184.633,135.70999999999998C184.252,136.164,183.69400000000002,136.433,183.101,136.44799999999998L168.21699999999998,136.81799999999998C167.43599999999998,136.838,166.70399999999998,137.15599999999998,166.158,137.71399999999997L154.028,150.10599999999997C153.641,150.50099999999998,153.43699999999998,151.04499999999996,153.468,151.59799999999996C153.499,152.14999999999995,153.76299999999998,152.66799999999995,154.19199999999998,153.01899999999995L157.52299999999997,155.73799999999994C157.80599999999995,155.96899999999994,157.95099999999996,156.33699999999993,157.90099999999995,156.69899999999996L156.09399999999997,169.91599999999997C155.94799999999998,170.98499999999996,156.66799999999998,171.95899999999997,157.73299999999998,172.13299999999998L163.83899999999997,173.13099999999997C164.13999999999996,173.17999999999998,164.40499999999997,173.35699999999997,164.56599999999997,173.61599999999999C164.72699999999998,173.87499999999997,164.76799999999997,174.19199999999998,164.67899999999997,174.48399999999998L161.98399999999998,183.27599999999998C161.79299999999998,183.90099999999998,161.31099999999998,184.403,160.694,184.61999999999998L156.003,186.271L146.66199999999998,187.332L143.38699999999997,176.095C143.07899999999998,175.04,142.21999999999997,174.24099999999999,141.14599999999996,174.012L137.98299999999995,173.335L140.21,163.694ZM130.781,177.078L137.612,174.106C137.745,174.048,137.843,173.93,137.876,173.78799999999998L140.21,163.694C140.42000000000002,162.785,139.979,161.86999999999998,139.138,161.46699999999998L131.562,157.84099999999998C131.45000000000002,157.78699999999998,131.321,157.78099999999998,131.205,157.82399999999998C131.089,157.867,130.994,157.95499999999998,130.94400000000002,158.069L129.447,161.446C129.255,161.878,128.791,162.138,128.315,162.061L126.76599999999999,161.814C126.526,161.77599999999998,126.29499999999999,161.933,126.24399999999999,162.172L124.56699999999998,170.076C124.45099999999998,170.624,124.57399999999998,171.198,124.90499999999997,171.65099999999998L128.39799999999997,176.43099999999998C128.76899999999998,176.938,129.36499999999998,177.24099999999999,129.99299999999997,177.24099999999999C130.265,177.242,130.53,177.187,130.781,177.078ZM128.17,162.969C129.06199999999998,163.108,129.928,162.626,130.286,161.819L131.592,158.874L138.741,162.296C139.18400000000003,162.50799999999998,139.425,163.009,139.31400000000002,163.487L137.032,173.355L130.413,176.23499999999999C129.96800000000002,176.428,129.422,176.278,129.139,175.89L125.64600000000002,171.111C125.46900000000001,170.869,125.40300000000002,170.56099999999998,125.46500000000002,170.268L127.05200000000002,162.791L128.17,162.969ZM154.321,256.024L142.754,232.90800000000002L146.542,205.28400000000002C146.612,204.76900000000003,146.872,204.30300000000003,147.274,203.97100000000003L156.673,196.21200000000005L172.741,204.29500000000004C173.10000000000002,204.47500000000005,173.323,204.83700000000005,173.323,205.23800000000006V210.23100000000005C173.323,211.30500000000006,174.16400000000002,212.17300000000006,175.238,212.20600000000005L215.32999999999998,213.42900000000006L226.956,225.67500000000007L206.291,241.13200000000006C205.623,241.63200000000006,205.341,242.50300000000007,205.588,243.30000000000007L206.977,247.74700000000007L207.975,247.85500000000008L206.465,243.02800000000008C206.333,242.6020000000001,206.484,242.13600000000008,206.841,241.86900000000009L227.92000000000002,226.1030000000001C228.025,226.0240000000001,228.092,225.9050000000001,228.103,225.7740000000001C228.114,225.6430000000001,228.06900000000002,225.5140000000001,227.979,225.4190000000001L215.86700000000002,212.6610000000001C215.78400000000002,212.5730000000001,215.669,212.52200000000008,215.54800000000003,212.5180000000001L175.26700000000002,211.28900000000007C174.693,211.27100000000007,174.24300000000002,210.80800000000008,174.24300000000002,210.23300000000006V205.24000000000007C174.24300000000002,204.48900000000006,173.82600000000002,203.81300000000007,173.15500000000003,203.47600000000006L156.81900000000002,195.25800000000007C156.657,195.17600000000007,156.461,195.19800000000006,156.32000000000002,195.31400000000008L146.69000000000003,203.26400000000007C146.11,203.74300000000008,145.735,204.41600000000005,145.63300000000004,205.16000000000005L141.82500000000005,232.92400000000006C141.81200000000004,233.01600000000008,141.82800000000003,233.10900000000007,141.86900000000006,233.19200000000006L153.44200000000006,256.34400000000005L154.321,256.024ZM231.812,229.452L216.155,212.966L221.25300000000001,207.19500000000002C221.50900000000001,206.90600000000003,221.901,206.77700000000002,222.28,206.86400000000003L237.424,210.32300000000004L237.68200000000002,209.43300000000005L222.484,205.96800000000005C221.781,205.80600000000004,221.043,206.04300000000003,220.56400000000002,206.58600000000004L215.187,212.67200000000005C215.02900000000002,212.85100000000006,215.03400000000002,213.12000000000006,215.198,213.29200000000006L231.502,230.47000000000006L231.812,229.452ZM100.781,249.45L108.56,248.438C109.072,248.37099999999998,109.531,248.111,109.852,247.707L113.132,243.57399999999998C113.709,242.84699999999998,113.69800000000001,241.79999999999998,113.10600000000001,241.08599999999998L108.87800000000001,235.98499999999999C108.42600000000002,235.439,107.70000000000002,235.17399999999998,107.00300000000001,235.303L96.24800000000002,237.268C95.46900000000002,237.41,94.85200000000002,238.001,94.67700000000002,238.774L93.40000000000002,244.40800000000002C93.20000000000002,245.29100000000003,93.62300000000002,246.19400000000002,94.43000000000002,246.60500000000002L99.63100000000001,249.25300000000001C99.90700000000001,249.393,100.21700000000001,249.467,100.52700000000002,249.467C100.611,249.466,100.696,249.461,100.781,249.45ZM108.17,236.57L112.398,241.671C112.71499999999999,242.054,112.72099999999999,242.614,112.41199999999999,243.00199999999998L109.13199999999999,247.135C108.96,247.351,108.71499999999999,247.48999999999998,108.44099999999999,247.52599999999998L100.66199999999999,248.53799999999998C100.452,248.56599999999997,100.23499999999999,248.528,100.047,248.432L94.846,245.785C94.414,245.565,94.188,245.082,94.295,244.609L95.572,238.97500000000002C95.666,238.562,95.995,238.246,96.412,238.169L107.167,236.204C107.23,236.193,107.294,236.187,107.357,236.187C107.673,236.188,107.969,236.327,108.17,236.57ZM142.735,233.049L146.543,205.285C146.614,204.77,146.874,204.303,147.275,203.972L158.647,194.584C159.34099999999998,194.011,159.56,193.041,159.17999999999998,192.226L156.52299999999997,186.528C156.43999999999997,186.349,156.25399999999996,186.23999999999998,156.05499999999998,186.266L137.509,188.37199999999999C137.208,188.40499999999997,136.908,188.309,136.684,188.10799999999998L129.936,182.04599999999996C129.124,181.31699999999995,127.98,181.08899999999997,126.95,181.44999999999996L119.148,184.19199999999995C118.803,184.31299999999996,118.426,184.24999999999994,118.14,184.02199999999996L112.993,179.92399999999995C112.402,179.45299999999995,111.58099999999999,179.36199999999994,110.905,179.68999999999994L93.406,188.17199999999994L93.617,189.04299999999995L111.302,180.51899999999995C111.66600000000001,180.34299999999996,112.105,180.39099999999996,112.421,180.64299999999994L117.56800000000001,184.74099999999996C118.10300000000001,185.16799999999995,118.808,185.28699999999995,119.45400000000001,185.05999999999995L127.256,182.31799999999996C127.97,182.06899999999996,128.761,182.22599999999994,129.323,182.73099999999997L136.07,188.79299999999998C136.48999999999998,189.17,137.053,189.35099999999997,137.613,189.28599999999997L155.82999999999998,187.21699999999998L158.34799999999998,192.61599999999999C158.552,193.052,158.43499999999997,193.571,158.063,193.87699999999998L146.69099999999997,203.265C146.11199999999997,203.743,145.73599999999996,204.41699999999997,145.634,205.16199999999998L141.88099999999997,232.52599999999998L116.40199999999997,232.29699999999997C115.94299999999997,232.29299999999998,115.54199999999997,231.99599999999998,115.40399999999997,231.55799999999996L113.53999999999996,225.64799999999997C113.30899999999997,224.91699999999997,112.66899999999997,224.38199999999998,111.90999999999997,224.28399999999996L100.26499999999997,222.77599999999995C99.48999999999997,222.67599999999996,98.72799999999997,223.04199999999994,98.32299999999998,223.70999999999995L93.44999999999997,231.73599999999996C93.30199999999998,231.97999999999996,93.06699999999998,232.15099999999995,92.78899999999997,232.21599999999995C92.51099999999997,232.28099999999995,92.22499999999998,232.23399999999995,91.98299999999998,232.08099999999996L81.68499999999997,225.59299999999996L81.28999999999998,226.42599999999996L91.49399999999997,232.85899999999995C91.94499999999996,233.14299999999994,92.47999999999998,233.23299999999995,92.99999999999997,233.11099999999996C93.51899999999998,232.98899999999995,93.95799999999997,232.66999999999996,94.23599999999998,232.21399999999997L99.10899999999998,224.18699999999998C99.32599999999998,223.82999999999998,99.73399999999998,223.636,100.14799999999998,223.688L111.79299999999998,225.196C112.19899999999998,225.248,112.54099999999998,225.535,112.66499999999998,225.925L114.52899999999998,231.835C114.78699999999998,232.654,115.53699999999998,233.209,116.39499999999998,233.216L142.279,233.449C142.28,233.449,142.28199999999998,233.449,142.283,233.449C142.509,233.446,142.703,233.277,142.735,233.049ZM130.286,161.819L132.835,156.069C133.09,155.493,133.054,154.82399999999998,132.739,154.279L127.51700000000001,145.262C127.46300000000001,145.168,127.37700000000001,145.097,127.27600000000001,145.06L121.57600000000001,142.998C121.01700000000001,142.796,120.37700000000001,142.95999999999998,119.98200000000001,143.398C119.70100000000001,143.71,119.57000000000001,144.113,119.61400000000002,144.533L121.26700000000002,160.387C121.35900000000002,161.275,122.03900000000003,161.993,122.92100000000002,162.133L128.17100000000002,162.96900000000002C128.27500000000003,162.985,128.37900000000002,162.99300000000002,128.48200000000003,162.99300000000002L128.48200000000003,162.99300000000002C129.261,162.994,129.97,162.533,130.286,161.819ZM121.263,143.862L126.80600000000001,145.867L131.94400000000002,154.73899999999998C132.11300000000003,155.03099999999998,132.132,155.38899999999998,131.996,155.69699999999997L129.446,161.44699999999997C129.255,161.87899999999996,128.791,162.13899999999998,128.314,162.06199999999998L123.064,161.22599999999997C122.59299999999999,161.15099999999998,122.229,160.76699999999997,122.17899999999999,160.29199999999997L120.52599999999998,144.438C120.50999999999998,144.28,120.55799999999998,144.13,120.66299999999998,144.01399999999998C120.76899999999998,143.896,120.91799999999998,143.82799999999997,121.07299999999998,143.82799999999997C121.137,143.828,121.201,143.839,121.263,143.862ZM100.781,249.45L108.55900000000001,248.438C109.07100000000001,248.37199999999999,109.53000000000002,248.112,109.85200000000002,247.707L113.13300000000002,243.57299999999998C113.71000000000002,242.84499999999997,113.69800000000002,241.79899999999998,113.10600000000002,241.08499999999998L108.87900000000002,235.98499999999999C108.42700000000002,235.439,107.70000000000002,235.17299999999997,107.00300000000001,235.302L96.24800000000002,237.267C95.46800000000002,237.409,94.85100000000001,238,94.67600000000002,238.774L93.39900000000002,244.40800000000002C93.19900000000001,245.29100000000003,93.62300000000002,246.19400000000002,94.43000000000002,246.60500000000002L99.63000000000002,249.252C99.90600000000002,249.393,100.21600000000002,249.467,100.52600000000002,249.467C100.611,249.466,100.696,249.461,100.781,249.45ZM108.17,236.57L112.398,241.671C112.71499999999999,242.053,112.72099999999999,242.613,112.41199999999999,243.00199999999998L109.13099999999999,247.13599999999997C108.95899999999999,247.35299999999998,108.71399999999998,247.49099999999996,108.43999999999998,247.52699999999996L100.66099999999999,248.53999999999996C100.44899999999998,248.56699999999995,100.23299999999999,248.52999999999997,100.04499999999999,248.43299999999996L94.844,245.78599999999997C94.413,245.56699999999998,94.18599999999999,245.08299999999997,94.29299999999999,244.61099999999996L95.57,238.97699999999998C95.66399999999999,238.563,95.994,238.24699999999999,96.41099999999999,238.17099999999996L107.16599999999998,236.20599999999996C107.22899999999998,236.19399999999996,107.29299999999998,236.18899999999996,107.35599999999998,236.18899999999996C107.673,236.188,107.969,236.327,108.17,236.57ZM88.357,73.985L80.838,72.698L80.771,73.17099999999999L80.81400000000001,73.63L88.20200000000001,74.89L88.357,73.985Z" id="라인" style="-webkit-tap-highlight-color: rgba(0, 0, 0, 0);"></path></svg>