<?xml version="1.0" encoding="utf-8"?>
<!-- Generator: Adobe Illustrator 21.1.0, SVG Export Plug-In . SVG Version: 6.00 Build 0)  -->
<svg version="1.1" id="레이어_1" xmlns="http://www.w3.org/2000/svg" xmlns:xlink="http://www.w3.org/1999/xlink" x="0px"
	 y="0px" viewBox="0 0 500 500" style="enable-background:new 0 0 500 500;" xml:space="preserve">
<style type="text/css">
	.st0{fill:#B9B9B9;stroke:#FFFFFF;}
</style>
<path id="세종특별자치시" class="st0" d="M28.9,54.9l-5.4-3.5L21.2,48L20,43.1l0.6-5.3l0.6-6.2l-4.1-2.1l-4.8-6l1.4-4
	l-0.6-5.4l-2.6-2.5l1.8-3.3l4.6-0.3l8.9,5.3l4.4-0.1l0.5,2.1h1.6l-0.5,3.9L29,21.1l1.3,3l2,2.4v4l3.4,1.4l4.3,1.8l1.7,2.1l-0.9,5.2
	l0.9,2l-2.1,1.2l0.5,4.1l-1.7,4.2l-3.8,3.9l-3.9,0.1L28.9,54.9z"/>
</svg>
