<?xml version="1.0" encoding="utf-8"?>
<!-- Generator: Adobe Illustrator 21.1.0, SVG Export Plug-In . SVG Version: 6.00 Build 0)  -->
<svg version="1.1" id="Layer_1" xmlns="http://www.w3.org/2000/svg" xmlns:xlink="http://www.w3.org/1999/xlink" x="0px" y="0px"
	 viewBox="0 0 509 716.1" style="enable-background:new 0 0 509 716.1;" xml:space="preserve">
<style type="text/css">
	.st0{fill:#B9B9B9;stroke:#FFFFFF;}
</style>
<g id="서울특별시">
	<path id="강동구" class="st0" d="M46.3,25.9v2.2l1.2,1.3l-0.3,1.1l1.1,1.8l1.9,0.6l0.3-1.5l3.8-2.8L54,25.9l-0.8-1.7l-3.7-0.3
		L46.3,25.9"/>
	<path id="송파구" class="st0" d="M46.3,28.1L44,31.3l-3.3,0.4v2.5l2.8,2.3l1-0.1l0.7,1l1.2,0.9l1.3,2.5l3.8-4.6l-1.2-3v-0.5
		l-1.9-0.6l-0.9-1.9l0.1-0.9L46.3,28.1z"/>
	<path id="광진구" class="st0" d="M43.3,24.3l-1.5,0.3l-0.6,1.8l-1.3,3l-0.6,1.9l1.3,0.6l3.3-0.4l2.3-3.3l-0.1-1.9l-1.8-3.1
		L43.3,24.3z"/>
	<path id="중랑구" class="st0" d="M41.4,17.6l0.4,6.9l1.5-0.3l3-2.9l-0.2-3.9l-0.4-0.9l-2.6,0.1L41.4,17.6z"/>
	<path id="노원구" class="st0" d="M39.7,5.3l-0.8,2.8l0.7,2.4L39,14.3l-1.1,0.4l1.8,2.1l1.9,1l1.6-1.2l3,0.3l-3-5.3l-0.5-6
		L39.7,5.3"/>
	<path id="강남구" class="st0" d="M39.4,31.2l-2.7-0.8l-2.7-0.3l-0.8,1l1.1,2.8l0.5,1.1l0.3,2.2l1.8,1.4l0.8,1.8l0.7,0.8l1.4-0.4
		l0.8-0.8l1.9,0.2l0.3,1.3l0.9,0.5l0.8-0.8l3-0.2l-1.2-2.8l-1.2-0.9l-0.7-1l-1,0.1l-2.8-2.3l0.1-2.3L39.4,31.2z"/>
	<path id="성동구" class="st0" d="M35.3,24.5L35,26.1l-1.1,1.1l-0.5,0.9l0.7,2l2.7,0.3l2.6,1l1.8-4.1l0.2-1l-2.5-0.9l-0.9-1.1
		l-1.1,0.1l-0.8,0.5L35.3,24.5z"/>
	<path id="동대문구" class="st0" d="M35.3,23.3l0.7-1.4l1.7-1.2l1.2-1.4l2.8-0.5l0.3,5.8l-0.7,2l-2.4-1.2l-1.3-0.8l-1,0.2
		l-0.6,0.2l-0.7-0.3L35.3,23.3z"/>
	<path id="성북구" class="st0" d="M37.3,17.5l-3-0.1l-0.9-1.9l-3.4-2.2l-0.8,1.2l1,2l0.5,2.2l-0.8,0.8l0.1,0.7l2.3,0.7l1.8,2.4
		h1.4l0.7-1.4l1.6-0.9l1.6-1.7l2.4-0.5l-0.3-1.3l-1.5-1l-1.4-1.3L37.3,17.5z"/>
	<path id="강북구" class="st0" d="M35.5,11.6l-2.3-1.3l0.6-2.9l-0.7-2.2l-2.5,2.4l-0.8,5l0.1,1.1l3,1.8l1.3,2l3,0.1l1.4-2.2
		L35.5,11.6z"/>
	<path id="도봉구" class="st0" d="M39.5,5.6L38,6.4l-3.9-2.6L33,5.3l0.6,2l-0.5,3.1l2.3,1.2l2.8,3.3l1-0.6l0.5-3.8L39,8.3
		L39.5,5.6z"/>
	<path id="서초구" class="st0" d="M30.3,33.7l3-2.6l1.6,3.9l0.4,1.9l2,1.8l1.3,2.4l1.4-0.2l0.6-0.9l2.3,0.2l0,1.4l0.9,0.5
		l-3.4,5.1l-2.6-0.8l-1.5-4.2l-5.5-0.3l-0.8-2.2l0.3-3.6L29.4,35l-0.9-0.3l-0.1-1H30.3z"/>
	<path id="용산구" class="st0" d="M26.6,32.6l-1.8-2l2.9-3.5l3.1,0.1l0.6,0.4l2,0.5l0.7,2l-1,1.4l-2.9,2.2h-1.9L26.6,32.6z"/>
	<path id="중구" class="st0" d="M27.1,25.7l1.1-1.2l2-0.4l1,0.6l4.1-0.2L35,26.1l-1.1,1.1l-0.5,1.3l-1.4-0.5l-1.1-0.8h-2.9
		L27.1,25.7z"/>
	<path id="종로구" class="st0" d="M26.4,15.6l0.3,3.7l0.5,0.8l0.2,1.8l-0.5,1.3l1.3,1.6l1.9-0.3l1.3,0.4l3.8-0.3l0.4-1.5
		l-1.3-0.1l-2.1-2.3l-2.3-0.8l1-1.3l-0.7-2.7L27.9,14L26.4,15.6z"/>
	<path id="은평구" class="st0" d="M20.2,22.5l-2-1.7l1.8-1.1l0.4-6.1l2.2-0.8l2.8-2.9l1.6,3l1.3,1.3l-1.4,1.5v2.9l-1.3,0.1
		l-0.8,1.1l-1.1,0.3L23,21.2l-1.3,0.1L20.2,22.5z"/>
	<path id="서대문구" class="st0" d="M23.6,25.8l-3.1-3.5l1.2-1l1.3-0.1l0.6-1.1l1.1-0.3l0.8-1.1l1.3-0.1l0.1,1l0.7,0.6l-0.1,1.8
		l-0.4,1l1.2,1.8l-1.1,0.9l-0.8,0.5L23.6,25.8z"/>
	<path id="마포구" class="st0" d="M22.9,29.3L18,27.1l-2.8-2.2l-2-2.1l2.2,0.1l2.4-2.2l0.8,0.1l1.6,1.5l0.8,0.3l2.8,2.9l2.8,0.6
		l0.8-0.1l1,1.4l-3.4,3.3L22.9,29.3z"/>
	<path id="강서구" class="st0" d="M10.3,27.8l2,2.1l2,0.1l0.9-2.3l1.5-0.2v-1.3l-3.6-3.5l-1.3-0.2l-4.5-3.1l-4.8,7.3l6.2,2.6
		L10.3,27.8z"/>
	<path id="양천구" class="st0" d="M13.1,33.2l1.2,0.1l0.7,1.1l1.1-0.3l0.9-1.1l-0.3-2l1.1-1L17.6,29l-1-1.5H15l-1,2.3l-1.7,0.1
		l-2.2-2.2L9,29.6l1.2,4.7l1.7-0.1L13.1,33.2z"/>
	<path id="구로구" class="st0" d="M18.4,37.5l-0.2-2.1l-0.6-1.8l-1-0.8L15.8,34l-0.8-0.1l-0.9-0.9h-1.5L11.7,34l-1.5,0.3
		l-1.7,1.8l1.4,3.8l2.9-1.3l2.5-1.6l0.8,1L18.4,37.5z"/>
	<path id="금천구" class="st0" d="M21.4,42.4l-0.8-3.7l-0.8-1.1l-1.9-0.4l-2,0.8l3.3,7.4l2.9-1.7l-0.5-0.9L21.4,42.4z"/>
	<path id="관악구" class="st0" d="M22.8,36.4l3.6,0.2l1.2,2.4l2.3,0.6l0.8,1.8l-3.4,4.3L25,45.6l-3.8-3.1l-0.8-3.8l-0.3-0.8
		l1.4-0.5l0.8-1L22.8,36.4L22.8,36.4z"/>
	<path id="동작구" class="st0" d="M23.2,32.3l-1.3,2l-0.5,1.6l-1.6,1.1l-0.2,0.7l0.6,0.3l1.4-0.3l0.8-1.1l3.8,0.3l1.3,2.1
		l2.3,0.6l0.3-3.6L29.4,35l-1.2-0.5l0.1-0.8l-1.9-1.4L23.2,32.3L23.2,32.3z"/>
	<path id="영등포구" class="st0" d="M16.9,27l-0.2-0.8l6.2,3.1l1.8,1.3l1.4,1.6l-3,0.4l-1.4,2l-0.3,1.3l-2.2,1.6L18,36.9
		l-0.1-1.6l-0.6-1.6l-0.8-0.8L16.5,31l1.3-1.1l-1.2-2.4L16.9,27z"/>
</g>
</svg>
