<?xml version="1.0" encoding="utf-8"?>
<!-- Generator: Adobe Illustrator 21.1.0, SVG Export Plug-In . SVG Version: 6.00 Build 0)  -->
<svg version="1.1" id="레이어_1" xmlns="http://www.w3.org/2000/svg" xmlns:xlink="http://www.w3.org/1999/xlink" x="0px"
	 y="0px" viewBox="0 0 500 500" style="enable-background:new 0 0 500 500;" xml:space="preserve">
<style type="text/css">
	.st0{fill:#B9B9B9;stroke:#FFFFFF;}
</style>
<g id="울산광역시">
	<path id="북구_1_" class="st0" d="M57.8,30.4h-3.4L52,31.7l-0.5-7.1l0.3-3.5l7.3-4.8l10.3,4.3l1.3,4.5l2.1,3l-0.3,3.4l-1.5,2
		l-3,0.8l-2.6,2.5v4.8l-6.4-4.8l-0.6-4.5L57.8,30.4z"/>
	<path id="중구_3_" class="st0" d="M56.9,37l-4.5,0.1l-1,0.9l-2.1-1.4l-2.1-0.3L46.8,33l3.3-1.5l2,0.3l2.4-1.4h3.4l0.5,2.3
		l0.6,4.1L56.9,37z"/>
	<path id="동구_2_" class="st0" d="M64.3,44l1-2.5v-4.8l2.6-2.5l3-0.8l1.4,1.8l-1.1,2.9L71,43.7l-1.6,3l-3,2.4L66,44.9L64.3,44z"
		/>
	<path id="남구_2_" class="st0" d="M63,48.6L59.1,51l-2.4-3.6l-3.5-2l-4.8-5.1l-3.5-1l2.1-2.9l2.1,0.3l2.1,1.4l1-0.9l6.5-0.4
		l5,3.6L63,42.9l-0.3,2.4L63,48.6z"/>
	<path id="울주군" class="st0" d="M60.5,66.6l-0.9-4.3l0.9-2.6L59.9,57l1.3-2.3l-2-3.8l-2.4-3.6l-4.3-2.3l-4-4.9l-3.5-1l2.1-2.9
		L46.8,33l3.6-1.6l1.6,0.4l-0.5-7.1l-0.1-3.1l-4.1-2l-0.5-6.6l-6.5-1.8l-6.8,0.3l-1.3-1l-3,2.5l-4.8,0.8l-3.3,6.5l2.4,3.4L20,23.6
		l-5.3,2l2.1,3.1l-0.8,3.8l-5.3,3v2.9l3,2.5l1.5,1.5l6.5,0.9l5.9,4.3l6.1,8.3l5.6-0.4l2.9,3.8l-2,3.8l5.3,0.8l2.4-0.9l2.5,2.1
		l0.4,5.8l1.9,1.6l4.8-3.9l2.6-0.6L60.5,66.6z"/>
</g>
</svg>
